<?xml version="1.0" encoding="utf-8"?>
<!-- Generator: Adobe Illustrator 22.1.0, SVG Export Plug-In . SVG Version: 6.00 Build 0)  -->
<svg version="1.1" id="Layer_1" xmlns="http://www.w3.org/2000/svg" xmlns:xlink="http://www.w3.org/1999/xlink" x="0px" y="0px"
	 viewBox="0 0 956.3 604.4" style="enable-background:new 0 0 956.3 604.4;" xml:space="preserve">
<style type="text/css">
	.st0{fill:#D8D8D8;}
	.st1{fill:#D3D3D3;}
	.st2{fill:#DBDBDB;}
	.st3{fill:#CACACA;}
	.st4{fill:#C3C3C3;}
	.st5{fill:#DCDCDC;}
	.st6{fill:#C9C9C9;}
	.st7{fill:#CDCDCD;}
	.st8{fill:#D2D2D2;}
	.st9{fill:#E5E5E5;}
	.st10{fill:#DADADA;}
	.st11{fill:#D7D7D7;}
	.st12{fill:#D6D6D6;}
	.st13{fill:#E7E7E7;}
	.st14{fill:#D0D0D0;}
	.st15{fill:#D1D1D1;}
	.st16{fill:#CECECE;}
	.st17{fill:#B5B5B5;}
	.st18{fill:#D5D5D5;}
	.st19{fill:#CCCCCC;}
	.st20{fill:#BFBFBF;}
	.st21{fill:#DDDDDD;}
	.st22{fill:#B2B2B2;}
	.st23{fill:#CBCBCB;}
	.st24{fill:#DFDFDF;}
	.st25{fill:#BDBDBD;}
	.st26{fill:#BCBCBC;}
	.st27{fill:#DEDEDE;}
	.st28{fill:#C8C8C8;}
	.st29{fill:#C2C2C2;}
	.st30{fill:#C7C7C7;}
	.st31{fill:#D9D9D9;}
	.st32{fill:#C0C0C0;}
	.st33{fill:#CFCFCF;}
	.st34{fill:#E1E1E1;}
	.st35{fill:#C6C6C6;}
	.st36{fill:#E9E9E9;}
	.st37{fill:#D4D4D4;}
	.st38{fill:#B7B7B7;}
	.st39{fill:#E4E4E4;}
	.st40{fill:#C4C4C4;}
	.st41{fill:#C5C5C5;}
	.st42{fill:#BEBEBE;}
	.st43{fill:#E3E3E3;}
	.st44{fill:#B6B6B6;}
	.st45{fill:#E2E2E2;}
	.st46{fill:#ACACAC;}
	.st47{fill:#EDEDED;}
	.st48{fill:#E0E0E0;}
	.st49{fill:#A4A4A4;}
	.st50{fill:#E8E8E8;}
	.st51{fill:#A9A9A9;}
	.st52{fill:#E6E6E6;}
	.st53{fill:#B9B9B9;}
	.st54{fill:#B0B0B0;}
	.st55{fill:#BBBBBB;}
	.st56{fill:#F0F0F0;}
	.st57{fill:#ECECEC;}
	.st58{fill:#AEAEAE;}
	.st59{fill:#EBEBEB;}
	.st60{fill:#EAEAEA;}
	.st61{fill:#ADADAD;}
	.st62{fill:#ABABAB;}
</style>
<title>birds</title>
<g id="Layer_2_1_">
	<g id="Layer_1-2">
		<path class="st0" d="M863.1,398.5l-4-3.5c4.1-1.7,8-4.6,11.5,0.8c0.6,0.1,1.2,0,1.7-0.4c0.8-1,1.4-2.1,1.8-3.3
			c0.6-1.7,1-3.5,1.4-5.3l-6.9-1.3c0.9-1.3,1.8-2.8,3-4.1c4.2-4.8,8.6-9.4,12.6-14.3s1.5-10.7-4.7-12.2c-0.5-0.1-1.2-2-0.9-2.3
			c1.9-1.9,3.8-4.5,6.1-5c2.1-0.4,5.7,0.9,6.9,2.7c1.8,2.7,2.7,2.4,4.2,0.3c5.2-7.3,10.4-14.7,15.6-22c1-1.1,2.1-2,3.3-2.8
			c-0.2,1-0.4,2-0.3,3.1c1.9,9-1.6,16.8-4.8,24.8c-1.1,2.9-0.5,4.2,2.7,3.6c2.9-0.5,5.8-1.2,8.7-2c4.2-1.2,5.3,0.1,4.7,4.4
			c-0.8,5.7-3.5,7.4-9.2,7.1c-4.9-0.3-9.8,0.5-14.4,2.3c-3.9,1.7-6.8,5.5-10.1,8.4c-0.7,0.6-1.6,1.1-2.3,1.8
			c-2.9,2.7-6.1,4.1-5.6,9.9c0.4,5.1-2.8,10.8-5.5,15.7c-1.7,3-2,4.3,1,6.2c2,1.3,3.6,3.2,5.4,4.8c-2.5,2.2-5.1,4.2-7.9,6
			c-0.5,0.3-3.2-1.7-3.5-3c-1.5-6.3-5.7-9.3-11.8-9.3c-10.6-0.1-16.6-11.2-16.3-18.4c0.2-1.2,0.6-2.4,1.1-3.5
			c1.1,0.4,2.1,0.9,3.1,1.6c3.9,3.1,7.7,6.3,11.5,9.5c0.5,0.3,1.1,0.5,1.6,0.5L863.1,398.5z"/>
		<path class="st1" d="M214.5,276.8c1.6,10.2,2,20.3-3.4,29.7c-2.4,4.2-0.5,5.7,3.2,5.5c4.8-0.3,9.5-1.5,14.3-2.2
			c1.1-0.1,3.2,0.5,3.3,0.9c0.3,3.2,0.3,6.4,0,9.6c0,0.3-2.5,1-3.4,0.7c-6.3-2.6-11.7-2.3-17.3,2.5c-4.8,4.2-15.9,2.5-20.8-3.2
			c-4.4-5.1-9.1-5.5-13.9-3.4c1.1-2.4,2-5.5,3.8-7.9c1.6-2.1,4-4.4,6.4-4.9c3.6-0.8,3.2-2,2-4.4c-1.7-3.4-3.3-7-4.9-10.5
			c-0.2-0.8-0.3-1.6-0.3-2.5c0.8,0.3,1.9,0.5,2.5,1c3.2,3.3,6.4,6.7,9.5,10c0.7,0.6,1.5,1.2,2.3,1.7c0.3-0.9,1-1.8,0.9-2.5
			c-1.6-7.1,1.8-12.3,6.2-17.2L214.5,276.8z"/>
		<path class="st0" d="M99.6,309c6.5-4.4,10.6-9.8,11.5-18.1c0.5-4.5-0.2-5.3-4.2-6.3c-3.1-0.8-5.7-3.5-8.5-5.4
			c4.6-3.3,8.8-8,15.7-4.8c0.4,0.2,2.1-2.3,3.2-3.5l8.4-1.4c-5.8,5-1.9,5.6,2.1,6.1c1,0.1,1.9,0.4,2.9,0.6c5.2,5,11.1,2.7,16.9,1.5
			c8.2-1.7,9.4-0.4,7.1,7.7c-0.3,1.2-0.6,2.4-0.7,3.7c-0.7,7.4-2.1,8-8.5,4.4c-3.2-1.9-6.6-3.5-10.1-4.7c-3.2-1.1-5.9,0-6.9,3.6
			c-1.7,6.2-3.8,12.3-9.3,16.3c-5.2,3.8-10.2,8-17.5,5.9c-1.1-0.3-2.6,0.6-3.9,0.9C98.4,313.4,99,311.2,99.6,309z"/>
		<path class="st2" d="M827.4,154.9c0.7,1.9,1.4,3.8,2.3,5.6c0.7,1.1,1.6,2,2.5,2.9c-3-1.1-7.4,1-9-3.8c-0.1-0.4-3-0.5-3.5,0.1
			c-1.6,2.2-3.1,4.5-4.5,6.9c1.9,0.6,4.7,0.2,7.4-0.6c0.6-0.2,1.8,1.1,2.4,1.9c0.2,0.2-0.5,1.4-1,1.8c-1,0.6-2,1.1-3.1,1.6
			c-2.1-0.2-4.3-0.4-6.4-0.8c-0.6-0.1-1.5-1.4-1.4-1.8c2.8-6.8-0.7-10.7-6.1-14c-2.4-1.5-4.2-3.8-6.5-6c-1.2,3.2-1.9,6.3-3.5,8.8
			c-2,2.9-4.3,5.5-6.9,7.9c-0.2,0.3-1.7-0.7-4.9-2.5c-1,4.8-1.2,9.9-3.1,14.3c-2.6,5.8-6.5,11-9.8,16.4c-0.4,0.8-0.7,1.5-1,2.3
			c-1.1-1.1-2.1-2.3-3.2-3.4l0.4-2.7c0-2-0.1-4-0.1-6.2l-3.7-1.9c0.5-7.4,5.2-11.8,10.8-15.7c1.6-1,3.1-2.2,4.5-3.4
			c0.7-0.9,1.3-1.8,1.8-2.8c-0.9,0.5-1.8,0.8-2.8,1.1c-3.2,0.3-6.4,2.8-9.7,0.5c-0.6-0.6-0.9-1.5-0.8-2.3
			c3.6-5.4,7.4-10.6,11.2-15.9c1.1,0.7,2.3,1.5,3.4,2.2c2.6,1.7,7.9,0.2,9.3-2.2c0.9-1.5,2.5-2.4,3.8-3.6l2.2,4.8
			c-0.8-0.1-1.7-0.1-2.5,0c-1.1,0.3-2.1,0.8-3,1.4c-0.2,0.1,0.1,0.9,0.1,1.4c1-0.1,2-0.3,2.9-0.5s2.1-0.6,3.2-0.9l8.3,1.3
			c0.1-1.3,0.3-2.7,0.3-4c0-1.1-0.2-2.3-0.3-3.4c1.1,0.1,2.1,0.4,3.1,0.9c3.1,2.1,6,4.4,9,6.6c-1.5,1.1-2.9,2.3-4.2,3.7
			c-1,1.5-1.9,3-2.6,4.6c1.3,0,2.7,0,4,0c0.8,0,1.9-0.4,2.3,0C822.1,158.1,824.7,156.9,827.4,154.9z"/>
		<path class="st3" d="M527.9,164.1c2.5,8.1,2.5,8.1,11.7,6.7c2.7-0.4,5.4-1.3,8.1-1.3c1.4,0,2.7,1.5,4.1,2.3c-1.1,1.4-2,3.6-3.3,4
			c-3,0.7-6.4-0.1-9.2,0.8c-3.2,1-6.1,2.8-8.5,5.1c-3.9,3.8-9.8,4.8-14.7,2.4c-3-1.4-6.6-1.3-10-1.9c-0.6-0.1-1.7-0.8-1.6-1.1
			c0.5-3.1,0.6-6.5,2.1-9.2c1.3-2.3,1.3-3.1-0.7-4.7c-7.3-6-14.3-12.3-21.5-18.4l0.5-1.5c2.8,0,5.7-0.2,8.5,0.1
			c3.9,0.4,6.1,0.1,3.8-4.6c-0.9-2.3-1.7-4.7-2.3-7.1c11.2,3.6,19.6,10.3,26.7,18.9c-3.4,2.3-6.7,4.5-11.1,4.3
			c-0.6,0-1.3,0.9-1.9,1.4c0.4,0.4,0.8,0.9,1.3,1.1c5.2,1.6,10.7,5,15-1.8c0.1-0.1,0.5-0.1,0.7-0.2l0,0c-0.5,1.1-1,2.3-1.3,3.5
			c-0.5,2.3-0.8,4.6-1.1,7c0,0.1,0.7,0.4,1.1,0.6c0.8-1.6,1.7-3.3,2.5-4.9C527.1,165.1,527.5,164.6,527.9,164.1z"/>
		<path class="st4" d="M825.3,423.3c-2.1,4.7-3.6,9.9-6.5,14.1c-6.8,10-14.7,12.2-25.8,9.6c-0.8-0.2-1.6-0.3-3.5-0.6
			c1.2-0.9,2.5-1.7,3.8-2.4c10-4.1,13.7-12.3,15-22.3c0-0.4-1.1-1.1-1.8-1.5c-3.2-1.7-6.4-3.3-9.5-5.1c-0.3-0.4-0.4-1-0.2-1.5
			c3.3-2.6,6-6.2,11.1-4.6c1.3,0.4,3.5,0.7,4.2,0c0.9-1,1.5-3.5,0.9-4.3c-0.9-1.3-3-1.7-4.7-2.4c-0.6-0.1-1.2-0.1-1.8,0l7.7-3.6
			l-4.4-2.6c2.5-0.5,4.2-1.3,5.9-1.2c1.2,0.1,2.4,1.2,3.6,1.8c-0.7,0.7-1.4,1.3-2,2.1c-0.4,0.6-0.8,1.2-1.1,1.8
			c0.6,0.2,1.5,0.7,1.8,0.5c2.2-1.5,4.2-3.1,6.1-4.9c0.3-0.3-0.7-2.4-1.6-3.1c-1.3-0.8-2.7-1.5-4.2-2c0.7-1.4,1.5-2.7,2.1-4.1
			c0.3-1.1,0.6-2.1,0.7-3.3c2.7,2.2,6.1,3.9,7.8,6.7c4,6.6,1.4,13.2-1.3,19.6c-0.3,0.8,1.8,2.7,2.8,4.1c0.2,1.3,0.3,2.7,0.5,4
			c0.1,0.9,0.3,1.9,0.5,2.8c-0.8,0-1.6,0-2.4,0.3C827.7,422,826.5,422.6,825.3,423.3z"/>
		<path class="st5" d="M277.5,317.7c-1.7,3.6,0.2,5.2,3.4,5c4.7-0.2,9.4-0.9,14-2c4.1-1.2,5.1,0.5,5.6,3.9c0.9,6.2-1.5,8.4-7.1,6.5
			c-5.2-1.7-9.8-1.7-14.1,2.7c-4.6,4.6-16,3.3-20.6-1.8c-5.4-6.1-7.9-6.7-14.9-4.3c1.1-2.5,2-6,4-8.5c1.6-2,4.4-4.1,6.8-4.3
			c3.8-0.4,2.6-1.7,1.7-3.6c-1.8-3.8-3.6-7.6-5.3-11.5c-0.2-0.8-0.2-1.6,0-2.4c0.8,0.2,1.5,0.5,2.2,1c4.1,4,8.1,8.1,13,13.1
			c-1.8-9.4,1.5-16.2,7-22.2c1.1,5,2.3,9.9,3.5,15.2c-1.1-0.1-2.3,0.1-3.4,0.3c-0.7,0.2-1,1.4-1.4,2.2c0.7,0.4,1.5,1.3,2,1.2
			c4.5-1.8,4.2,0.8,3.8,3.8C277.5,313.7,277.5,315.7,277.5,317.7z"/>
		<path class="st6" d="M427.2,149.1c1.8,0.9,3.6,1.8,5.5,2.7c1.3,0.6,2.7,1.2,4.1,1.8c-0.3,0.7-0.5,1.4-0.6,2.2
			c0.1,0.6,0.4,1.2,0.9,1.6c0.5,0.1,1,0.1,1.3-0.2c2.1-6.7,8.9-0.4,12-4.3c0.3,0.2,0.5,0.4,0.8,0.6c1.6,0.7,3.1,1.4,4.7,2
			c-2.3,2.7-4.6,5.5-6.9,8.2c-6.6-3.5-15.8-3-19.1,1.8c3,0.2,5.7,0.4,8.3,0.6c1.2,0.2,2.3,0.5,3.4,0.8c-1,1.1-1.9,2.4-3.2,3.1
			s-2.7,0.5-3.8,0.6l2.2,2.9c-6.1-2.4-10,4.6-15.7,3.7l0.1,3.4l-2.1,4.2l3,1.5c-1.2,0.3-2.4,0.6-3.6,0.9c-2.5,0.5-6.3-0.8-5.5,4.1
			c-4-3.4-8-6.8-11.8-10.3c-0.3-0.2,0.3-2.1,0.7-2.2c1.5-0.1,3-0.1,4.4,0c0.8,0,2-0.1,2.3-0.6c0.3-0.8,0.1-1.7-0.4-2.4
			c-1.8-1.7-3.8-3.1-5.7-4.7c-2.3-1.9-4.5-3.8-6.7-5.7c-0.7-0.6-1.5-1.1-2.2-1.6c-0.7-2.4-1.3-4.8-2.1-7.6l7.9,2.5
			c7.5,1,14.9,2,22.4,2.9c0.9,0.1,1.9-0.7,2.8-1.1c-0.9-0.5-2.2-0.9-2.5-1.6c-0.6-2-1.1-4-1.4-6.1L427.2,149.1z"/>
		<path class="st7" d="M565.1,327.2c1.2-4.3,2.3-8.5,3.3-12.8c0.1-0.4-1.1-1.2-1.8-1.5c-3.2-1.7-6.5-3.3-9.7-5.1
			c-0.3-0.5-0.3-1.1-0.1-1.7c4.1-2.1,7.5-6.3,12.9-4c1,0.1,2-0.2,2.7-1c3.5-6.8,7.2-13.5,6-21.5l6-1.2c1.2,0.9,2.3,1.9,3.2,3.1
			c5,6.8,2.5,13.7,0,20.6c-0.4,1.1,0.7,3.4,1.8,4.1c1.4,1,3.5,0.9,5.3,1.3c1.2,0.3,2.3,0.7,3.5,1c0.8,0.2,1.7,0.3,2.5,0.4
			c-0.7,1-1.3,2.2-2.2,2.8c-1.3,0.7-2.8,0.9-5.5,1.7c5.5,1.5,3.4,2.9,1.4,4.2c-6.9-3.2-9.8-2.2-11.6,4.7
			c-1.3,5.9-5.1,10.9-10.3,13.8c-0.9-0.3-1.8-0.6-2.6-1c-0.6-0.4-1.2-0.8-1.8-1.3C571.8,329.4,567.2,328.9,565.1,327.2z"/>
		<path class="st1" d="M173.1,230.7l-7.4,1.8c-1.4-2.4-1.6-4.3,1.4-5.8c0.8-0.4,1.1-2.1,1.6-3.2c-1.2-0.2-2.4-0.4-3.6-0.7
			c-1.6-0.4-3.1-0.9-4.6-1.4c-1.3-0.6-2.5-1.2-3.7-1.9c-0.6,1.5-1.2,2.9-1.7,4.4s-0.9,2.9-1.4,4.3c-2-0.8-4.4-1.3-6.1-2.6
			c-3-2.3-5.8-4.9-8.3-7.8c-1.4-1.5-1.9-3.8-2.8-5.7c0.9-0.2,1.9-0.8,2.8-0.7c8.9,1.6,17.7,3.3,26.6,4.8c1.5,0.3,3.1-0.6,4.7-1
			c-1.5-0.7-2.9-1.4-4.7-2.2c0-1,0.2-1.9,0.5-2.8c1.2-2.2,2.3-5.5,4.2-6.2c1.9-0.7,5.7,0.3,7.3,1.9c3.5,3.5,4.6,2.6,6.2-1.5
			c1.7-4.2,4.4-8,6.6-12.1s4.6-8,6.5-12.1c1.1-2.3,1.6-2.7,3.6-0.9c4,3.6,6.4,16,4,19.8c-1.1,1.9-1.7,4.5-3.4,5.5
			c-5,3.1-7.2,7.2-6.2,13c-1.4-0.4-2.9-0.3-4-1.1c-5.4-3.8-12.4-3.5-15.7,2.1C173.6,222.1,173.8,226.7,173.1,230.7z"/>
		<path class="st3" d="M850.6,277.3l-2.4,4l7.6,3.5c0.9,2.2-6.4,3.5-0.5,6.2l-3.8,2.4c-6.2-0.8-6.7,4.1-7.6,8.1
			c-1.6,6.7-10,15.9-16.2,17.1l-9.3-2.8l2.4-4.8c4.6-4.6,7-10.8,6.8-17.3c1.3-1.9,2.2-3.7-1.5-3.4c0.6-1.1,1-2.2,1.3-3.4
			c0.1-0.7-0.6-1.6-0.9-2.4l-6.5,3.7l-3-2.8c-0.3-0.6-1.1-1.4-0.9-1.6c2.3-4,8-6,13-5c1.5,0.1,3-0.5,3.9-1.7
			c2.1-3.5,3.8-7.2,5.6-10.9c1.3,0.7,2.7,1.3,4,2.1c0.5,0.4,0.9,1,1.2,1.6c-1.6,1.7-3.2,3.3-5.2,5.2
			C842.8,275.1,846.8,275.8,850.6,277.3L850.6,277.3z"/>
		<path class="st8" d="M127.7,175.7l-8.4,4.7c0.9-4.3,1.3-7.8,2.3-11.1c0.6-1.3,1.7-2.2,3-2.5c10.9-1.8,18.3-8.5,24.5-17
			c0.7-0.9,1.3-2.3,2.1-2.5c1.4-0.3,3,0.3,4.5,0.5c-0.4,1.1-0.9,2.1-1.5,3.1c-6.4,8.5-9.9,17.6-6.2,28.5c1.7,5.1,1,10-3.5,14
			c-0.6,0.6-0.6,2-1,3.5l-1.8-3c-0.2,3.7-1.3,5.9-5,4.7l-3.1,2c-0.6-1.4-1.3-2.8-2.1-4.1c-0.6-0.8-1.9-1.9-2.7-1.8
			c-2.8,0.5-5.4,1.8-8.2,2.2c-1.1,0.2-2.5-1-3.8-1.6c0.5-1.2,1.1-2.4,1.8-3.5c3.3-5,6.7-10.1,10-15.1L127.7,175.7z"/>
		<path class="st6" d="M751.9,448.5l-4.9,2.3c0.1-2.1,0.2-4.1,0.4-6.1c0.6-5.4,1.6-10.8,2-16.3c0.4-5.8-4.7-9-10.2-6.9
			c-0.5,0.2-2.2-1-2.1-1.4c0.6-8.5,1.8-9.4,10.4-8.3c0.5,0.1,1.9-1.9,1.9-2.9c0.3-5.5,0.2-11,0.2-16.4l2.3,3
			c0.3-0.3,0.6-0.7,0.8-1.1c0.8-2.3,1.4-4.6,2.1-6.9c0.8,0.4,2.1,0.7,2.3,1.3c1.6,5.3,3,10.7,4.5,16c0.4,1,0.8,2,1.3,2.9
			c0.9-0.4,1.7-1,2.4-1.6c2-2.2,3.8-4.6,6-6.6c0.9-0.8,2.6-0.9,3.9-1.3c0.3,1,0.6,2.1,0.9,3.1c0.1,0.3,0,0.7,0.2,0.9
			c5.3,5,1.4,7-2.8,9c-5.8,2.8-9.7,6.7-10.5,13.7c-0.5,5-2.7,9.8-4.4,14.5c-0.5,1.4-1.8,2.6-2.7,3.9h-4.7
			C751.5,445,751.7,446.8,751.9,448.5z"/>
		<path class="st2" d="M940.6,402.4c-0.5,1.7-3.2,3.3,0,5c-1.6,3.9-3.4,7.7-4.7,11.7c-0.3,0.8,1.4,3.2,2.1,3.2
			c4.2-0.1,8.3-1,12.4-1.2c2-0.1,5.6,0.4,5.7,0.9c0.2,3,0,6-0.5,8.9c-0.9,0.3-2,0.3-2.9,0.1c-5.7-2.5-10.8-2.8-15.6,2.2
			c-4,4.1-14.3,2.9-18.8-2c-3.8-4.2-7.6-6.8-13.6-4.3c4.3-4.2,1.5-14.6,12.7-12.2l-7.4-12.2c0.2-0.7,0.8-2.5,1.5-4.8
			c3,3.3,6.1,6.6,9.2,9.9c-0.1,0.6-0.5,1.4-0.2,1.7c1.8,2.1,3.8,4.1,6.5,7l-2.5-11.3c0.2-0.7,0.5-1.3,0.7-2l6,3
			c-0.8-5.7,1.3-8.3,6.9-6.9c-1.5,0.4-2.6,0.4-3.3,0.9c-0.9,0.8-1.8,1.7-2.5,2.7c1,0.3,2.1,0.5,3.2,0.6
			C937.2,403.1,938.9,402.8,940.6,402.4z"/>
		<path class="st9" d="M366,89.2c3,0.4,6,1,9.1,1.2c1.2,0.1,2.5-0.6,3.7-0.9l-2.3-2.6c2.2-1.1,4.4-2.3,6.5-3.6
			c1.3-1.1,2.4-2.3,3.5-3.6c2.9,3.5,4.3,1.8,5.9-1.4c4.4-8.6,9.1-17,13.8-25.5c0.6-0.4,1.3-0.5,2-0.2c4.8,3.3,5.6,8.4,5.5,13.5
			c0,3-1.5,5.9-2.1,8.9c-0.4,2.2,0.1,4.7-0.9,6.6c-1.5,3.3-3.7,6.4-6.3,9c-3,2.7-3.8,4.6-0.3,7.3c-1.9,0.7-4.1,2.4-5.7,2
			c-5.5-1.5-10.8-3.8-16.2-5.7c-1.2-0.4-2.9-1.3-3.5-0.9c-2.4,2-4.7,4.2-6.9,6.4c-1.1-0.7-2.1-1.4-3.3-2s-2.4-0.9-3.6-1.4
			c0.3-0.6,0.7-1.7,1-1.6c1.3,0.1,2.6,0.7,4,0.8c1.5,0,2.9-0.1,4.3-0.3c-0.4-0.9-0.7-2.3-1.4-2.6c-1.2-0.5-2.6-0.4-4-0.6
			s-2.5-0.3-3.7-0.5L366,89.2z"/>
		<path class="st10" d="M671.4,76.3c-0.1,1.4-0.3,2.7-0.7,4c-1.8,5.4-2.2,10.5,0.2,16.1c1.8,4.4,1,9.2-3.7,12.8
			c-2.4,1.8-3.5,5.2-5.7,8.6l-2-4.2c-0.7,1.3-1.3,2.3-1.9,3.4c-1-1.3-2.6-2.4-3-3.9c-0.7-2.5-0.8-3.5-3.8-1.7
			c-2.1,1.3-5.1,4.5-8.2,0.1c-1.5-2.2-2.3-1.7-0.3-4.7c2.6-3.8,5.2-7.6,7.7-11.5c0.4-0.8,0.6-1.8,0.7-2.7c-0.9,0.2-1.8,0.4-2.7,0.7
			c-1.7,0.8-3.3,1.7-5,2.5c0-2.6-0.4-5.3,0.2-7.7c0.6-1.8,1.8-3.2,3.5-4.1c5.5-3,11.2-5.5,16.9-8.3L671.4,76.3z"/>
		<path class="st11" d="M127.5,90.5c4.1,2.6,8.1,5.3,12.2,7.9c0.8,0.4,1.7,0.7,2.7,0.8c0.3-1.5,0.5-3.1,0.4-4.6
			c-0.2-1-2.1-2.4-1.8-2.8c1-1.2,2.1-2.2,3.4-3.1l2.6-2.3l1,3.8l8.4,1.9c-6.1,8.3-6.6,17.6-4.6,27.2c0.2,0.8,3.2,1.5,4.8,1.4
			c4.6-0.4,9.1-1.5,13.7-1.8c1.3-0.1,2.8,1.5,4.1,2.3c-1,1.3-1.8,2.8-3.1,3.8c-1.1,0.6-2.4,0.8-3.6,0.6c-6.2-0.3-11.5,0.8-15.6,6.4
			c-1.5,2.1-5.9,2-9,2.9c0.9-1.6,1.6-3.4,2.8-4.7c0.9-1,2.6-1.2,3.9-1.8c-1.6-0.7-3.2-1.4-4.7-2.3c-0.9-0.5-2.2-1.7-2-2.3
			c1.5-5.8-1.9-6.8-6.4-7c-0.7-0.2-1.3-0.6-1.6-1.3c-1.2-2.5-6.5-2.8-8.5-0.5l-4.3-3.7l9.5-4c-1.8-1-3.5-2-5.3-3.1
			c-0.1-0.1-0.1-0.4-0.2-0.8l5.7-2.2c-7.4-0.6-6.2-3.5-4.5-6.8C128,93.4,127.5,91.8,127.5,90.5z"/>
		<path class="st12" d="M500.7,290.3c-5.8,6.5-11.6,13.2-17.6,19.6c-0.9,1-2.9,1.1-4.3,1.6c0.1-1.3,0.4-2.6,0.7-3.9
			c2-6.8,3.9-13.7,6.2-20.3c0.7-1.9,2.9-3.2,4.2-5c0.5-0.8,0.5-1.8,0.1-2.7c-0.8-1-1.7-2-2.8-2.8c2.6-1.3,6.3-4.4,7.6-3.6
			c4.9,3.1,5.4,1,6-3.3c0.5-2.2,1.8-4.1,3.6-5.5c6.3-4.5,12.8-8.7,19.2-12.9c0.9-0.6,2.3-0.4,3.4-0.6c-0.2,1.1-0.5,2.1-0.9,3.1
			c-4.8,8.1-9.7,16.2-14.5,24.3c-0.4,1-0.7,2.1-0.8,3.1l-13,1.5c0.4,0.5,1.3,1.8,1.7,2.4l-6.9,4.7L500.7,290.3z"/>
		<path class="st13" d="M674,310.3c1,1.7,2.2,3.3,3.5,4.8c1.2,1.2,3,1.8,4.4,2.9s3.8,2.6,3.7,3.4c-0.4,2-1.9,3.9-3.4,5.5
			c-1.6,1.7-3.4,3.1-5.5,4.2c-1.6,0.9-3.4,1.2-5.1,1.1c-0.8-0.1-1.9-2-2-3.1c-0.2-5.6-2.7-9.2-8.3-10.3c-1.3-0.3-2.6-0.1-3.8,0.5
			c-5.9,3.7-11.9,3.7-18.1,1c-3-1.3-6-2.4-9-3.8c-0.7-0.3-0.9-1.7-1.3-2.6c1.3-2.5,4.5-4.8,1.3-8.1c6.2,0.6,12.3,1.2,18.5,1.6
			c1,0.1,2-1.1,3-1.7c1-0.4,2.1-1.1,3-1c4.3,0.3,8.5,0.9,12.4,1.4l-2.4,3.7l1.1,0.9l-3.8,0.6l0.2,1.6c1.8-0.3,5.1-0.1,5.3-0.8
			C669.1,307.5,671.3,308.3,674,310.3z"/>
		<path class="st14" d="M653.6,229.5c2.6-2.9,5.1-5.8,7.7-8.5c0.6-0.6,2-1.5,2.4-1.2c1.1,0.8,1.9,1.8,2.5,3c0.5,1,0.5,2.3,0.9,3.4
			c2.6,5.9-2.2,6.9-5.8,8.9c-5.1,2.8-8.4,6.7-9.3,13c-0.8,5.5-1.9,12.3-5.6,15.7c-2.4,2.2-0.7,7.2-5.4,7.2c-0.5,0-1,2.1-1.4,3.2
			c-2.4-1-5-2-4.2-5.5c0.6-5,1.6-10.1,1.7-15.1c0-2.5-1.3-6-3.1-7.1c-2.1-1.3-5.5-0.3-8.3-0.4c-0.7-0.1-1.4-0.4-2-0.7
			c1.1-3.4,2.3-6.7,3.5-10.1c1.8,1.3,3.5,2.7,5.4,3.9c0.8,0.4,1.7,0.8,2.6,1l-1.7,2.4c1.9-0.4,3.9-1.1,4.9-2.5c2.2-3.3,3.8-7,6-10.2
			c0.7-1,2.8-1,4.2-1.4c0.2,0,0.6,0.9,1,1.3c-1.2,0.5-2.3,1.1-3.5,1.7c-0.1,0.1-0.2,0.2-0.2,0.4l2.4,3c-1.2,0.6-2.4,1.2-3.6,1.9
			c-0.9,0.6-1.7,1.3-2.6,2c0.6,1,1.4,1.9,2.3,2.7c1.2,0.7,2.5,1.1,3.8,1.3c0.8,0,1.6-0.1,2.3-0.4c-0.5-0.6-0.9-1.5-1.6-1.9
			c-0.5-0.2-1-0.2-1.5-0.1C649.8,236.4,651.7,233,653.6,229.5z"/>
		<path class="st15" d="M187.8,141.9c1,0,2.7,0.3,3-0.2c3.2-5.2,6.2-10.5,9.3-15.7c0.5-0.8,1.1-1.6,1.7-2.3c1,0.8,2.4,1.4,3,2.5
			c3.3,5.3,2.2,15.9-3.1,21.3c-4.4,4.5-2.7,6.5,1.8,8.3c3.9,1.6,4.3,3.5,1.1,6.3c-1.2,1-2.5,2.1-3.7,3.1c-3.4,2.9-4.9,1.2-6.5-2.2
			c-1.1-2.3-3.3-4.2-5.3-6c-0.5-0.5-2.1-0.1-2.9,0.3c-5.7,3.3-12,3.2-17.1-1c-3.4-2.8-6.5-6.1-9.8-9.1l1.1-1.1l20.8,3l5.1-0.7
			l-2.9-1.9L187.8,141.9z"/>
		<path class="st16" d="M597.4,366l-2.6-2.1c3.5-2.9,7.1-5.7,10.6-8.7c0.4-0.5,0.8-1.2,1-1.8c-0.4-0.2-1-0.6-1.2-0.4
			c-2,1.5-3.9,3-5.8,4.6c-0.6,0.5-1,1.6-1.6,1.7c-3.7,0.3-3.9,0.5-2.9,4.6c-5.1-4.6-10.2-9.1-15.3-13.7c-0.2-0.2,0.4-2,0.7-2
			c2.3-0.3,4.7-0.3,7,0c3.4,0.5,4.1-0.8,3.1-3.7c-0.8-2.3-1.7-4.6-2.7-7.3c13.6,4.5,22.7,13.4,30.6,24.1c0.4,0.5,0.7,1.1,0.7,1.7
			c-1.1,8.8,4.7,8,10.3,7.3c1.4,0.3,3.1,0.2,4.2,1s1.4,2.3,2,3.5c-5.2,0.5-10.6,0.2-14.3,4.9c-3.2-2.3-10.5-0.6-8.2-8.4
			c-0.6-0.4-1.2-0.7-1.9-0.9c-1.2-1.3-3.7-3.3-3.4-3.8c2.2-4-2.7-4.8-3-4.6C602.1,363.1,599.6,364.4,597.4,366z"/>
		<path class="st17" d="M628.7,419.1l9.9-15.4l-8.5,4c-1.4-8.6-0.4-9.5,7.3-12.1c4-1.3,7.5-4.3,11.3-6.5c0.3,1.2,0.6,2.5,0.9,3.7
			l5.8,1.6c-1.7,4.8-0.9,9.3,0.5,14.1c1.8,6.2-2.5,15.1-8.2,18.1c-1,0.3-2.1,0.5-3.1,0.5l0.8-1.7l-2.7,2.3c-0.7-1.3-1.5-2.5-2.4-3.6
			c-0.9-0.9-1.8-1.6-2.9-2.3L628.7,419.1z"/>
		<path class="st18" d="M653.6,229.5c-1.9,3.4-3.8,6.8-6,10.8c0.5-0.1,1-0.1,1.5,0.1c0.7,0.3,1.1,1.2,1.6,1.9
			c-0.7,0.3-1.5,0.4-2.3,0.4c-1.3-0.2-2.6-0.6-3.8-1.3c-0.9-0.8-1.7-1.7-2.3-2.7c0.8-0.7,1.7-1.4,2.6-2c1.1-0.7,2.4-1.3,3.6-1.9
			l-2.4-3c0-0.1,0.1-0.3,0.2-0.4c1.1-0.6,2.3-1.1,3.5-1.7c-0.3-0.5-0.8-1.4-1-1.3c-1.5,0.3-3.5,0.4-4.2,1.4c-2.3,3.2-3.8,7-6,10.2
			c-1,1.4-2.9,2.1-4.9,2.5l1.7-2.4c-0.9-0.2-1.8-0.6-2.6-1c-1.8-1.2-3.6-2.6-5.4-3.9c2.1-0.3,4.4-1.4,6.3-0.8c2.9,0.8,3.6,0,3.6-2.7
			c-0.1-7.2,0-14.4-0.1-21.6c-0.1-5.7-4.7-8-8.4-11c0-3.5,0.4-7.2-4.5-7.8l5.5-4.2c0.8,1.9,1.7,3.8,2.7,5.6c0.6,0.9,1.9,2.3,2.5,2.1
			c1.2-0.4,2-1.6,3-2.5c2.9-0.3,5.8-0.6,8.7-0.8c0.2,0,0.7,0.4,0.8,0.7c1.5,5.3,3.6,2.5,5.7,0.5l1.9,2.4l-4.2,4.6l3.8,4.3l-4,1.9
			l0.8-2c-0.5-0.5-1-1.1-1.4-1.8c-0.4-1-0.7-2-1-3.1c-0.2-0.6-0.3-1.8-0.4-1.8c-1.1-0.1-2.1,0.1-3.1,0.4c-0.4,0.2-0.8,1.5-0.6,1.7
			c3.2,2.9,3.3,5.4-0.6,7.9l5.1-2.7l-2.2,4.2c-4.3,3.4,0.3,6.5,0.6,9.7c0.4,3,1.3,6,2.7,8.7C650.8,228.2,652.5,228.8,653.6,229.5z"
			/>
		<path class="st0" d="M35.4,107.9c5,0.9,5-1,4.4-5.4c-0.5-3.5,1.1-7.6,2.5-11.2c0.9-2.5,0.8-4-1.9-3.2c-3.9,1.1-7.5,3-11.2,4.6
			L25.2,92l2.8-3.4l-9.4,0.5l-0.2-1.8l13.5-2.6c4.5-0.2,9.3,0.3,13.5-1c2.3-0.7,3.6-4.4,5.5-6.7c1-1.2,2.1-2.3,3.1-3.4
			c0.4,1.5,0.6,3,0.6,4.6c-0.6,9.1-1.3,18.1-1.8,27.2c0,0.7,1.6,2.2,2.3,2.1c2.3-0.3,4.6-1.3,6.9-1.8c3.1-0.7,7-3.3,8.1,2.5
			c0,0.5,0,1.1-0.1,1.6c-3,0.7-6,1.2-9.1,1.6c-8.7,0.7-11.3,2.9-13,11.3c-0.4-1.2-1.4-2.5-1.2-3.7c0.3-1.8,1.5-3.4,2.1-5.2
			c0.2-1,0.3-2,0.3-3.1c-1.1,0.1-2.6-0.1-3.1,0.5c-1.7,2.1-3.1,4.6-4.7,6.8c-0.6,0.7-1.3,1.2-2.1,1.7L35.4,107.9z"/>
		<path class="st19" d="M179.4,5.1c0,5.7,0,11.4-0.2,17.2c-0.1,1.4-0.4,2.7-0.8,4l-7-2.2c-0.9,2-1.8,3.8-2.5,5.6
			c-0.3,0.8-0.4,1.6-0.4,2.4c0.4,4.2-5.4,8-8.3,6.6c0.5-1.6,1.1-3.2,1.7-4.7c0.6-0.9,1.3-1.8,2.1-2.5c-0.9-0.5-2-1.5-2.5-1.3
			c-1.2,0.7-2.3,1.6-3.1,2.7c-1.6,2.1-3.1,4.3-4.7,6.4c-0.6,0.7-1.2,1.4-1.9,2.1c0.7,0.4,1.5,0.8,2.3,1.1c1.1,0.3,2.5,0.3,3.5,0.8
			c0.6,0.3,1.4,1.9,1.1,2.2c-1.1,1.4-2.3,2.8-3.6,4c-3.9-5-8.4-7.9-14.1-4.1c1.2-2.7,2.1-5.8,3.8-8.3c1.4-1.9,3.7-4,5.9-4.4
			c4.1-0.7,3.1-2.2,1.8-4.7c-1.8-3.4-3.3-7-4.8-10.5c-0.2-0.8-0.2-1.7,0-2.5c0.9,0.3,2,0.4,2.5,1c3.4,3.6,6.7,7.4,10.1,11
			c0.6,0.5,1.3,0.9,2.1,1.2c0.2-0.6,0.6-1.2,0.5-1.7c-2.3-10,4.1-16.1,9.8-22.6L179.4,5.1z"/>
		<path class="st1" d="M299.9,209.6c-6.9,7.5-6.4,17.8-10.4,26.4c-1.4,2.7-3.1,5.1-5.1,7.3c-2.1,2.4-4.6,4.4-8.1,7.8
			c1.1-8,2-14.7,2.8-21.4c0.5-4.2,1.7-9.1-3.8-11.1c-2.6-0.9-5.7-0.6-8.9-0.9c-0.9-6.7,0.8-10.5,5.8-11.3c0.7-0.1,1.6-0.4,2.2,0
			c5.7,3.4,4.9-0.6,4.7-4.1c0-0.9,0.2-1.7,0.4-2.5c2.5,5.8,2.5,5.8,1.5,10.3c0,0.1,0.3,0.4,0.7,0.9c0.8-0.8,1.4-2,2.3-2.2
			c1.8-0.4,3.6-0.6,5.5-0.6c-0.3,1-0.6,2-0.9,3c-0.4,1.1-0.8,2.2-1.2,3.3c1.2-0.5,2.8-0.7,3.4-1.6
			C293.2,209.5,295.8,207.6,299.9,209.6z"/>
		<path class="st20" d="M285.7,112c0.1,1.5,0.3,3,0.4,4.5c0.1,1.2,0.6,3.2,0.1,3.5c-2.9,1.6-6,2.8-9,4.1l-6.8-3.3l-11.1,4.2
			c-1.4-0.8-4.1-1.9-4-2.2c1.5-5-5.7-3.4-5.4-7.3c-7.9-0.5-2.8-3.8-1.3-6.3l0,0c1.1,1.3,2.4,3.6,3.3,3.5c2.4-0.3,4.7-1.7,7-2.6l0,0
			c1.2,2.2,2.4,4.5,3.7,6.6c0.4,0.6,1.3,0.8,1.9,1.2c0-0.5-0.1-1.1-0.2-1.6c-0.4-1.8-1.6-4.1-0.9-5.3c1.2-2,3.1-3.5,5.3-4.2
			c4.2-1,6.2-3.1,5.9-7.4l0.7-2c4.5-1,10.5,0.2,10.8-7.2c0-0.6,2-1,3-1.6c-0.1,0.9-0.1,1.9,0.1,2.8c1.5,3.2,0.2,5.6-2,7.8
			c-0.2,0.2,0.7,2,1.2,2.1c5,0.8,1.8,2,0.2,3.1c-2-1.5-3.9-3.4-6.2-4.3c-1.5-0.6-3.5,0.2-5.3,0.4c1,1.9,1.9,5.3,3.1,5.5
			c2.6,0.4,5.5-0.9,8.4-1.5C288.7,107.4,283.1,108,285.7,112z"/>
		<path class="st15" d="M70.2,109.9c0-0.5,0-1.1,0.1-1.6c2.2-2.3,4.2-4.6,6.2-7.1c0.6-0.8,0.3-2.5,0-3.7c-0.6-2.5-1.5-5-2.2-7.5
			c1.9,1.6,3.8,3.2,5.8,4.8c1.2,1,2.4,1.9,3.7,2.8c0-1.3-0.4-2.9,0.2-3.9c2.7-4.6,5.7-9.1,8.7-13.6c1.1,1.4,3.1,2.8,3,4
			c-0.8,6.5-2.3,13-3.2,19.5c-0.1,1,1.3,3.1,2,3.1c2.7,0,5.4-0.9,8-1c1.4-0.1,3.6,0.3,4.1,1.2c0.6,1.6,0.6,3.3-0.1,4.9
			c-0.3,0.6-2.6,0.9-3.9,0.5c-3.8-1-6.9-0.9-9.9,2.1s-10.2,1.4-14.4-1.9C76.2,111,73,110.8,70.2,109.9z"/>
		<path class="st14" d="M77,209.4c-2.7,0-5.4,0-8.1,0c-0.6-0.1-1.2-0.2-1.8-0.4c0.7-3.5,1.6-7,2.2-10.6c0.2-1.2,0.3-3.1-0.4-3.8
			c-6.3-5.8-12.9-11.4-19.4-17.1c-0.7-0.8-1.3-1.7-1.7-2.6c1-0.3,2.1-0.6,3.1-0.8c0.1,0,0.2,0,0.4,0l9.8-0.1
			c-0.9-3.2-1.8-6.4-2.7-9.6c-0.1-0.4-0.1-0.9-0.4-3.5l23.1,16.8c-2.2,1.9-5.4,3.4-6.2,5.7c-0.7,2-3.3,5.6,0.8,7.7
			c-0.2,0.5-0.5,0.9-0.9,1.3c-0.7,0.6-1.4,1-2.2,1.5l2.9,1.6c-4,4.4-3.1,7.4,2.5,8.6c1.1,0.3,2.2,0.5,3.3,0.8
			c-0.2,0.6-0.2,1.5-0.6,1.9C79.7,207.7,78.4,208.6,77,209.4z M72.1,185.5l-0.2-1.6l-6.4,1.3l0.3,1.5L72.1,185.5z"/>
		<path class="st10" d="M63.7,34.1C73.9,36.1,85.5,47.5,87,56.1c0.5,1,1.5,1.7,2.7,1.8c3.2-0.2,6.4-1.1,9.6-1.3
			c0.9-0.1,2,1.1,2.9,1.7c-0.8,0.9-1.6,2.5-2.3,2.5c-5.6-0.2-10.2,1.2-14,5.6c-0.9,1.1-4.1,0.6-6.1,0.4c-2.7-0.4-5.4-0.9-8-1.5
			c-0.5-0.1-1.3-0.5-1.3-0.8c0.1-1.7-0.3-3.9,0.6-5c2.1-2.5,1.1-3.6-1-5.3c-4-3.1-7.8-6.6-11.6-10c-0.4-0.6-0.8-1.2-1-1.8
			c0.7-0.4,1.6-1.1,2.2-1C66.7,42.8,67.3,39.9,63.7,34.1z"/>
		<path class="st2" d="M214.5,276.8l-9.5,2.8c3.1-3,7-5.5,8.9-9.1c1.8-3.3,1.7-7.8,1.4-11.8c-0.1-1-4.1-1.7-6.4-2.6
			c-0.6-0.2-1.5-0.6-1.6-1.1c-0.7-4.2,2.1-7,6.4-6.9c0.7,0,2-1.7,2.1-2.6c0.3-6.1,0.2-12.2,0.4-18.2c0-0.4,1.3-0.8,2-1.2
			c0,0.9,0.2,1.9,0.4,2.8c1.8,4,3.7,7.9,5.6,11.8c0.6,1.5,1.2,3,1.8,4.5c1.5-1.1,2.9-2.2,4.4-3.3c1.3-1,2.6-2.2,4.1-2.6
			c0.5-0.1,2.4,2.1,2.3,2.9c-0.6,2-1.6,3.8-2.9,5.4c-2.5,3.6-5.7,6.9-7.8,10.7c-3,5.2-5.1,10.8-7.9,16.1
			C217.7,275.6,215.8,276,214.5,276.8z"/>
		<path class="st21" d="M350.5,156.9c-0.6,8.7-0.4,8.9,8.8,8.6c10.5-0.4,10.5-0.4,6.5,9.4c-3.8,9.4-4,9.6-11.7,3.5
			c-5.7-4.5-11.5-3.4-17.6-1.8c-2.8-1.2-6.9-0.4-6.9-5.3c-0.1-2-0.4-4-0.8-5.9l-1.6-1.7c0-0.5,0.1-1.1,0.1-1.6
			c0.4-0.8,0.8-1.6,1.2-2.4c2.3-4.2,4.9,0.1,7.4-0.2l-0.8,6.4l1,1l8.6-10.3L350.5,156.9z M338.1,171c0-0.6,0-1.3,0-1.9
			c-1.8,0-3.6,0.1-5.3,0.2c-0.1,0.5-0.1,1.1-0.1,1.6L338.1,171z"/>
		<path class="st19" d="M216.7,76.3c1.8,5.4,3.5,10.8,5.4,16.1c0.2,0.5,1.9,0.9,2.5,0.5c1.2-0.6,1.9-2,3-2.8c1.4-0.8,2.9-1.5,4.5-2
			c0.2,2.3,0.8,4.7,0.4,7c-0.2,1-2.5,1.5-3.4,2.6c-2.2,2.5-4.1,5.2-5.8,8.1c-3,5.8-5.6,11.8-8.5,17.5c-0.4,0.8-2,1.1-3.1,1.6
			c-0.2-0.9-0.2-1.9-0.2-2.8c0.4-4.2,1.1-8.4,1.3-12.6s-2.9-6.3-6.9-5c-0.5,0.1-2-1.1-2-1.6c0.3-4.1,1.3-7.6,6.8-6.3
			c0.5,0.1,1.9-1.1,1.9-1.7c0.1-7-0.1-13.9-0.2-20.9L216.7,76.3z"/>
		<path class="st22" d="M820.9,383.8c-0.1,1.1-0.4,2.2-0.7,3.3c-0.6,1.4-1.4,2.8-2.1,4.1c1.5,0.5,2.9,1.2,4.2,2
			c0.9,0.7,1.9,2.8,1.6,3.1c-1.9,1.8-3.9,3.5-6.1,4.9c-0.3,0.2-1.2-0.3-1.8-0.5c0.3-0.6,0.7-1.2,1.1-1.8c0.6-0.7,1.4-1.4,2-2.1
			c-1.2-0.7-2.4-1.8-3.6-1.8c-1.7-0.1-3.4,0.6-5.9,1.2l4.4,2.6l-7.7,3.6c-4.2,1.2-7.5-0.1-10-3.6c2.3-0.9,7-0.7,3.5-5
			c-1.8-2.2-5.3-3-8.1-4.5l-5.3-1.5c-0.1-0.5-0.2-1-0.2-1.6c3.7-0.9,7.5-1.7,11.2-2.8c0.6-0.2,1.1-1.6,1.2-2.5
			c0.4-2.8,0.6-5.5,0.8-8.3l1.5-0.2c1.2,3.8,2.4,7.7,3.2,10.3l11-7.8l-0.9,3.2l4.6-1.3l-4.6,4.7L820.9,383.8L820.9,383.8z"/>
		<path class="st10" d="M460.2,249.6l2.7,9.5l-7.4,1.4v0.8l4.9,0.8v1.1l-6.4,0.7l-0.6,1.9l6.9,0.3l-0.3,2.3
			c-4.3,0.4-8.6,0.6-12.8,1.3c-1.1,0.2-2,1.5-3.1,2.3l-9.3,3.4c0.4-2.1-4.7-1.9-1.8-5.4c3.9-4.9,7.2-10.4,9.6-16.2l-5.8,2.7l3.8-3.2
			l-2.8-2.3c1-0.8,2-2.1,3.1-2.3c2.2-0.5,4.5-0.1,6.8-0.5c1.7-0.4,3.5-0.9,5.1-1.5l-2.1-2.4l5.9-2.8c0.7,2.9,1.3,5.9,2,8.8
			L460.2,249.6z"/>
		<path class="st12" d="M716.5,315.9c2.5,4.7,4.9,9.4,7.5,14.1c0.5,1,1.5,1.8,2.6,2.2c2.7,0.2,5.4,0.3,8.1,0.2h1.7
			c1.3-0.4,2.5-0.8,3.8-1.3c2.5-1.2,4.5-1.2,5.6,1.9c-0.3,3.2-2,4.3-5.2,4.2c-6.1-0.2-11.8,0.1-16.2,6c-2.7,3.6-7.5,3.4-12,1.5
			c-2.9-1.3-6.4-1.2-9.5-1.9c-0.7-0.1-1.8-0.8-1.8-1.3c-0.1-2.2,0.1-4.4,0.2-6.7c0.5,0,1-0.1,1.4,0.1c1.5,1.1,3,2.3,4.5,3.4
			c1.3-2,3.5-4.1,3.5-6.1c0-2.8-2.3-4.6-5.6-3.4c1.1-1.2,2.1-3.3,3.3-3.5C713.9,324.4,715.7,320.7,716.5,315.9z"/>
		<path class="st23" d="M299.9,209.6c-4.1-2-6.7-0.1-9,3.3c-0.6,0.9-2.3,1.1-3.4,1.6c0.4-1.1,0.8-2.2,1.2-3.3c0.3-1,0.6-2,0.9-3
			c-1.8,0.1-3.7,0.3-5.5,0.6c-0.9,0.2-1.5,1.4-2.3,2.2c-0.4-0.5-0.8-0.7-0.7-0.9c0.9-4.5,0.9-4.5-1.5-10.3
			c-0.1-9.3-0.2-18.5-0.3-27.8l2-0.4c2.7,5.8,5.7,11.6,8.1,17.5c1.4,3.4,1.8,7.1,2.7,10.7c0.8,3.1,2.6,3.3,4.6,1.3
			c2.4-2.3,4.3-5.2,6.9-7.4c1.1-0.9,3.4-0.4,5.1-0.6l-0.8,3.8l1.8,0.2c-0.3,2.4,0.3,5.7-1.1,7.1C306.3,206.8,302.9,208,299.9,209.6z
			"/>
		<path class="st14" d="M327.3,162l-0.1,1.6l-9.6-0.5c4.5-2.9,3.4-9.8,9.8-9.4c1,0.1,2.1-0.3,3,0c6.4,2.5,5.3-1.9,4.5-5.1
			c-1.5-6.1-3.6-12.1-5.3-18.3c-0.4-1.5,0.2-3.2,0.3-4.8c1.8,0.5,3.9,0.6,5.5,1.5c2.3,1.4,4.1,3.4,6.1,5.1c-1,5,0.8,7.6,5.6,8.2
			c1.2,5.5,2.3,11,3.4,16.4l-5.8-0.3l-8.6,10.3l-1-1l0.8-6.4c-2.5,0.3-5-4-7.4,0.2c-0.4-0.6-0.9-1.2-1.4-1.7c-0.9-0.8-1.9-1.4-3-2
			c-0.1,0-1.2,1.3-1.1,1.6c0.5,1.1,1.2,2.2,2,3.1C325.8,161.2,326.5,161.7,327.3,162z"/>
		<path class="st12" d="M572.5,212l-4,0.2c-6.8,4.7-7.2,7.6-1.7,12.4c-3.3,0.6-6.5,1.1-9.8,1.7c-1.5,0.3-3.1,0.5-4.6,0.7l2.5,4
			l-3.1,2.3l-0.7,0.3c-2.8-5.9-5.5-11.8-8.3-17.6l8.7,0.9c4.9,0.8,9-0.7,13-4.4c-4.9-2.2-12.7,1.9-13.3-7l0.5-0.4
			c1.7-0.4,3.5-0.5,5-1.3c1-0.5,1.5-2,2.2-3.1c-0.9-0.5-1.8-1.6-2.7-1.5c-2.2,0.2-4.4,0.6-6.5,1.1c-1-3.3-2.1-6.6-2.9-10
			c-0.2-0.9-0.1-2.6,0.5-2.9c1.1-0.5,2.3-0.5,3.4,0c2.6,1.9,4.8,4.4,7.4,6.4c3.1,2.3,6.5,4.3,9.7,6.5l-2.3,4.4l-1.4,2.6
			c1,0.5,2.3,1.5,3.1,1.3C570.5,207.4,572,208.9,572.5,212z"/>
		<path class="st24" d="M516.3,38.7l1.7,0.3c-0.7,1.6-0.8,4-2.1,4.8c-5,3.4-10.9,5.8-13.2,12c-0.8,0-2-0.4-2.4,0.1
			c-1.4,1.2-2.3,3-3.7,4c-2.9,2.1-6.1,3.8-9.2,5.6c0.6-4.3-1.3-7.1-5.1-8.8c-1.3-0.6-2.8-0.8-4.2-0.6c-1.5,0.3-2.9,0.8-4.3,1.5
			c0.5-2.2,0.9-4.5,1.5-6.6c1.5-5.9,5.1-7.2,10.4-4.6c0.3,0.2,1.1-0.4,1.6-0.6c1-0.9,2.2-1.6,3.3-2.2c1.9-0.8,3.9-1.1,5.8-1.9
			c1.3-0.6,2.5-1.3,3.8-2l0,0c1.3,2.7,2.3,6.1,6.3,2.9l1.7,0c0.7,0.3,1.7,1.1,2,0.8C512.4,41.9,514.3,40.3,516.3,38.7z"/>
		<path class="st25" d="M81.5,204.8c-1.1-0.3-2.2-0.5-3.3-0.8c-5.6-1.3-6.5-4.2-2.5-8.6l-2.9-1.6c0.7-0.5,1.5-0.9,2.2-1.5
			c0.4-0.4,0.6-0.8,0.9-1.3c-4.2-2-1.6-5.7-0.8-7.7c0.8-2.4,4-3.9,6.2-5.7c4.9,5.3,11,9.9,10.3,18.5c0,0.6,2.3,1.9,3.4,1.9
			c5.1-0.3,10.1-1.2,15.2-1.5c1.4-0.1,2.9,1.3,4.3,2c-1.2,1.4-2.1,3.7-3.5,3.9c-4.1,0.8-8.4,0.8-12.6,1.2c-1.5-0.3-3.1-0.6-4.6-0.9
			c-2.5-0.6-5-1.1-7.4-1.9c-0.6-0.2-0.8-1.3-1.2-2c-0.7,0.9-1.4,1.8-2,2.8S82.1,203.7,81.5,204.8z"/>
		<path class="st8" d="M840.1,361c-3.8-1.5-7.5-5.2-11.8-0.8c-0.1,0.1-1.5-0.8-1.5-1c1-3.4,1.7-7.1,3.5-10.1s4.9-2.8,7.9-0.7
			c0.4,0.3,1.9-0.8,2.8-1.2c0.9-0.9,1.8-1.9,2.7-2.8c0.9-0.9,1.9-1.8,3-2.6c0.2-0.2,1.4,0.4,1.4,0.7c0.6,8.9,3.9,1.5,6.1,1
			c2.3-1.5,4.8-2.9,6.9-4.6c1.4-1.2,2.3-2.9,3.7-4.2c0.6-0.6,2.2-3.8,2.5,0.3l1.6-0.2c0.8,1.5,1.9,2.6,1.9,3.6
			c-0.1,2.4,0.2,5.7-1.2,7.1c-2.9,2.9-6.8,4.9-10.3,7.3c-0.5,0-1.2,0.3-1.4,0.1c-3.6-3-5.6-3.1-7.1,2.3c-0.5,1.7-5.2,2.5-8.1,3.2
			c-1.2,0.3-2.7-0.7-4-1.1C839.2,358.4,839.7,359.7,840.1,361z"/>
		<path class="st5" d="M635.4,374.7c-0.6-1.2-1-2.8-2-3.5s-2.8-0.7-4.2-1c0.6-0.9,1-1.9,1.3-2.9c0-1.1-0.3-2.2-0.6-3.3
			c1.3,0.5,2.7,0.9,4.1,1.2c8.7,1.2,17.5,2.4,26.2,3.5c0.5,0.1,1.1-0.6,1.7-0.9c-0.6-0.4-1.1-1-1.7-1.2c-1.2-0.1-2.4-0.1-3.6,0
			c1.2-4.3,0.5-10.1,7.2-9.5c2.4,0.2,4.7,2.9,7,4.4c2.5-1.2,5-2.4,7.5-3.6c1.4-0.7,2.9-1.2,4.5-1.9l-5.7,7.3l4.2-0.9l9.8-0.4
			c-0.7,1.4-1.4,2.9-2.1,4.3c-3.9-2.1-6.9-0.8-8.7,3.5c-0.7,1.2-1.7,2.2-2.9,2.8c-0.4,0.3-1.3-0.4-2-0.6l2.6-4.5
			c-2.3,1.1-4,1.7-5.4,2.6c-6.4,3.8-6.4,3.8-7-2.3c-2.6,1.5-5.4,3.2-8.2,4.8c-1.2,0.8-2.5,1.4-3.9,1.9c-4.8,1.7-10.2-3.4-14.8,1.3
			L635.4,374.7z"/>
		<path class="st18" d="M252.3,159c-2.8,9.8-5.5,19.6-8.3,29.3c-0.3,1.1-1.7,1.9-2.6,2.8c-0.5-1.2-0.9-2.4-1.2-3.7
			c-1.1-4.9-2.4-9.7-2.9-14.7c-0.4-3.8,0.5-7.7,0.7-11.6c0-1-0.3-2-1-2.7c-0.9-0.8-2-1.5-3.1-2.1c1.3-2,2.9-6,3.9-5.8
			c8.1,1,5.4-3.8,4.4-7.6l1.7,1.7c0.9,1.9,1.7,3.8,2.7,5.6C248.4,153.2,250.4,156.1,252.3,159z"/>
		<path class="st26" d="M337.8,232.3l3.3,3.4c-1,2.1-1.7,4.4-3,6.3c-1.7,2.4-1.8,3.8,1.5,4.3c0.5,0.1,0.9,0.5,1.4,0.8
			c-0.4,0.4-0.9,0.8-1.3,1.1c-1.2,0.9-2.4,1.8-3.6,2.6l0.9,1l5.7-1.6l-5.7,5.7c2.2,0.3,3.5,0.6,4.8,0.6c0.6,0,1.2-0.2,1.8-0.5
			c-1.2-5.2,1.6-6.9,6.2-7c-0.4,5.1,2.2,6.8,7,5.9l-7.5,5c-3.2-5.2-2.7,1.1-4.4,0.6c-2.1-0.2-4.2,0-6.3,0.5
			c-0.9,0.2-2.1,0.6-2.8,0.2c-3.9-1.8-5.7,0.1-6.8,3.5c-1.8,0.9-3.7,1.5-2.9-1.7c0.7-2.9,2-5.8,2.8-8.7c0.1-1.1-0.2-2.1-0.9-2.9
			c-2.4-2.4-5-4.5-7.5-6.8c1.8-0.8,3.7-1.6,5.5-2.5c0.7-0.3,1.3-0.8,2-1.2c-0.5-0.3-0.9-0.7-1.4-0.9c-0.8-0.5-1.7-0.9-2.6-1.3
			c1.1-0.2,2.2-0.5,3.3-0.9c2-1,4-2.1,6-3.2C334.6,233.8,336.2,233.1,337.8,232.3z"/>
		<path class="st21" d="M32,84.8l-13.5,2.6l0.2,1.8l9.4-0.5L25.2,92l3.9,0.7c-2.4,0.4-4.8,1.1-7.2,1c-2.6-0.1-5.6-0.4-7.5-1.8
			c-1.2-0.9-0.8-4.1-0.6-6.3c0.1-0.8,1.5-1.5,2.5-2.4l-4-1.7C8.6,78.2,5,74.8,1.4,71.4c-0.5-0.6-1-1.3-1.4-2
			c0.7-0.3,1.5-0.6,2.3-0.6c4.3,0.4,7.8,0.2,4.8-5.7c0-0.1,1.5-1.4,1.9-1.3c9.1,4.1,16.6,9.9,20.2,19.7C29.8,82.8,31.1,83.7,32,84.8
			z"/>
		<path class="st27" d="M702.3,328.6c-5.9-5.1-11.9-10.2-17.8-15.4c-0.6-0.5-0.7-1.4-1.1-2.2c0.8-0.5,1.7-0.9,2.7-1.1
			c3-0.3,6-0.3,9-0.4c-0.8-3-1.7-5.9-2.5-8.9c-0.1-0.5-0.1-1.1,0-1.6c8.8,3.4,16.8,8.8,23.2,15.7c-2.6,3.7-4.3,8.2-9.7,9.3
			C704.6,324.3,703.5,327,702.3,328.6z"/>
		<path class="st6" d="M361.4,199.4c-0.5-0.8-0.6-1.1-0.9-1.4c-0.9-1.1-1.8-2.2-2.7-3.4c2.6-0.4,6.5-2.1,7.6-1
			c5.1,5,11.4,5.9,17.7,7.1c1.6,0.3,2.9,1.7,4.4,2.6c-1.4,0.4-2.8,0.7-4.3,0.9c-6,0.6-11.5,1.4-15.8,6.7c-4.3,5-11.9,5.5-16.8,1.1
			c-0.2-0.2-0.5-0.4-0.7-0.6c-0.4-0.4-0.6-1-0.6-1.6c4.7-3.1,0.3-4.5-1.1-6.5c-0.7-0.9-1-2-0.9-3.1c0.1-0.6,1.8-1.2,2.7-1.2
			C353.7,199,357.4,199.2,361.4,199.4z"/>
		<path class="st28" d="M685.3,240c0.5-4.4-1.1-5-4.7-3c-1,0.5-2.7-0.3-4-0.5c0.2-1.2,0.1-2.7,0.7-3.6c1.7-2.8,3.6-5.5,5.1-7.7
			c-1.8-0.8-4.3-1.2-4.6-2.1c-0.9-3.5,1.3-4.8,4.5-6.4c5.2-2.8,9.7-6.9,14.5-10.4c1.1-0.7,2.3-1.3,3.5-1.9c-0.2,1.3-0.5,2.5-1,3.7
			c-2.8,5.5-5.2,10.9-3.1,17.3s-0.9,11.7-7.7,13.6C687.5,239.1,686.5,239.5,685.3,240z"/>
		<path class="st26" d="M613,137.6l1,0.3c1.6,4,0.8,6.9-3.6,8.3l-5.5,4.2c-1.2,0.4-2.6,0.5-3.6,1.2c-2.2,1.6-4.2,3.7-6.4,5.4
			c-0.3,0.2-1.4-0.5-2.1-0.7c1.6-1.3,3.3-2.7,4.9-4c0.2-0.1,0.2-0.4,0.3-0.5l-2.2-2.9l-5.3-0.3c0.2-1.9,0.4-3.5,0.6-5.1l-4.6-0.1
			l-11.8-5.7c5.2-4,9.3-8.6,16-5.4c0.5,0.2,1.9-1.4,2.9-2.2c3.1,0.3,2.5,1.4,0.9,3.2c-0.7,0.8-0.8,2.1-1.3,3.2
			c0.8,0.2,1.8,0.9,2.5,0.6c1.2-0.3,2.2-1,2.9-2c0.5-0.9,0-2.3-0.1-3.6l2.7,0.8l5.7,1.5l1.6,1.7c-1.3,0.1-2.6,0.1-3.9,0.2
			c-1.1,0.1-2.2,0.2-3.4,0.4c0.4,1.2,0.5,3.4,1.1,3.5c3.9,0.8,4.5,2.1,0.1,5l2.3,0.9L613,137.6z"/>
		<path class="st29" d="M155.4,49.5c1.3-1.2,2.5-2.6,3.6-4c0.2-0.3-0.5-1.9-1.1-2.2c-1-0.5-2.4-0.5-3.5-0.8
			c-0.8-0.3-1.5-0.7-2.3-1.1c0.7-0.7,1.3-1.4,1.9-2.1c1.6-2.1,3-4.3,4.7-6.4c0.8-1.1,1.8-2,3.1-2.7c0.5-0.3,1.6,0.8,2.5,1.3
			c-0.8,0.7-1.5,1.6-2.1,2.5c-0.7,1.5-1.3,3.1-1.7,4.7c2.9,1.3,8.6-2.4,8.3-6.6c-0.1-0.8,0.1-1.7,0.4-2.4c0.7-1.8,1.6-3.6,2.5-5.6
			l7,2.2l-1.2,4.7c-1.4,0.7-2.8,1.3-4.1,2.1c-0.9,0.6-2.2,1.4-2.3,2.2s1,1.9,1.6,2.9c0,1.6,0.2,3.2,0.5,4.7c0.3,1.2,1.1,2.3,2.1,3.1
			c0.9,0.5,2.9,0.3,3.4-0.4c1-1.3,1.3-3.1,1.9-4.7l2.4-0.1c0.8,2.4,1.7,4.8,2.5,7.2c-2.3,0.6-5.1,0.6-6.8,2
			C171.1,55.9,162.5,55.9,155.4,49.5z"/>
		<path class="st19" d="M243.8,144.6l-1.7-1.8c2.1-4.9,4-9.8,6.3-14.6c1.2-2.4,1.5-3.2-1.4-4.9c-6-3.5-11.4-8-16.8-12.4
			c-1.5-1.2-1.9-3.7-2.7-5.6c0-0.1,1.3-1.1,1.9-1c6.5,1.5,13,3.2,19.4,4.8c-1.5,2.5-6.6,5.8,1.3,6.3c-0.3,3.9,6.9,2.3,5.4,7.3
			c-0.1,0.3,2.6,1.5,4,2.2c-1,3.2-1.9,6.4-2.9,9.6c-0.8,1.4-1.7,2.7-2.6,3.9c-1,1.1-2.7,2.9-3.6,2.6
			C246.8,140.3,244.8,141.4,243.8,144.6z"/>
		<path class="st27" d="M239.2,218c-0.4,0.4-0.7,0.9-1.1,1.3l-7.2,4.2c2.5-6.4,4.9-12.9,7.4-19.3c0.2-0.5,0.3-1.1,0.2-1.6
			c-0.4-1-0.8-1.9-1.3-2.8c1.7-0.6,3.3-1.2,5-1.7c1.9-0.6,3.9-1.1,5.8-1.7c0.3-0.1,0.6-1,0.6-1.1c-4.5-3.4,0.6-3.9,1.8-4.9
			c2.8-2.1,5.7-4,8.7-5.8c0.5,1.7,0.9,3.3,1.4,5c-2.2,3.7-4.3,7.5-6.7,11.1c-1.8,2.6-0.4,2.8,1.6,3.1c1.7,0.2,3.4,0.5,5.1,0.9
			c0.9,0.3,1.6,1.3,2.4,2c-1.1,0.8-2.2,2.1-3.4,2.3s-2.8-0.8-4.2-1.4c-4-2-7.1-1.2-9.7,2.4c-1.2,1.7-2.6,3.3-3.9,5
			C241,216.1,240.1,217,239.2,218z"/>
		<path class="st30" d="M759.8,348.8c-0.9-4.3-3.4-5.7-7.6-4.5c-0.4,0.1-1.6-0.9-1.6-1.2c0.5-4.1,1.3-8,7-6.4
			c0.3,0.1,1.6-1.7,1.7-2.7c0.3-6.9,0.3-13.9,0.5-20.8l5.6,8.3c0.9,3,1.8,5.9,2.8,8.9c0.4,1,0.9,1.9,1.5,2.8c1-0.5,1.9-1,2.8-1.6
			c0.7-0.5,1-1.4,1.7-1.9c1.2-0.9,2.5-1.5,3.8-2.3c0.9,1.5,2.2,2.9,2.5,4.5c0.2,1.2-0.7,3.4-1.6,3.7c-6.3,2.3-9,7.1-10,13.2
			c-0.3-0.8-0.6-1.6-1-2.4C765.2,347,762.5,347.9,759.8,348.8z"/>
		<path class="st31" d="M840.1,361c-0.4-1.3-0.8-2.5-1.3-3.8c1.3,0.4,2.8,1.3,4,1.1c2.9-0.7,7.6-1.4,8.1-3.2
			c1.5-5.3,3.5-5.3,7.1-2.3c0.3,0.2,0.9,0,1.4-0.1c-1.3,2.5-2.4,5-3.5,7.6c-1.9,5.8-2.7,12-5.4,17.3c-2.3,4.5-6.5,8.1-10.2,11.8
			c-2.8,2.8-2.5-0.5-2.3-1.8c0.7-6.5,1.8-13,2.5-19.6C840.8,365.7,840.3,363.3,840.1,361z"/>
		<path class="st32" d="M369.9,327.5c5.1-4.5,9.8-9.3,9.4-16.9c1.4-0.1,2.8-0.1,4.2,0.1c6.7,1.6,13.5-2.9,13.9-9.3l2.1-2.6
			c0.9,1.8,1.7,3.6,2.6,5.4c0,1.1-0.1,2.3-0.1,3.4c-1.7,2.2-3.5,4.3-5.2,6.5c-1.5,2.6-2.9,5.3-4.5,7.9c-0.4,0.7-1.7,0.8-2.7,1.3
			l1.3,2.7c-4,2.7-7.9,5.5-12,7.9c-1,0.6-2.9-0.2-4.4-0.3c0.1-0.8,0.3-1.5,0.6-2.3c0.4-0.8,1.4-1.7,1.3-2.4
			C375.2,324.3,371.9,328.4,369.9,327.5z"/>
		<path class="st21" d="M551.2,233.5l0.7-0.3c-2.7,3.6-4.5,8.5-9.8,7.5l2.2,2.7c-11.3,2.5-19.7-3-27.4-10.1c-1.4-1.3-1.7-4-2.2-6.1
			c0.9-0.8,2.1-1.3,3.4-1.4c7.8,0.7,15.5,1.6,23.3,2.4l0.7-0.3l0.4,0.6c0.5,1.2,1.2,2.4,1.7,3.7C545.6,236.7,548.1,237,551.2,233.5z
			"/>
		<path class="st14" d="M731,258.7l7.1-1c-0.1,3.2,0.1,6.4-0.6,9.5c-0.2,1-2.8,1.8-4.3,1.9c-1.2,0.1-2.3-1.3-3.6-1.9
			c-5.9-3.2-7.6-2.3-10.3,3.6c-1.8,3.5-4.1,6.8-6.8,9.6c-3.9,4.4-9.3,1.9-14.1,2.3c-0.3,0-0.7-0.5-1.1-0.8c0.4-0.5,0.6-1.1,1.1-1.3
			c7.5-3.4,10.4-9.5,10.6-17.4l3.8-2.6l1.7,4.3l7.3-4.4c2,0.1,4,0.1,6-0.1C728.9,260.2,730,259.3,731,258.7z"/>
		<path class="st28" d="M719.8,160.5c1.3,0.1,2.8,0.6,3.9,0.2s1.5-2.1,2.5-2.6c1.6-0.7,3.3-1.2,5-1.5c0.1,2.5,0.8,7,0.1,7.2
			c-9.5,3.4-9.1,12.6-12.5,19.7c-1.7,3.3-3.7,6.4-5.9,9.3c-0.5,0.6-1.7,0.7-2.6,1.1c-0.2-0.9-0.4-1.8-0.4-2.8
			c0.4-4,1.2-7.9,1.4-11.9c0.3-5.9-1.7-7.2-8.5-5.9c0.1-7.7,2.3-9.6,8.2-7c2.4,2.2,4.3,5.9,8.5,2.8c0.5-0.4,1.5-0.2,2.1-0.5
			c0.9-0.6,1.8-1.3,2.6-2c-1.1-0.6-2.2-1.6-3.3-1.7s-2.5,0.9-3.9,1c-0.8-0.1-1.4-0.5-1.8-1.2C713.2,159.3,716.9,160.3,719.8,160.5z"
			/>
		<path class="st11" d="M281.9,45.7c-0.2,0.6-0.4,1.2-0.5,1.8c-0.6,6.8-0.6,6.7,6,5.6c1.4-0.2,2.9,0.6,4.4,1
			c-1.3,0.9-2.5,2.5-3.9,2.7c-8,1-8.9,2.1-10.4,9.9c-1,5-3,9.7-4.7,14.5c-0.2,0.6-0.9,1-1.4,1.6c-0.4-0.7-1.1-1.3-1.2-2
			c-0.4-6.3-0.7-12.6-1.1-18.9c-0.1-0.6-0.4-1.2-0.9-1.7c-0.7-0.8-2.2-2.1-2-2.3c0.9-1.2,1.9-2.3,3-3.3c0.8-0.8,1.7-1.5,2.5-2.3
			c-0.2-1.6-0.4-3.1-0.5-4.7l0.7-2l1.7-1.6l1.3,1c1.5-1.4,7.1,2.2,4.8-3.9l1.4-0.6L281.9,45.7z"/>
		<path class="st0" d="M349.4,278.3c-0.1,2-2.7,5.1,2.2,4.7l-5.6,3.4l5.1,2.8c-7.6-0.3-10.8,7.1-16.6,9.8c-3.3,1.5-6.6,3-10,4.3
			c-0.6,0.3-1.6-0.3-2.4-0.6c0.1-0.8,0.4-1.6,0.8-2.3c2.7-3.4,5.6-6.7,8.4-10c2.5-3,1-5.3-1.1-7.5c-0.9-0.9-1.7-1.8-2.6-2.7
			c2.3-1.2,6.2-3.9,6.5-3.5c4.7,5.6,6,0.3,8.2-2.2c0.4-0.4,0.9-0.8,1.5-1.2C342.6,277.3,344.3,278.8,349.4,278.3z"/>
		<path class="st8" d="M460.2,249.6l-1.5,0.6c-0.7-3-1.4-5.9-2-8.8l-5.9,2.8l2.1,2.4c-1.7,0.6-3.4,1.2-5.1,1.5
			c-2.2,0.3-4.6,0-6.8,0.5c-1.1,0.2-2.1,1.5-3.1,2.3l2.8,2.3l-3.8,3.2c-0.6,0-1.7,0.1-1.8-0.1c-2.2-5.7,1.7-10.1,7.5-12.1
			c6-2.1,11.3-6.5,16.5-10.4c2.4-1.8,3.6-5.1,5.8-7.2c1.1-1,3.3-0.9,5-1.3c-0.3,1.2-0.2,2.7-0.9,3.6c-2.5,3.3-4.3,5.8,2.2,5.6
			c3-0.1,6.1,0.9,9.2,1.4c-1.6,6.5-4.2,8.1-10.3,6.5l-5.1-2.7L460.2,249.6z"/>
		<path class="st33" d="M796.2,139.6c-1.3,1.2-3,2.1-3.8,3.6c-1.5,2.4-6.7,3.9-9.3,2.2c-1.1-0.7-2.3-1.5-3.4-2.2
			c-0.6-0.4-1.4-1.2-1.7-1c-2.1,1-4.2,2.1-6.3,3.3c-1.8-9-0.1-10.6,8.1-13.3c9-2.9,15.4-9.7,21-17.1c0.9-1.1,2.2-1.8,3.6-2
			c3.1-0.2,2.9,1.3,1.4,3.3c-1.3,1.8-2.5,3.7-3.7,5.5l-2.5,5.4l-1.1,4.7l-2.9-2.2c0.2,1.2,0.2,2.5,0.1,3.7c-0.1,0.4-1.3,0.9-1.8,0.7
			c-1-0.5-1.9-1.1-2.8-1.8c0.7,1,1.5,2,2.3,2.9c0.8,0.7,1.7,1.4,2.6,2L796.2,139.6z M781.4,133.7c1.9,3.6,2.9,7.6,4.8,8.2
			c2.1,0.6,5.2-2,7.8-3.3c0-0.6,0-1.2-0.1-1.8L781.4,133.7z"/>
		<path class="st15" d="M303,278.5c3.1,0.3,6.1,0.6,9.2,0.8c2.9,0.2,3.8,1.4,2.7,4.1c-0.2,0.5-0.4,0.9-0.6,1.4
			c-3.2,6.8-2.9,6.2-9.4,3.1c-3.1-1.5-7.5-0.6-11.2-0.2c-2.4,0.3-4.6,1.6-7,2.5c1.9-1.5,4.7-2.6,5.4-4.5c1.4-3.8,2.1-7.6,6.1-9.7
			c0.6-0.3,1-1.3,1.5-1.9c-0.5-0.2-1.1-0.4-1.6-0.6c-2.1-0.5-4.3-0.9-6.4-1.4c0.1-2.6,0.6-5.3,0.2-7.8c-0.5-2.8-1.9-5.4-2.6-8.1
			c-0.3-1,0.2-2.3,0.3-3.4c1.3,0.3,2.9,0.2,3.8,0.9c4.5,3.6,8.7,7.6,9.6,13.7c0.3,2.8,0.3,5.6,0.2,8.4l-8.4,7.5
			c2.1,0.7,4.3,0.7,6.4,0.1C304,282.5,305.2,281.1,303,278.5z"/>
		<path class="st12" d="M455.9,155.6c-1.6-0.7-3.1-1.3-4.7-2c-0.3-0.2-0.6-0.4-0.8-0.6c-3.1,3.9-9.9-2.4-12,4.3
			c-0.4,0.3-0.9,0.4-1.3,0.2c-0.5-0.4-0.8-1-0.9-1.6c0.1-0.8,0.3-1.5,0.6-2.2l11.7-21.1l0.1,0.1c1.2,0.9,2.3,1.8,3.4,2.9
			c0.4,0.5,0.2,1.5,0.3,2.2c0.6-0.5,1.3-0.9,2-1.3c1.2-0.6,2.4-1,3.6-1.6c-0.2,0.4-0.4,0.9-0.5,1.3c6.1,3.7,1.8,8.8,1.6,13.2
			C458.9,151.5,456.9,153.5,455.9,155.6z"/>
		<path class="st5" d="M470,242.5c6.1,1.6,8.6,0,10.3-6.5l3.1-0.5c-4.6-0.9-3.4-4.2-1.8-5.9c1.2-1.3,4.7-2.1,6.1-1.3
			c3,1.7,4.1,1.7,5.7-1.7c2.5-5.3,5.7-10.2,8.7-15.1c0.7-0.5,1.6-0.6,2.4-0.3c3.5,5,5,16.3,0.8,19.8c0.2-1,0.4-1.9,0.5-2.9
			c0.1-1.3,0-2.7-0.1-4c-1.3,0.6-2.8,0.9-3.8,1.8c-6.1,5.3-12.2,10.7-18.2,16.2c-0.9,0.8-1,2.5-1.4,3.8
			C477.5,247.7,473.4,246.3,470,242.5z"/>
		<path class="st5" d="M366,89.2l-0.9,2.4c1.2,0.2,2.4,0.4,3.7,0.5s2.8,0,4,0.6c0.7,0.3,0.9,1.7,1.4,2.6c-1.4,0.2-2.9,0.3-4.3,0.3
			c-1.3-0.1-2.6-0.7-4-0.8c-0.3,0-0.6,1.1-1,1.6c1.2,0.5,2.5,0.8,3.6,1.4s2.2,1.3,3.3,2l-2.3,4.3c1.1-0.3,2.6-0.3,3.3-1
			c4.1-4.5,7.8-5.1,12.1-1.9c-1.1,1.2-2,2.9-3.4,3.5c-10.4,4.1-18.9-0.1-26.9-6.5c-2.2-1.7-4.3-3.5-6.1-5.6c-1.6-2.2-3-4.5-4.2-6.9
			c0.7-0.4,1.5-1.3,2-1.1C352.9,86,359.4,87.6,366,89.2z"/>
		<path class="st34" d="M674,310.3c-2.7-1.9-4.9-2.8-6.2,1.7c-0.2,0.7-3.5,0.6-5.3,0.8l-0.2-1.6l3.8-0.6l-1.1-0.9l2.4-3.7
			c-3.9-0.5-8.1-1-12.4-1.4c-1-0.1-2,0.7-3,1c-0.1-0.2-0.2-0.4-0.3-0.6c0.7-0.9,1.5-1.7,2.4-2.4c2.2-1.1,4.5-1.9,6.8-2.8
			c1-0.4,2.6-0.6,3-1.3c2.5-4.1,4.7-8.3,7-12.5c1.9,1.5,5.9,1.3,4.3,5.5c-0.3,0.8,0,1.9,0.1,2.9c1.3-0.4,3.5-0.6,3.6-1.1
			c0.4-4.3,4-4.6,6.8-5.9l-4,14.3c1.2-6.4-3.7-4.7-6.8-5c-1.2-0.1-2.5,0.3-3.5,1c-0.3,0.2,0.2,1.8,0.4,2.8c1-0.5,2-0.8,3-1
			c1.8-0.1,3.7,0,5.6,0c-1.2,0.8-2.3,1.7-3.4,2.6c-0.3,0.3-0.5,0.5-0.7,0.8l0.8,1l4.7-2.2L674,310.3z"/>
		<path class="st18" d="M137.8,68.4c-4.6,4.2-4.6,4.2,2.8,7.8l-2.5,3.8c-1.5-0.2-3-0.2-4.4-0.1c-7.2,1.2-11.3-0.9-14.7-7.3
			c-1-1.9-3.1-3.3-4.5-5c-0.4-0.6-0.6-1.2-0.5-1.9c2.6-1.4,5.3-2.5,7.9-3.9c1-0.6,1.8-1.6,2-2.8c0.3-2.8,0.1-5.6,1.4-8.7
			c1.1,2.7,2,5.4,3.3,7.9c0.7,1,1.6,2,2.5,2.8c1,1.5,2,2.9,3.5,5c-1.5-0.2-3-0.4-4.5-0.4c-1.1,0.2-2.2,0.5-3.3,0.9
			c0.8,0.5,1.6,1.4,2.4,1.5C131.9,68.2,134.9,68.3,137.8,68.4z"/>
		<path class="st7" d="M130.7,276.3c-1-0.2-1.9-0.5-2.9-0.6c-4-0.5-7.8-1.1-2.1-6.1l-8.4,1.4c4.2-7.1,6.3-14.6,5.4-22.9
			c0-0.4,1.3-1.5,1.9-1.4c5.3,0.4,7.6,3.8,8.2,8.7c0.1,0.8,1.6,1.2,1.9,2C137,264.4,135.1,270.6,130.7,276.3z"/>
		<path class="st19" d="M307.6,113.1c-2.1-1.2-4.4-2.1-6.2-3.7s-1.8-3.4,1.3-3.9c3.6-0.6,7.2-1.3,10.2-1.9c-0.9-1.8-2.5-3.8-2-4.6
			c1.8-2.8,4-3.4,7.6-1.8c4.7,2,9.9,2.7,14.9,3.9l-6,4l3.2,0.5c-3.2,3.4-6.2,7.1-9.7,10.1c-1.9,1.7-4.7,2.3-7.1,3.4
			c0.7-4.2,1.3-8.5,2-12.7c-1.7,1.3-2.3,3-3.5,4.1S309.2,112.3,307.6,113.1z"/>
		<path class="st18" d="M384.9,101c-4.3-3.3-8-2.6-12.1,1.9c-0.7,0.7-2.2,0.7-3.3,1l2.3-4.3c2.2-2.3,4.5-4.4,6.9-6.4
			c0.6-0.5,2.3,0.4,3.5,0.9c5.4,1.9,10.7,4.2,16.2,5.7c1.6,0.4,3.8-1.3,5.7-2c3.2,1.8,6.5,3.5,9.5,5.4c0.7,0.4,0.6,1.9,0.9,2.9
			l-13.4,6.3l4.1,0.6l-6.2,3.9c-0.8-1.7-1.9-3.4-2.2-5.2C395.5,104.5,390.9,100.3,384.9,101z"/>
		<path class="st35" d="M652.9,192.6c-2.1,2-4.3,4.8-5.7-0.5c-0.1-0.3-0.5-0.7-0.8-0.7c-2.9,0.2-5.8,0.5-8.7,0.8
			c-0.4-0.6-0.7-1.3-1-2c-0.4-1.3-0.7-2.7-1-4.1c1.3,0.3,2.6,0.6,3.9,0.9c2.9,0.7,5.9,1.3,8.9,1.6c1.1,0.1,2.3-1.2,3.4-1.9
			c-1-0.8-2.1-1.4-3.2-2c-2.1-0.8-4.2-1.4-6.3-2.1c-0.1-2.8-0.5-5.7-0.1-8.4c0.4-2.4,1.8-4.6,2.8-6.8c0.4,1.6,0.9,3.3,1.7,4.8
			c0.3,0.5,2,0.2,3.1,0c0.2,0,0.3-1.4,0.2-2.1s-0.8-1-1.1-1.6c-0.1-0.2,0.8-1,0.9-1c2,1.1,4.1,2.3,6,3.6c0.5,0.4,0.7,1.3,1,2
			c0.5-0.7,1-1.4,1.5-2C659.7,178.7,657.7,186.5,652.9,192.6z"/>
		<path class="st3" d="M331.4,179.8c-11.7,5.3-21.3,1.4-29.5-5.9c-0.8-0.8-1.6-1.5-2.5-2.3l1.2-0.7c-2.9-4,0.3-5,3-6.3l22.4,2
			l-3.6,4.9c-1.2,1.7-2.5,3.4-3.7,5c1.7,0.8,3.4,1.9,5.1,2.3c1.4,0.1,2.7-0.3,3.8-1.1C330.3,176.3,331.5,176.9,331.4,179.8z"/>
		<path class="st6" d="M337.8,232.3c-1.6,0.8-3.1,1.5-4.7,2.3c-2,1-4,2.2-6,3.2c-1.1,0.4-2.1,0.7-3.3,0.9c0.9,0.4,1.7,0.8,2.6,1.3
			c0.5,0.3,0.9,0.6,1.4,0.9c-0.7,0.4-1.3,0.9-2,1.2c-1.8,0.9-3.6,1.7-5.5,2.5L306,232.4l0.5-1.4c3.4,0.1,6.8-0.1,10.1,0.3
			c2.9,0.3,3.8-0.2,2.5-3.2c-1.3-3-2-6.2-2-9.5l16.6,10.6l-6.8,5l1.7,1.7l5.1-6.8L337.8,232.3z"/>
		<path class="st32" d="M413,191.4c-0.9-5,3-3.6,5.5-4.1c1.2-0.3,2.4-0.6,3.6-0.9l-2.9-1.5l2.2-4.1c2.6,3.3,6.5,6.2,7.4,9.8
			c1.2,4.5,3.1,5,6.7,4.2c0.7-0.1,1.5-0.2,2.2-0.2l-0.8,3.7c-2.2,1.3-4.7,2.2-6.5,3.9c-3,2.7-6,2.9-9.6,1.3
			c-1.9-0.8-4.2-0.8-6.3-1.1c-0.5-0.1-1-0.2-1.4-0.5c0.3-2,0-4.5,1.2-6C416.5,193.3,416.2,192.2,413,191.4z"/>
		<path class="st15" d="M277.5,317.7c-0.1-2,0-4,0.1-5.9c0.4-3,0.8-5.6-3.8-3.8c-0.4,0.2-1.3-0.7-2-1.2c0.5-0.8,0.8-2,1.4-2.2
			c1.1-0.3,2.2-0.4,3.4-0.3c-1.2-5.2-2.4-10.2-3.5-15.2c-1.6-2.1-3.5-4-4.9-6.2c-0.7-1-0.7-2.5-1-3.7c1.1-0.2,2.3-0.4,3.5-0.3
			c4.4,0.5,8.8,1.3,13.3,1.9l-0.7,1.7l4.8,0.8c-1.2,0.8-2.2,2-3.5,2.4c-3,0.9-2.7,2.7-1.7,4.8c-0.2,4.5,0,9.2-0.9,13.6
			C281.2,308.6,279.1,313.1,277.5,317.7z"/>
		<path class="st14" d="M638.4,375.8c4.6-4.7,10,0.4,14.8-1.3c1.3-0.5,2.6-1.2,3.9-1.9c2.8-1.6,5.6-3.3,8.2-4.8
			c0.6,6.1,0.6,6.1,7,2.3c1.5-0.9,3.1-1.5,5.4-2.6L675,372c0.7,0.2,1.7,0.8,2,0.6c1.2-0.7,2.2-1.6,2.9-2.8c1.8-4.2,4.8-5.5,8.7-3.5
			c-1.7,1.6-3.3,3.3-4.8,5.1c-0.6,0.7-0.3,2.1-0.5,3.1c-4.7,1.1-9.3,2.2-14,3.3c-0.2,0-0.3,0.6-0.5,0.9l-10,5.5l5-6.2
			c-1.6-0.3-4.7-1.5-4.9-1c-3.1,5.2-8.5,2.2-12.5,3.8L638.4,375.8z"/>
		<path class="st23" d="M596,148.8l2.2,2.9c-0.1,0.1-0.1,0.4-0.3,0.5c-1.6,1.4-3.3,2.7-4.9,4c0.7,0.3,1.8,1,2.1,0.7
			c2.2-1.7,4.1-3.7,6.4-5.4c1-0.7,2.4-0.8,3.6-1.2c-2.1,11.2-9.2,18.2-19.3,22.5c-0.5,0.2-1.2-0.2-1.8-0.3c-0.3-0.5-0.8-1.4-1-1.4
			c-2.9,0.5-5.8,1.1-8.7,1.8l0,0c0.5-0.5,1.1-1,1.6-1.5c0.8-0.8,1.5-1.7,2.3-2.6c-1,0.4-2,0.7-3,0.9c-1.4,0-2.7,0-4.1-0.1
			c6.2-3.3,12.1-6.9,15.1-13.7c3.8,1.4,5.5-0.6,6.4-3.9L596,148.8z"/>
		<path class="st16" d="M482.4,245.9c0.4-1.3,0.5-3,1.4-3.8c6-5.5,12-10.9,18.2-16.2c1-0.9,2.5-1.2,3.8-1.8c0,1.4,0.1,2.7,0.1,4
			c-0.1,1-0.3,2-0.5,2.9c-1.2,1.7-2.2,3.7-3.7,5c-2.9,2.5-1.7,4,0.8,5.7c1.9,1.5,3.7,3,5.3,4.7c-2,1.6-4,3.2-5.9,5
			c-5.3,5.5-5.4,0.3-6.5-3c-1.3-3.9-4.7-5.1-8.3-3.4C485.7,245.8,484,245.7,482.4,245.9z"/>
		<path class="st33" d="M558.7,85.1c-2.7-5.7-2.2-11.1,1.2-16.4S566.6,58,570,52.6c0.5-0.6,1.2-1.2,1.9-1.6c0.3,0.6,1,1.3,1,1.8
			c-0.8,9.5-1.6,19-2.4,28.6C566.4,82.1,561.5,80.4,558.7,85.1z"/>
		<path class="st16" d="M285.7,112c-2.6-4,3-4.5,3.1-7.4l0,0c1.6-1.1,4.8-2.3-0.2-3.1c-0.5-0.1-1.4-1.9-1.2-2.1
			c2.3-2.3,3.5-4.6,2-7.8c-0.2-0.9-0.3-1.9-0.1-2.8c-1,0.5-3,1-3,1.6c-0.3,7.4-6.3,6.2-10.8,7.2l9.5-15.2c1.1-0.5,3-0.8,3.3-1.6
			c1.3-4,3.5-4.2,6.6-2.1C300.1,88.7,295.8,104.5,285.7,112z"/>
		<path class="st11" d="M53.4,139.3c1.2-1,3-3.2,3.5-3c2.4,1.4,3.4-0.2,5.2-1.2c4.8-2.5,10.1-3.9,15.2-5.7c0.3-0.1,0.9,0.3,1.3,0.5
			c-0.3,0.8-0.6,1.5-1.1,2.1c-3.2,2.9-6.4,5.8-9.8,8.7c-2.7,2.3-2.9,4,0.7,5.6c1.3,0.5,2.3,1.8,3.4,2.7c-0.6,0.6-1.3,1.8-1.6,1.8
			c-1.5-0.3-2.8-0.8-4-1.7c-3.1-2.6-6-3.9-9.5-0.5c-1.6,1.5-3.8,2.4-5.7,3.6c-1.1-0.5-2.9-0.8-3.1-1.5c-0.4-1.7-0.2-3.4,0.4-5
			C49.7,143.3,51.7,141.4,53.4,139.3z"/>
		<path class="st13" d="M681,362.5l-4.2,0.9l5.7-7.3c-1.6,0.7-3.1,1.2-4.5,1.9c-2.5,1.2-5,2.4-7.5,3.6c2.8-4.3,5.7-8.6,8.3-13
			c2.9-5,5.4-10.2,8.1-15.2c0.5-0.4,1.2-0.5,1.8-0.3c3.5,3.7,5.4,8,5,13.3c-0.2,2,0,4,0,6.1c-1,0-2.4-0.3-2.9,0.2
			C687.4,355.8,684.2,359.1,681,362.5z"/>
		<path class="st36" d="M448.8,106.7c-1,2.8-1.6,5.9-3.2,8.4s-4,5-6.6,6.2c-4.7,2-9.8,3-14.7,4.3c-0.2,0-0.8-1.1-0.9-1.7
			c-0.2-0.6-0.1-1.3,0.3-1.9c2.2-2.2,4.6-4.2,6.9-6.3c3.2-2.9,3.4-9.3-0.2-12.1c-4.7-3.6-2-5.3,1.3-6.8c4.3-2,9-3.4,9.9-9
			c-0.4,1.8-0.8,3.7-1.2,5.5c-0.2,0.7-0.7,1.9-0.4,2.1c4.1,3.8,2.5,5.1-2.1,5.5c-3.5,0.3-3.9,1.2-2,4c0.3,0.5,0,1.4,0.1,2.1
			c0.1,1.8,0.2,3.6,0.2,5.5c2.4-0.6,4.7-1.3,6.9-2.2C444.9,109.2,446.9,108,448.8,106.7z"/>
		<path class="st37" d="M575.5,199l-2.2-1.1c1-1.9,2-3.8,3.1-5.6c0.6-0.4,1.4-0.5,2.1-0.2c6.1,4.6,7.7-0.2,9.8-4.4
			c2-4,4.3-7.8,6.6-11.6c0.3-0.5,2.5-0.4,2.5-0.2c1,4.1,1.9,8.2,2.8,12.3c-1.1,0.8-2.2,2.2-3.3,2.2c-5.3,0.3-9.6,2.3-11.5,7.4
			s-0.5,9.5,3.8,13l0.3,2.4l-0.8,0.3c-3.4-5.6-5.7-6.2-10.3-2.6c-0.1-2.4-0.6-4.8-0.3-7.1c0.2-1.5,1.5-2.8,2.3-4.1L575.5,199z"/>
		<path class="st3" d="M328.8,264.8c1.1-3.5,3-5.3,6.8-3.5c0.8,0.3,1.9-0.1,2.8-0.2c2.1-0.5,4.2-0.7,6.3-0.5
			c1.7,0.5,1.2-5.8,4.4-0.6l7.5-5c4.3-0.8,8.5-1.7,12.8-2.2c1.1-0.1,3.4,1.7,3.3,2.3c-0.3,1.5-1.4,3.5-2.6,4
			c-1.8,0.8-4.1,0.5-6.2,0.5c-9.1,0.4-10.6,1.8-12.4,11c-1.6-5.3-4-2.2-6.1-0.5L328.8,264.8z"/>
		<path class="st8" d="M750.7,290.1c0.5,1.2,1,2.3,1.5,3.5l0.9,3.8l-3.8,2.5c-1.8-1.4-3.6-2.8-5.5-4.2c-1.4-1-3-1.9-4.5-2.8
			c-2.1-5-2.1-9.8,1-14.5c3-4.6,5.5-9.4,8.4-14.1c0.7-1.2,2.1-1.9,3.1-2.9c0.3,1.4,0.4,2.8,0.5,4.2c0,4.1-0.1,8.2-0.2,12.3
			c-4.5,1.3-7.3,3.3-3.5,8.2c-0.4,0.7-0.9,1.2-1.6,1.7c-0.9,0.5-2,0.6-2.8,1.3c-0.3,0.7-0.2,1.4,0.3,2c0.9,0.5,2,0.7,3,0.6
			C748.8,291.1,749.8,290.6,750.7,290.1z"/>
		<path class="st36" d="M500.2,39.6c-1.2,0.7-2.5,1.4-3.8,2c-1.9,0.7-3.9,1.1-5.8,1.9c-1.2,0.6-2.3,1.4-3.3,2.2
			c0.2-11,0.4-22,0.6-33c0.1-0.7,0.4-1.3,0.7-1.9c0.4,0.2,1,0.4,1.1,0.7c3.4,7.8,6.8,15.5,10.1,23.3C500.4,36.3,500.1,38,500.2,39.6
			z"/>
		<path class="st20" d="M378.1,244.1l-2.9-2.8c0.6,0,1.2-0.1,1.9-0.2c2.5-0.8,5-1.6,7.5-2.4l-5.1-5.5c1.2-0.8,2.8-1.8,4.2-2.9
			c1.1-0.9,2.2-1.9,3.2-3c-0.3-0.5-0.7-1-1.2-1.4c-1.2,0.7-2.3,1.5-3.5,2.3c-1.5-7.4,3.1-12.1,7.6-16.8c0.2-0.2,3.6,1.6,3.5,2.3
			c-0.4,6.1-0.8,12.3-2.3,18.2c-1.1,4.7-1.1,5.5,4,5.1c1.2-0.1,2.5-0.1,3.7-0.2c0,0.4,0,1-0.1,1.1c-4,1.2-8.1,2.4-12.2,3.5
			c-1.3,0.3-2.8-0.4-4,0C380.9,242.1,379.5,243.1,378.1,244.1z"/>
		<path class="st1" d="M487.4,65.5c3.1-1.9,6.3-3.5,9.2-5.6c1.5-1,2.4-2.8,3.7-4c0.5-0.4,1.6-0.1,2.4-0.1
			c-1.7,6.3-3.3,12.6-5.3,18.8c-0.8,2.4-2.1,4.6-3.8,6.5c-2,2.2-4.2,4.3-6.6,6.2c-0.7,0.4-1.4,0.8-2.2,1c-0.3-0.9-0.4-1.9-0.4-2.8
			C485.5,78.8,486.4,72.2,487.4,65.5z"/>
		<path class="st16" d="M127.5,90.5c0,1.3,0.5,2.9,0,3.9c-1.6,3.3-2.9,6.2,4.5,6.8l-5.7,2.2c0.1,0.4,0.1,0.7,0.2,0.8
			c1.8,1,3.5,2,5.3,3.1l-9.5,4c-4.1-3.6-8.3-7.3-12.3-10.9c-0.6-0.7-1.1-1.5-1.4-2.4c0.8-0.5,1.7-0.9,2.6-1.1c3.3-0.4,6.6-0.6,10-1
			c-1-3.2-2-6.4-3-9.6c0-0.6,0-1.1,0.2-1.6L127.5,90.5z"/>
		<path class="st19" d="M126.5,115c2-2.3,7.3-2,8.5,0.5c0.3,0.6,0.9,1.1,1.6,1.3c4.5,0.2,7.9,1.1,6.4,7c-0.1,0.6,1.2,1.7,2,2.3
			c1.5,0.8,3.1,1.6,4.7,2.3c-1.3,0.6-3,0.8-3.9,1.8c-1.2,1.3-1.9,3.1-2.8,4.7c-2.4-1-4.7-2.2-7.1-3.1c-1.2-0.5-2.6-0.8-3.9-0.8
			c-1.7,0.1-3.3,0.2-4.9,0.5c0.3-2.9-0.4-6.8,1.2-8.5C132.2,118.5,129.2,117.1,126.5,115z"/>
		<path class="st28" d="M711.6,146.2l-3.8-2.3l4.7-1.9c-1.2-1-2.4-2.8-3.7-2.9c-5-0.5-3.2,3-2.9,5.6l-6.6-3.5
			c2.1-1.1,4.2-2.1,6.1-3.3c0.6-0.3,1.3-1.4,1.1-1.7c-0.5-0.8-1.1-1.6-1.9-2.2c1.2,0,2.5,0.1,3.7,0.4c1.5,0.5,2.8,1.3,4,2.3
			c0.6,0.5,0.7,1.7,0.9,2.6c1.1-0.5,2.2-1.1,3.1-1.9c1.5-1.6,2.8-3.3,3.7-5.3c0.6-1.4,0.1-3.2,0.1-4.8c-1-1.5-2.9-4.1-2.8-4.3
			c2.3-1.9,4.8-3.7,7.3-5.3h1.6c-2.2,4.6,3.9,2.9,4.3,5.5c-3.7,2.6-0.3,3.3,1.2,4.4c0.7,2.1,2.5,4.8-2.1,4.3
			c-3.4-2.3-5.5-1.5-6.2,2.3c-0.1,0.6-0.7,1.1-1.2,1.5c-0.8,0.8-1.7,1.5-2.6,2.2c1,0.6,2,1.1,2.9,1.7c0.5,0.4,1,0.9,1.5,1.4
			c-2.1,1-4.2,2-6.2,3.3c-1.1,0.7-1.7,2.1-2.5,3.2L711.6,146.2z"/>
		<path class="st38" d="M558.7,85.1c2.8-4.7,7.7-3,11.7-3.8c-0.8,4.4,1.3,4.6,4.6,3.4c2.7-1,5.5-1.7,8.3-2.3c1.3-0.2,2.7,0.4,4,0.6
			c-1.2,1.9-2,4.9-3.6,5.3c-3.4,1-7.1,0.7-10.8,0.9c-1.3-0.2-2.8-0.8-4-0.5c-1.8,0.6-3.5,1.4-5.1,2.4l3,2c-1.7,0.4-3.4,1.4-4.8,1.1
			c-3.2-0.6-3.7,0-2.9,3.1c0.3,1-1.3,2.5-2.1,3.8c-1.1-0.7-2.1-1.5-3.2-2.2c-0.6-0.5-1.2-1-1.8-1.5c0.8-1.4,3.8-3-0.2-4.1
			L558.7,85.1L558.7,85.1z"/>
		<path class="st10" d="M720,127.2c0,1.6,0.5,3.4-0.1,4.8c-0.9,2-2.2,3.7-3.7,5.3c-0.9,0.8-2,1.4-3.1,1.9c-0.3-0.9-0.3-2-0.9-2.6
			c-1.2-1-2.5-1.8-4-2.3c-1.2-0.3-2.5-0.4-3.7-0.4c0.7,0.6,1.4,1.4,1.9,2.2c0.2,0.4-0.6,1.4-1.1,1.7c-2,1.2-4.1,2.2-6.1,3.3
			c-3.8-4-7.7-7.9-11.5-11.9c-0.3-0.6-0.3-1.3-0.1-2c1.2-0.6,2.5-0.9,3.8-0.8c4.3,0.6,8.5,1.8,12.8,2.2s8.7,0,13-0.1L720,127.2z"/>
		<path class="st20" d="M668.9,378.8c0.2-0.3,0.3-0.9,0.5-0.9c4.7-1.2,9.3-2.2,14-3.3c2.4,1.5,4.9,3,7.2,4.7
			c1.7,1.2,3.2,2.5,4.8,3.7c-2.6,2.5-5.2,5.1-7.9,7.6c-0.3,0.3-1,0.1-1.4,0.3c-2,1.2-3.8,2.4-5.8,3.6c-0.8-1.9-2.3-3.7-2.3-5.6
			C677.9,382.7,673.7,380.6,668.9,378.8z"/>
		<path class="st27" d="M583,237.8c-4.4,8.8-4.1,8.5-10.9,1.6c-1.8-1.8-5.7-1.8-8.6-2.1c-2.3-0.3-4.7,0.3-7.1,0.5
			c-0.2-1-0.8-2.3-0.3-2.8c0.8-0.7,1.9-1,2.9-0.8c3.2,0.4,6.6,2.1,8.2-2.6c0.4-0.9,1-1.7,1.7-2.4l-3.1-1.3l3.7-0.9l17.4,0.1
			c-1,2.7-2.1,5.4-3,8.1C583.5,235.8,583.2,236.8,583,237.8z"/>
		<path class="st26" d="M208.4,72.6l-8.5,6.6c-1.7-6.5-6.9-2.4-10-3.4l1.5,4.9l-13.6-1.2l0.1-1.6l23.5-12.8l-4.8-1.9l7.4-1.8
			c-0.1,0.8-0.3,1.6-0.4,2.4c-0.1,1-0.3,2-0.4,2.9c1.1-0.5,2.2-1.2,3.2-2c1.3-1.6,2.6-3.2,3.7-4.9l0.2,6L208.4,72.6z"/>
		<path class="st28" d="M210.3,65.9l-0.2-6c-1.1,1.7-2.4,3.4-3.7,4.9c-1,0.8-2,1.5-3.2,2c0.1-1,0.3-2,0.4-2.9
			c0.1-0.8,0.3-1.6,0.4-2.4c3.6-3.3,6-7,4.3-12.1c-0.4-1.1,3.6-5.7-2.1-2.9c0-1.7,0.1-3.4,0.1-5c4.1-2.2,4.5,1.5,6.1,3.6
			c1.9,2.5,4.2,4.8,6.3,7.2c-0.8,2.9-1.8,5.9,3.2,5.2c-0.3,0.8-0.6,1.7-0.9,2.5c0.7,0.1,1.4,0.1,2.1,0c3.5-0.8,3.5-0.8,4.4,2.8
			c-5.5-1.4-8.3,0-7,3.7c0.5,1.5,2.7,2.4,4.2,3.6l-2.8,1.3c-2.4-3.5-5.1-6.1-9.9-3.9C211.7,67.5,210.9,66.5,210.3,65.9z"/>
		<path class="st6" d="M401.9,307.6l0.1-3.4l4.2-5.2c4-0.8,8.1-1.3,12-2.3c5.1-1.3,6.4-0.6,5.9,4.5c-0.3,3.6-1,7.1-2.2,10.5
			c-0.5,1.4-2.6,2.2-4,3.3l-8.6-4.3L401.9,307.6z"/>
		<path class="st3" d="M251.6,242.9l7.5-5.2l1.7,0.4c-4.1,5,1,5.4,3.5,7.1c-0.7,1-2.2,2.5-2,3c0.8,1.3,1.9,2.2,3.3,2.6
			c2.4,0.7,5,0.5,7.3,1.3c0.9,0.3,1.9,2.3,1.7,3.3c-0.3,1.5-1.7,2.7-2.5,4.1c-1.7,3.1-3.4,3.3-6.1,0.8c-2.9-2.8-5.4-7.6-10.9-4.3
			C251,253.1,249.1,246.4,251.6,242.9z"/>
		<path class="st6" d="M447.2,167c3.8,2.4,7.6,4.7,11.4,7.1c2,1.3,3.9,2.4,0.7,4.8c-3.6,2.7-6.6,6.3-10.3,8.9c-3,2.1-5.3,1.7-6-2.8
			c-0.6-3.4-2.5-6.6-3.9-9.9C441.9,172.4,444.5,169.7,447.2,167z"/>
		<path class="st39" d="M35.4,107.9l4.1,11.9c0.8-0.5,1.4-1,2.1-1.7c1.6-2.3,2.9-4.7,4.7-6.8c0.5-0.6,2-0.4,3.1-0.5
			c0,1-0.1,2.1-0.3,3.1c-0.6,1.8-1.8,3.4-2.1,5.2c-0.2,1.1,0.8,2.4,1.2,3.7c-0.4,2.1-0.8,4.2-1.2,6.3l-3.3-2.2
			c0.1,1.1,0.2,2.2,0.6,3.3c0.6,1,1.2,1.8,2,2.6c-0.2,0.9-0.3,1.8-0.5,2.7c-3.8,1.1-5.5-0.7-6.9-4c-1.6-3.4-3.4-6.8-5.4-10
			c-0.9-1.3-1.7-2.7-2.4-4.1c-0.8-1.9-2.6-4.7-1.9-5.6C30.5,109.9,33.2,109.1,35.4,107.9z"/>
		<path class="st9" d="M173.1,230.7c0.7-4,0.5-8.6,2.4-11.8c3.4-5.6,10.3-6,15.7-2.1c1.1,0.8,2.7,0.8,4,1.1l0.3,0.7l4.1,7.2
			l-2.4-0.4l-9.2,10.8l-5.2-7.5c1-0.3,1.9-0.7,2.8-1.1c1.4-1,2.7-2.1,4.1-3.2c-1.7-1.6-3.3-4.3-5.2-4.6c-3.9-0.6-6.2,1.9-6.3,6
			c-1.1,1.7-2.2,3.5-3.4,5.2C174.7,231.2,173.7,230.8,173.1,230.7z"/>
		<path class="st40" d="M610.5,146.2c4.4-1.4,5.2-4.4,3.6-8.3c4.3-0.8,8.7-1.2,12.8-2.5c5-1.6,5.3,1.4,5.1,4.6
			c-0.4,3.5-1,6.9-1.8,10.2c-0.8,3.6-2.8,3.8-5.8,2.3C619.9,150.2,615.1,148.3,610.5,146.2z"/>
		<path class="st35" d="M647.1,208.7l2.2-4.2l-5,2.7c4-2.4,3.8-5,0.6-7.9c-0.2-0.2,0.2-1.6,0.6-1.7c1-0.3,2.1-0.5,3.1-0.4
			c0.2,0,0.2,1.2,0.4,1.8c0.3,1.1,0.6,2.1,1,3.1c0.4,0.6,0.8,1.2,1.4,1.8l-0.8,2l4-1.9l-3.9-4.4l4.2-4.6c5.3-0.5,10.5-1.1,15.8-1.4
			c1.7-0.1,4.8,0.1,4.9,0.5c0.4,3.1,0.4,6.2,0,9.3c0,0.4-3.2,0.5-4.8,0.4c-3.6-0.3-7.1-0.9-10.6-1.3l-3-2.6c-0.4,0.5-1,1-1.1,1.6
			c-0.4,1.6-0.5,3.2-0.7,4.8L647.1,208.7z"/>
		<path class="st37" d="M851.6,293.4l3.8-2.4c-5.9-2.7,1.3-4,0.5-6.2c3.6-0.9,7.3-1.8,10.9-2.6c4.6-1,5.5,1.6,5.1,5.3
			c-0.2,1.5-1,2.8-1.2,4.3c-1.3,10.1-1.3,10.1-10.2,5.5C857.6,295.9,854.5,294.7,851.6,293.4z"/>
		<path class="st14" d="M607.1,133.7l-5.7-1.5c0.4-0.4,1-1.1,1.1-1c5.2,2.7,5.4-2.5,7.3-4.8c-0.4-1-1.2-1.8-2.2-2.3
			c-2.6-0.8-5.3-1.4-8-1.8c-0.9,0-1.8,0.1-2.6,0.4l3.2-19C613.7,103.9,615.8,126.4,607.1,133.7z"/>
		<path class="st41" d="M584.5,278.4l-6,1.2l0,0c-0.4-0.3-0.8-0.8-1.2-0.9c-1.2-0.1-2.4-0.1-3.6-0.1c1-1,2.1-1.9,3-3
			c0.7-0.8,1.3-1.7,1.9-2.5l-3-0.7c1.4-1.8,3-2.7,4.5-2.7c3.9,0,6.3-2.8,5.5-6.7l2.1-4.3c8.7-0.8,10.8,0.3,10.9,5.6
			c-2,1.7-3.8,3.4-5.6,5.3c-0.6,0.7-0.2,2.1-0.2,3.2c-0.4,1.1-0.8,2.1-1.2,3.2c-1.7-0.3-3.4-0.6-5.2-0.8c-1.2,0-2.4,0.1-3.5,0.3
			L584.5,278.4z"/>
		<path class="st0" d="M251.6,242.9c-2.5,3.5-0.6,10.3,3.8,13.2c-5.8,8.2-21,9.9-26.8,3.2c2.7-0.5,5.2-1.1,7.8-1.4
			c5.4-0.4,8-4,9.9-8.5c0.2-0.4-0.3-1.2-0.6-1.7c-1.4-2-2.9-4-4.3-6.1C244.9,240.1,248.5,239.6,251.6,242.9z"/>
		<path class="st0" d="M850.6,277.3c-3.8-1.5-7.8-2.3-11.9-2.1c2-1.9,3.7-3.5,5.2-5.2c-0.2-0.6-0.6-1.2-1.2-1.6
			c-1.3-0.8-2.7-1.4-4-2.1c0.2-3.6,0.4-7.1,0.7-10.7c0.1-1.3,0.4-2.6,0.7-3.9c1.9,0.3,4.6,0,5.6,1.1c5.3,5.9,8.5,12.6,5.5,20.8
			C851,274.8,850.8,276.1,850.6,277.3z"/>
		<path class="st6" d="M399.5,298.7l-2.1,2.6c-3.5-1.2-5.5-0.2-6.1,3.6c-0.1,0.5-2.1,1.2-2.9,0.9c-3.6-1.1-7.1-2.6-10.6-3.9l5.7-7.5
			l1.3-0.6l5.8-3l-3.2-4l2.8-6.3C393.3,286.7,396.4,292.7,399.5,298.7z"/>
		<path class="st23" d="M712.9,260.6l-3.8,2.6l-8.8-3.7c0-0.6,0-1.3,0-1.9c3.4-0.7,6.8-1.3,10.2-2c0.9-0.2,2.2-0.6,2.4-1.1
			c1.4-4.6,2.6-9.2,3.8-13.8c0.3-1.3,0.8-2.6,1.2-3.9c1.6,0.7,3.8,1,4.8,2.3c3,3.8,4,8.2,1.8,12.8c-1.2,0.5-2.4,1.2-3.5,1.9
			C718.3,256,715.6,258.3,712.9,260.6z"/>
		<path class="st19" d="M786.4,269.3l-6.3-2.9c-2.3-4.1,0.3-5.5,3.5-6.6l12.5,0.7c0-0.6,0.1-1.2,0.1-1.8l-4.9-0.8
			c2-3,2.5-7.3,7.7-6.2c4.4,2.7,8.5,10.7,7.6,14.8l-3.7,0.9c0.7-2.9-0.7-4.7-3.4-4.1c-3.1,0.7-6,2.2-9,3.6
			C789.1,267.5,787.7,268.4,786.4,269.3z"/>
		<path class="st25" d="M243.8,144.6c1-3.3,2.9-4.4,6.5-3.5c1,0.2,2.6-1.5,3.6-2.6c1-1.2,1.9-2.5,2.6-3.9c-0.3,4.5-0.6,9-0.7,13.6
			c0,0.7,1.4,2.2,2,2.1c3.5-0.5,7-1.3,10.5-2.4c3.4-1.1,4.1-0.2,3.1,2.9c-1.7,0.5-4.4,1.9-5,1.2c-3.7-3.6-5-0.2-6.8,1.9l-7.4,5.2
			c-1.9-2.9-3.9-5.8-5.7-8.8C245.5,148.5,244.7,146.5,243.8,144.6z"/>
		<path class="st34" d="M739.4,292.8c1.5,1,3,1.8,4.5,2.8c1.9,1.3,3.7,2.8,5.5,4.2c-1.1,1.8-2,3.8-2.7,5.8c-0.9,3.4-1.5,7-2.1,10.5
			l-5.6,0.8l-0.2-0.9l4.8-2.9c-0.1-0.4-0.3-0.7-0.4-1.1l-8.9,1.6c0,1.9,0,3.4-0.1,4.9c-2.4-4.3-3.5-8.7-1.3-13.4
			c2.1,1,4.1,2.8,6.2,2.9c1.8,0,3.7-2,5.5-3.1l-0.8-1.2l-2.5,2.1l-2.6-1.1l0.2-5.2c3.5,1,3.1,0.6,2.6,0.5c-3.8-0.4-7.7-0.8-11.5-1.1
			c-0.1-3.8,2.1-5.3,5.5-5.7L739.4,292.8z"/>
		<path class="st37" d="M768,192.6c1.1,1.1,2.1,2.3,3.2,3.4c5.1,1.1,10.2,2.2,15.3,3.5c1.8,0.5,5.2,1.7,5.1,2.1
			c-0.6,3-1.5,6-2.8,8.9c-1.3-0.2-2.6-0.6-3.8-1.2c-4.1-2.3-7.9-5.7-13-2.8c-1-0.9-2.2-2.6-2.9-2.4c-5.2,1.5-2.5-2.6-2.8-4.1
			c-0.4-1.8-0.1-3.8,0-5.7L768,192.6z"/>
		<path class="st30" d="M277.3,124.1c3-1.3,6.1-2.5,9-4.1c0.5-0.3,0-2.3-0.1-3.5c3.4,2,6.9,3.9,10.1,6.2c0.7,0.5,1.1,2.9,0.6,3.4
			c-3.7,3.7-7.6,7-11.7,10.1c-0.7,0.5-4-1-4.6-2.4C279,130.9,278.3,127.4,277.3,124.1z"/>
		<path class="st42" d="M768,192.6l-1.7,1.6l-3.4,3.3c-1.2-1.4-2.2-3.5-3.8-4.1s-3.6,0.3-5.4,0.5c-1,0.1-2.1,0.1-3.1,0.2
			c1,0.9,1.9,2.3,3.1,2.7c6.1,2.4,7.1,4.3,3.6,8.4c-1.8-1.6-4.4-3-5.3-5c-4.4-9.2-6.5-6.8-12-7c1.6-1.9,3.2-4.7,5.6-6.2
			s5.7-1.9,8.6-2.7c1.5,3,8.6,0.7,6.6,7c0.2,0,0.5,0.1,0.7,0.1c2.5,0.4,5.1,1.2,7-1.4L768,192.6z"/>
		<path class="st40" d="M138.1,80l2.5-3.8c7.1,2.8,10.5-1.2,13.1-7c0.5-1.2,2-1.9,3-2.9c0.1,1.3,0.3,2.6,0.3,3.9
			c0,2.3-0.2,4.5-0.3,6.7l-4.6,6.5l3.8,0.5c0,0.6,0,1.1,0,1.7c-2.1,2.2-3.5,4.1,1.3,4c0.4,0,0.8,1,1.2,1.5l-2,0.9l-8.4-1.9l-1-3.8
			L138.1,80z"/>
		<path class="st43" d="M806.6,266.5c0.9-4.1-3.3-12.1-7.6-14.8l3-2.2c3.2-0.7,4.9,0.9,6.1,3.7c0.7,1.6,2.3,2.9,3.6,4.3
			c2.8,2.5,5.8,3,9,0.8c0.2-0.1,0.9-0.1,1,0s0,0.7,0,1.1c-4.3,2.9-2.3,4.7,1.2,6.1c-0.5,1.5-0.7,3.3-1.5,4.5c-0.9,1.1-2.1,2-3.5,2.5
			c-0.2,0.1-1.2-1.3-1.7-2s-1.2-2.1-2.1-2.5c-1.3-0.4-2.7-0.7-4.1-0.8c0,1.2,0.2,2.3,0.5,3.5c0.8,2.2,1.9,4.2,2.6,6.5
			C810.9,273.6,808.7,270.1,806.6,266.5z"/>
		<path class="st5" d="M807.7,224.4c-0.4-6-0.4-6,6.4-4.3c0.7,0.2,1.4,0,2-0.4c6-6.4,14.2-5,22.1-5.6l-15,11.5
			C818,225.1,812.6,228.6,807.7,224.4z"/>
		<path class="st15" d="M739.7,105.6c0.4,1.5,0.7,3,0.9,4.6c0.2,2.1,0.1,4.3,0.1,6.5l-5.3-4.6l-4,4c0.3-1.3,0.5-2.6,0.8-3.9
			c1.5-5-0.8-9.1-4.9-10c-0.6,2.3-1.2,4.5-1.8,6.8c-1.7-4.7-3.3-9.5-5-14.2c1.9-0.5,3.7-0.8,5.7-0.9c1.5,0,2.9,0.8,4.4,1.2l3.2,1.8
			C732.2,102.1,737,103.2,739.7,105.6z"/>
		<path class="st44" d="M825.3,423.3c1.1-0.7,2.3-1.4,3.5-2c0.8-0.2,1.6-0.3,2.4-0.3c-0.2-0.9-0.3-1.9-0.5-2.8
			c-0.2-1.3-0.3-2.6-0.5-4l8-0.4c0,1.1,0,2.1,0,2.6c1.5-0.2,2.9-0.8,4.1-0.5c1.6,0.5,3,1.7,5.5,3.1c-0.1-0.6,0.1,0.5,0.2,1.6
			c-0.5,1.2-0.9,2.5-1.1,3.8c-0.2,5.4-1.2,5.7-6.3,3.5C835.9,426,830.5,424.9,825.3,423.3z"/>
		<path class="st23" d="M137.8,68.4c-2.9-0.2-5.9-0.2-8.8-0.6c-0.8-0.1-1.6-1-2.4-1.5c1.1-0.4,2.2-0.7,3.3-0.9c1.5,0,3,0.1,4.5,0.4
			c-1.4-2.1-2.5-3.5-3.5-5c1.9-7.5,8.8-8.9,14.5-11.7c0.5,1.4,1.8,3.1,1.4,4C144,58.3,140.9,63.3,137.8,68.4z"/>
		<path class="st10" d="M188.1,236.1l9.1-10.8l2.4,0.4c0.7,0.6,1.5,1.3,2.2,2l4.7,4.4c-2.8,2.5-5.5,5-8.3,7.5
			c-0.9,0.8-2.9,1.5-2.9,2.2c0,5-4,0.9-5.3,2.5c-0.4-0.9-0.8-1.8-1.2-2.8C188.6,239.7,188.4,237.9,188.1,236.1z"/>
		<path class="st19" d="M743.5,127.8c4.5-0.1,9-0.3,13.4-0.1c0.8,0,2.3,2.3,2,3.1c-1.3,3.8-3.1,7.3-4.5,11s-3.6,4.4-6.5,1.5
			c-1-1-1.9-2-2.8-3L743.5,127.8z"/>
		<path class="st45" d="M218.7,52.1c-2.1-2.4-4.4-4.6-6.3-7.2c-1.6-2.1-2.1-5.8-6.1-3.6c0.1-4,0.5-8.1,0.1-12.1
			c-0.4-4.2,2.5-3.8,3.9-2.5c2.9,2.6,5.1,6,7.5,9.1c-4.4,4.7,0.8,7.2,2.4,10.5L218.7,52.1z"/>
		<path class="st21" d="M448.8,106.7c-1.9,1.3-3.8,2.4-5.9,3.4c-2.3,0.9-4.6,1.6-6.9,2.2c-0.1-1.8-0.2-3.6-0.2-5.5
			c0-0.7,0.3-1.6-0.1-2.1c-1.9-2.7-1.5-3.7,2-4c4.7-0.3,6.3-1.7,2.1-5.5c-0.3-0.3,0.3-1.4,0.4-2.1c0.4-1.8,0.8-3.7,1.2-5.5l0,0
			l5.9,10.6l0.6,1.3c0.5,2.3,1,4.6,1.5,6.8L448.8,106.7z"/>
		<path class="st39" d="M589.3,210.8c-4.3-3.4-5.7-8-3.8-13s6.2-7,11.5-7.4c1.1-0.1,2.2-1.5,3.3-2.2l-2.3,7.7
			c-1.6,0.2-4-0.1-4.6,0.8c-1.5,2.1-2.4,4.6-2.5,7.2c0,1,3.5,1.9,5.5,2.8c1.5,1.4,3.4,2.6,4.4,4.3c0.3,0.6-1.4,2.4-2.2,3.7
			c-0.7-0.6-1.3-1.4-2.1-1.7C594.1,212.1,591.7,211.5,589.3,210.8z"/>
		<path class="st16" d="M940.6,402.4c-1.7,0.4-3.4,0.8-5.1,1c-1.1-0.1-2.2-0.3-3.2-0.6c0.7-1,1.6-1.9,2.5-2.7
			c0.7-0.5,1.8-0.5,3.3-0.9c-5.6-1.4-7.7,1.2-6.9,6.9l-6-3c2.2-4,4.5-8.1,6.7-12.1c0.5-0.7,1.1-1.4,1.8-1.9c1.5-1.3,3.1-2.6,4.7-3.8
			c0.8,2.6,1.7,5.1,2.4,7.7c0.4,1.3,0.5,2.7,0.8,4.1C941.2,398.9,940.9,400.6,940.6,402.4z"/>
		<path class="st41" d="M811.6,257.5c-1.2-1.4-2.9-2.6-3.6-4.3c-1.2-2.9-2.9-4.4-6.1-3.7l-3.5-10.6c0.5,0.4,1.1,0.6,1.7,0.8
			c1.2,0.2,2.3,0.2,3.5,0.1c0.3,0,0.7-1.5,0.6-1.5c-1-0.5-2.1-1-3.2-1.3c-0.7-0.2-1.5-0.2-2.2-0.3c3.8-2.3,6.9-4.4,1.3-7
			c0.9-1,1.8-2,2.7-3c0.6,0.3,1.8,0.7,1.8,1c-0.1,3,0.4,5,4.2,3.8c0.2-0.1,0.8,1.1,1.2,1.7c-2.4,1.4-5.9,1.5-1.9,6.1
			C812.5,244.3,813.8,251.3,811.6,257.5z"/>
		<path class="st46" d="M382.2,228.1c1.1-0.8,2.3-1.6,3.5-2.3c0.5,0.4,0.9,0.9,1.2,1.4c-1,1.1-2,2.1-3.2,3c-1.4,1.1-3,2-4.2,2.9
			l5.1,5.5c-2.5,0.8-5,1.6-7.5,2.4c-0.6,0.1-1.2,0.2-1.9,0.2l-7.9-2.5c2.2-2.1,4.2-4.2,6.2-6.5c0.9-1.2,1.3-2.7,1.1-4.2
			c-0.7-2.7-2-5.2-2.2-8.2L382.2,228.1z"/>
		<path class="st0" d="M685.6,287.4c-2.9,1.3-6.4,1.6-6.8,5.9c0,0.5-2.3,0.8-3.6,1.1c0-1-0.4-2.1-0.1-2.9c1.6-4.3-2.3-4.1-4.3-5.5
			c2.2-4,4.3-8.1,6.5-12.1c0.6-0.9,1.2-1.7,1.9-2.5c0.9,0.9,2.4,1.7,2.7,2.8C683.3,278.5,684.4,283,685.6,287.4z"/>
		<path class="st33" d="M585.6,263c0.9,3.9-1.6,6.7-5.5,6.7c-1.5,0-3.1,0.9-4.5,2.7l3,0.7c-0.6,0.9-1.2,1.7-1.9,2.5c-1,1-2,2-3,3
			c1.2,0,2.4,0,3.6,0.1c0.4,0,0.8,0.6,1.2,0.9l-3.4,1.6l-4.7,1.9l-0.5-4.9c-3.8,0.9-2.7-2.1-3.1-3.9c1.5-1.7,2.9-3.4,4.4-5
			c1.8-1.8,6.3-1.8,3.8-6.3c0.8-1,1.8-1.7,3-2.2c1.4-0.1,2.7,0.1,4,0.6C583.4,261.9,584.5,262.4,585.6,263z"/>
		<path class="st27" d="M642.5,182.6c2.1,0.7,4.3,1.3,6.3,2.1c1.1,0.6,2.2,1.2,3.2,2c-1.1,0.7-2.3,2-3.4,1.9c-3-0.4-6-0.9-8.9-1.6
			c-1.3-0.3-2.6-0.6-3.9-0.9c0.3,1.4,0.6,2.8,1,4.1c0.3,0.7,0.6,1.4,1,2c-1,0.9-1.9,2.2-3,2.5c-0.6,0.2-1.9-1.2-2.5-2.1
			c-1-1.8-1.9-3.7-2.7-5.6l4.1-0.6c-0.6-1.3-1.2-2.6-1.7-4c-1.6-4.2-3.1-8.4-4.7-12.6c1.2,2.5,2.3,4.9,3.7,7.3
			c0.6,0.8,1.2,1.5,2,2.1c0.4-1.1,0.7-2.2,0.8-3.4c-0.1-0.9-0.9-1.7-1.4-2.6c2.8,2.8,5.5,5.7,8.4,8.5
			C641.2,182.1,641.8,182.4,642.5,182.6z"/>
		<path class="st28" d="M274.8,99.5c0.4,4.3-1.6,6.4-5.9,7.4c-2.2,0.7-4.1,2.2-5.3,4.2c-0.7,1.2,0.5,3.5,0.9,5.3
			c0.1,0.5,0.1,1.1,0.2,1.6c-0.7-0.4-1.6-0.6-1.9-1.2c-1.3-2.1-2.5-4.4-3.7-6.6l2.8-1.8c-1-0.4-2-1.2-2.9-1.2
			c-4.5,0.4-1.6-3-1.4-3.5c1.1-2.3,2.4-5.4,4.4-6s5.3,0.5,7.2,2C271.5,101.4,273,102.4,274.8,99.5z"/>
		<path class="st15" d="M391.3,274.4c0-1.5,0-3,0.2-4.5s0.4-2.8,0.6-4.2c1.8,0.4,4.1,0.2,5.1,1.3c2.6,2.8,4.8,5.9,6.5,9.3
			c1,2.3,0.4,5.2,0.5,7.8c-3.4,4.8-5,4.1-6.7-1.4C396.5,279.5,393.4,277.1,391.3,274.4z"/>
		<path class="st37" d="M594.6,317.6c2-1.4,4.1-2.7-1.4-4.2c2.6-0.8,4.2-1,5.5-1.7c1-0.6,1.5-1.8,2.2-2.8c-0.8-0.1-1.7-0.2-2.5-0.4
			c-1.2-0.3-2.3-0.6-3.5-1c3.8-0.8,7.5-1.9,11.3-2.1c0.9,0,2.7,3.1,2.8,4.9c0.2,2.6-1,5.3-1.3,8c-0.5,3.5-2,4.7-5.3,3
			C599.8,320,597.2,318.8,594.6,317.6z"/>
		<path class="st28" d="M768.4,189.9c-1.9,2.5-4.5,1.8-7,1.4c-0.2,0-0.5-0.1-0.7-0.1c2-6.3-5.1-4-6.6-7c0.3-1.1,0.9-2.3,0.8-3.4
			c-0.3-3.6-1-7.1-1.4-10.7c-0.1-0.8,0.6-1.7,0.9-2.5c0.7,0.5,1.3,1.1,1.8,1.7c2.2,4,4.3,8.2,6.5,12.2c0.2,0.4,1.3,0.3,1.9,0.4
			l3.7,1.9C768.3,185.9,768.4,187.9,768.4,189.9z"/>
		<path class="st28" d="M283,290.4c-1-2.2-1.2-3.9,1.7-4.8c1.3-0.4,2.4-1.6,3.5-2.4l-4.8-0.8l0.7-1.7l3.7-1c-1.5-1.4-4.1-2.8-4-3.8
			c0.7-4.5,4.1-5,7.9-3.9c2.1,0.5,4.3,0.9,6.4,1.4c0.6,0.2,1.1,0.4,1.6,0.6c-0.5,0.7-0.8,1.6-1.5,1.9c-4,2.1-4.7,5.9-6.1,9.7
			c-0.7,1.9-3.5,3-5.4,4.5L283,290.4z"/>
		<path class="st39" d="M444.1,272c1-0.8,2-2.1,3.1-2.3c4.2-0.6,8.5-0.9,12.8-1.3l0.3-2.3l-6.9-0.3l0.6-1.9l6.4-0.7v-1.1l-4.9-0.8
			v-0.8l7.4-1.4c1.7,5.8-0.5,11.4-5.7,14.7c-2.5,1.7-4.8,3.7-7.3,5.5c-0.5,0.3-1.8,0.4-2.1,0c-0.7-1.1-1.3-2.2-1.7-3.4
			C445.5,274.6,444.8,273.3,444.1,272z"/>
		<path class="st3" d="M500.7,290.3l-8.3-0.2l6.9-4.7c-0.4-0.5-1.3-1.8-1.7-2.4l13-1.5c4,0.7,8.1,1.4,12.1,2.3
			c1.2,0.3,2.2,1.5,3.3,2.3c-1.7,1.1-3.4,3.1-5.2,3.1c-2.3,0-4.7-1.4-7-2.4C508.6,284.6,504.2,285.7,500.7,290.3z"/>
		<path class="st11" d="M383.5,294.5l-5.7,7.5c3.5,1.3,7,2.8,10.6,3.9c0.9,0.3,2.9-0.4,2.9-0.9c0.6-3.8,2.6-4.8,6.1-3.6
			c-0.4,6.4-7.2,10.9-13.9,9.3c-1.4-0.2-2.8-0.2-4.3-0.1c-0.1-0.4-0.3-0.8-0.1-1.1c2.6-3.8,1.3-5.1-2.9-4.6c-0.5,0-1-0.2-1.4-0.4
			c0.4-3.8,0.9-7.6,1.3-11.5L383.5,294.5z"/>
		<path class="st0" d="M565.1,327.2c2.1,1.7,6.7,2.2,3.2,6.6c0.6,0.5,1.1,0.9,1.8,1.3c0.9,0.4,1.7,0.7,2.6,1
			c-5.1,4.8-15.2,6.1-21.4,2.9L565.1,327.2z"/>
		<path class="st47" d="M447.4,98.3l-5.9-10.6c-4-3.8,1.9-6.5,1-9.9c0.7-0.1,1.4,0,2.1,0.1c4.5,1.9,6.2,5.3,7.3,10.2
			C453.2,93.5,450,95.5,447.4,98.3z"/>
		<path class="st44" d="M711.6,146.2l3.8,1.3l4.5,13c-3-0.2-6.6-1.1-4.6,4.1c0.4,0.7,1.1,1.1,1.8,1.2c1.3-0.1,2.6-1.1,3.9-1
			s2.2,1.1,3.3,1.7c-0.8,0.7-1.7,1.4-2.6,2c-0.6,0.4-1.6,0.1-2.1,0.5c-4.2,3.1-6.1-0.6-8.5-2.8L711.6,146.2z"/>
		<path class="st3" d="M841.2,331.4c-0.1-5.5-0.3-10.9-0.3-16.4c0-0.8,1-1.5,1.5-2.3c0.4,0.7,0.8,1.4,1.1,2.2c3,6.5,6,13,9.1,19.5
			L841.2,331.4z"/>
		<path class="st48" d="M391.3,274.4c2.1,2.7,5.3,5.2,6.2,8.3c1.7,5.5,3.3,6.3,6.7,1.4c-0.6,2.4-0.7,5.2-2,7c-4.1,5.7,0.2,6.5,4,7.8
			l-4.2,5.2c-0.9-1.8-1.7-3.6-2.6-5.4c-3.1-6-6.1-12-9.2-18C390.6,278.6,390.9,276.5,391.3,274.4z"/>
		<path class="st30" d="M81.5,204.8c0.6-1.1,1-2.2,1.7-3.3s1.3-1.9,2-2.8c0.4,0.7,0.6,1.9,1.2,2c2.4,0.8,4.9,1.3,7.4,1.9
			c1.5,0.3,3.1,0.6,4.6,0.9c-1.7,1.7-3.6,3.4-5.2,5.2c-4.4,4.8-10,5-16.1,0.6c1.3-0.8,2.6-1.7,3.9-2.7
			C81.3,206.4,81.3,205.5,81.5,204.8z"/>
		<path class="st15" d="M820.8,171.3c1.1-0.4,2.1-1,3.1-1.6c0.5-0.4,1.2-1.6,1-1.8c-0.7-0.8-1.8-2.1-2.4-1.9
			c-2.7,0.8-5.5,1.1-7.4,0.6c1.3-2.4,2.8-4.7,4.5-6.9c0.5-0.6,3.4-0.5,3.5-0.1c1.6,4.8,6,2.7,9,3.8c0.7-0.3,1.4-0.4,2.2-0.5
			c1.3,0.1,2.5,0.3,3.8,0.6c-0.8,0.9-1.7,1.8-2.7,2.6c-3.1,2.2-6.3,4.2-9.6,6C824.6,172.6,822.5,171.5,820.8,171.3z"/>
		<path class="st1" d="M33.4,121.4c2,3.2,3.8,6.6,5.4,10c1.4,3.3,3.1,5.2,6.9,4l-3.5,8.4c-1.4,2.3-2.8,4.6-4.2,6.9
			c-0.6-1.9-1.2-3.8-1.8-5.8C35.3,137.1,34.3,129.2,33.4,121.4z"/>
		<path class="st40" d="M597.1,122.7c0.9-0.3,1.7-0.4,2.6-0.4c2.7,0.4,5.4,1,8,1.8c0.9,0.5,1.7,1.3,2.2,2.3c-1.9,2.3-2,7.5-7.3,4.8
			c-0.2-0.1-0.7,0.6-1.1,1l-2.7-0.8c0.1,1.4,0.5,2.8,0.1,3.6c-0.7,1-1.7,1.7-2.9,2c-0.7,0.2-1.7-0.4-2.5-0.6
			c0.4-1.1,0.5-2.4,1.3-3.2c1.6-1.7,2.3-2.9-0.9-3.2L597.1,122.7z"/>
		<path class="st37" d="M734.1,318.5c0-1.5,0-3,0.1-4.9l8.9-1.6c0.1,0.4,0.3,0.7,0.4,1.1l-4.8,2.9l0.2,0.9l5.6-0.8l-1.3,4
			c-2.2,4.1-4.5,8.2-6.8,12.2h-1.7L734.1,318.5z"/>
		<path class="st49" d="M552.1,97.4c0.6,0.5,1.2,1.1,1.8,1.5c1,0.8,2.1,1.5,3.2,2.2c0.7-1.3,2.3-2.8,2.1-3.8
			c-0.8-3.1-0.3-3.8,2.9-3.1c1.5,0.3,3.2-0.7,4.8-1.1l-3-2c1.6-1,3.3-1.8,5.1-2.4c1.2-0.3,2.7,0.3,4,0.5c-6.3,4.1-8.6,10-8.5,17.2
			c-1.3-0.3-2.6-0.7-3.9-1c-3.1-0.7-6.2-1.4-9.3-2.1C551.6,101.3,551.9,99.3,552.1,97.4z"/>
		<path class="st10" d="M598.7,264.3c-0.1-5.4-2.1-6.4-10.9-5.6c8.1-2.9,16.2-5.9,24.4-8.7c0.3-0.1,0.8,0.3,1.3,0.5
			c-0.2,0.7-0.6,1.3-1,1.9C607.9,256.4,603.3,260.3,598.7,264.3z"/>
		<path class="st50" d="M153.7,228.2c0.4-1.4,0.9-2.9,1.4-4.3c0.5-1.4,1.1-2.9,1.7-4.4c1.2,0.7,2.4,1.3,3.7,1.9c1.5,0.6,3,1,4.6,1.4
			c1.2,0.3,2.4,0.5,3.6,0.7c-0.5,1.1-0.8,2.7-1.6,3.2c-3,1.5-2.8,3.4-1.4,5.8c-2.9,0.1-8.3-2.5-5,3.9l-3.5-3.2L153.7,228.2z"/>
		<path class="st42" d="M611,370.4c0.7,0.2,1.3,0.5,1.9,0.9c-2.3,7.8,5.1,6,8.2,8.4c-5.4,5.8-11,4.9-16.9,0.8
			c-1-0.7-2.6-0.5-3.9-0.8c0.3-1.1,0.6-2.2,1-3.8c3.2,0.5,6.6-0.5,8.3-4.8L611,370.4z"/>
		<path class="st51" d="M349.7,249.1c-4.6,0.1-7.4,1.8-6.2,7c-0.6,0.3-1.2,0.4-1.8,0.5c-1.3-0.1-2.5-0.3-4.8-0.6l5.7-5.7l-5.7,1.6
			l-0.9-1c1.2-0.9,2.4-1.7,3.6-2.6c0.5-0.3,0.9-0.8,1.3-1.1c-0.5-0.3-0.9-0.7-1.4-0.8c-3.3-0.5-3.2-1.9-1.5-4.3c1.3-1.9,2-4.2,3-6.3
			l3.6,4l4.9,8.7C349.6,248.6,349.7,248.9,349.7,249.1z"/>
		<path class="st14" d="M810.2,233.2c-0.4-0.6-1-1.8-1.2-1.7c-3.8,1.2-4.3-0.9-4.2-3.8c0-0.3-1.2-0.6-1.8-1l4.8-2.3
			c4.9,4.1,10.3,0.6,15.5,1.1c-2.6,1.9-2.2,3.4,0.4,4.9c1.3,0.7,2.6,1.6,3.6,2.6c0.5,0.6,0.4,1.8,0.6,2.7c-1,0.1-2.2,0.5-2.9,0.1
			c-1.2-0.7-2.2-1.6-3.1-2.7C817.9,229.3,814.1,230.4,810.2,233.2z"/>
		<path class="st25" d="M759.8,348.8c2.7-0.9,5.4-1.8,8.1-2.5c0.4,0.8,0.7,1.6,1,2.4c-2.4,4.9-4.8,9.8-7.4,14.6
			c-0.5,1-2.2,1.3-3.3,1.9c-0.3-1.1-0.4-2.3-0.4-3.5C758.4,357.4,759.2,353.1,759.8,348.8z"/>
		<path class="st52" d="M575.5,199l5,0.5c-0.8,1.4-2.1,2.7-2.3,4.1c-0.3,2.3,0.2,4.8,0.3,7.1l-6.1,1.2c-0.6-3.1-2-4.6-5.4-3.5
			c-0.8,0.3-2-0.8-3.1-1.3l1.4-2.6l2.3-4.4c1.8,0.3,3.7,0.4,5.6,0.5C574.1,200.6,574.8,199.6,575.5,199z"/>
		<path class="st16" d="M378.1,244.1c1.3-1.1,2.8-2,4.4-2.7c1.2-0.4,2.7,0.3,4,0c4.1-1,8.1-2.3,12.2-3.5c0.1,0,0.1-0.7,0.1-1.1
			c3-1.5,6.1-2.9,6.6,2.4c0.3,2.8-0.5,4.1-4.1,3.7c-3.4-0.4-6.9,0.2-10.1,1.7C386.5,247,382.4,246.5,378.1,244.1z"/>
		<path class="st20" d="M447.2,167c-2.7,2.7-5.3,5.4-8,8.1l-2.3-1.4l-2.2-2.9c1-0.1,2.6,0,3.8-0.6s2.1-2,3.2-3.1
			c-1.1-0.3-2.3-0.6-3.4-0.8c-2.6-0.3-5.3-0.4-8.3-0.6c3.3-4.8,12.5-5.3,19.1-1.8L447.2,167z"/>
		<path class="st26" d="M658.5,171c-0.5,0.7-1,1.4-1.5,2c-0.3-0.7-0.5-1.6-1-2c-1.9-1.3-3.9-2.4-6-3.6c-0.1,0-1,0.8-0.9,1
			c0.2,0.6,0.9,1,1.1,1.6s0,2-0.2,2.1c-1,0.2-2.8,0.5-3.1,0c-0.7-1.5-1.3-3.1-1.7-4.8l6.8-8.3l6.4,1.2
			C658.4,163.8,658.4,167.4,658.5,171z"/>
		<path class="st52" d="M551.2,233.5c-3.1,3.4-5.5,3.2-7.3-1.3c-0.5-1.3-1.1-2.5-1.7-3.7l3.9-2.2c-0.9-0.4-2.1-1.2-2.7-1
			s-1,1.7-1.5,2.6l-0.7,0.3l-5.4-4.6l7-7.7C545.6,221.8,548.4,227.7,551.2,233.5z"/>
		<path class="st22" d="M551.4,103.3c3.1,0.7,6.2,1.4,9.3,2.1c1.3,0.3,2.6,0.7,3.9,1c-0.7,2.6-1.5,5.1-2.2,7.7h-9.1L551.4,103.3z"/>
		<path class="st26" d="M743.5,127.8l1.7,12.6c-4-3.7-8.9-2.9-13.7-2.6c0-0.7,0-1.5,0-2.2c-4,0.4-2.6-1.8-1.8-3.6
			c4.6,0.5,2.8-2.2,2.1-4.3c0.6,0.6,1.2,1.3,1.7,1.9c1.5,1.8,2.9,3.6,4.3,5.4c0.8-2.8,1.6-5.5,2.3-8.3c0.1-0.3-0.2-0.7-0.3-1.1
			l0.1-0.1L743.5,127.8z"/>
		<path class="st37" d="M264.3,245.2c-2.6-1.7-7.6-2.1-3.5-7.1l-1.7-0.4c0.9-1.8,1.9-3.5,3-5.1c1-1.1,2-2.1,3.2-3
			c1.1,1.5,2.8,2.9,3.4,4.6C270.2,238.8,267.2,242,264.3,245.2z"/>
		<path class="st53" d="M331.4,179.8c0-2.9-1.1-3.5-3.7-2c-1.1,0.8-2.5,1.2-3.8,1.1c-1.8-0.4-3.4-1.5-5.1-2.3c1.2-1.7,2.5-3.4,3.7-5
			l3.6-4.9l2.7-1.3c0.4,1.9,0.7,3.9,0.8,5.9c0,4.9,4.1,4.2,6.9,5.3L331.4,179.8z"/>
		<path class="st52" d="M565.8,227.6l3.1,1.4c-0.7,0.7-1.2,1.5-1.7,2.4c-1.5,4.8-5,3-8.2,2.6c-1-0.1-2.1,0.2-2.9,0.8
			c-0.4,0.5,0.2,1.9,0.3,2.8l-12.2,5.7l-2.2-2.7c5.4,0.9,7.2-3.9,9.8-7.5l3.1-2.3l0,0c2.7,0.4,5.3,0.6,8,0.7c0.6,0,1.2-1.8,1.8-2.8
			L565.8,227.6z"/>
		<path class="st54" d="M757.2,205.1c3.5-4,2.6-6-3.6-8.4c-1.2-0.5-2.1-1.8-3.1-2.7c1-0.1,2.1-0.1,3.1-0.2c1.8-0.2,3.9-1.1,5.4-0.5
			s2.5,2.7,3.8,4.1c0.8,3.4,1.6,6.7,2.4,10.1c0,0.2-0.5,0.5-0.7,0.8L757.2,205.1z"/>
		<path class="st2" d="M206.1,46.4c5.7-2.7,1.8,1.8,2.1,2.9c1.7,5.1-0.6,8.9-4.3,12.1l-7.4,1.8c-2.1-5.4-1.7-7.2,5.2-8.2
			c5-0.7,4.3-3,4.1-6.1C205.9,48.1,206,47.2,206.1,46.4z"/>
		<path class="st55" d="M731.4,116.2l4-4l5.3,4.6c-0.3,2.9-0.5,5.8-0.8,8.6l-0.1,0.1c-1.1-1.6-2.1-4.3-3.5-4.5
			c-1.8-0.3-3.9,1.4-5.8,2.2c-0.4-2.6-6.5-0.9-4.3-5.5l0,0L731.4,116.2z"/>
		<path class="st27" d="M566.9,274.3c0.4,1.8-0.7,4.8,3.1,3.9l0.5,4.9l4.7-1.9c-4.5,2.6-8.9,5.2-13.5,7.6c-0.8,0.4-2.1-0.1-3.1-0.2
			c0.1-1,0.4-2,0.8-2.9C561.8,281.8,564.4,278.1,566.9,274.3z"/>
		<path class="st48" d="M224.7,70c-1.4-1.2-3.7-2.1-4.2-3.6c-1.3-3.7,1.6-5.1,7-3.7c-0.9-3.6-0.9-3.6-4.4-2.8
			c-0.7,0.1-1.4,0.1-2.1,0c0.3-0.9,0.6-1.7,0.9-2.5l8.4-0.4c-0.6,3.2-1,6.6-2,9.6C227.8,67.9,225.9,68.9,224.7,70z"/>
		<path class="st56" d="M281.9,45.7c-0.3-1.8-0.5-3.6-0.8-5.4c0.1-1.9,0.1-3.7,0.3-5.6c0.1-0.7,0.3-1.4,0.5-2l-2.3,0.8
			c0.8-0.8,1.5-2.3,2.3-2.3c2.3,0,4.6,0.1,6.9,0.4c0.5,1,1.1,1.9,1.8,2.8c0.4,0.5,1.2,0.7,1.8,1.1l-2.2,2l2.8,0.1
			C289.7,40.9,282.9,39.3,281.9,45.7z"/>
		<path class="st43" d="M786.4,269.3c1.3-0.9,2.7-1.8,4.2-2.5c2.9-1.3,5.9-2.9,9-3.6c2.7-0.6,4.1,1.2,3.4,4.1
			C797.9,271.9,790.7,272.8,786.4,269.3z"/>
		<path class="st57" d="M449.5,106.4c-0.5-2.3-1-4.5-1.5-6.8c4.7-0.6,9.4-1.2,14.1-1.6c0.9-0.1,2.5,0.7,2.7,1.4
			c1.6,5.4,1.5,5.4,6.8,4.5l-7.7,1.5l-8-4.5c0,1.7,0.1,3.3,0,5c-0.2,0.7-0.4,1.4-0.8,2l-3.8,0.8L449.5,106.4z"/>
		<path class="st27" d="M185.3,47.9c-0.8-2.4-1.7-4.8-2.5-7.2l6.8-1.4c0.8,1.6,1.3,4,2.5,4.5c1.7,0.7,4-0.1,6.1-0.3
			c-1.7,7.2-2,8.8-8.9,5.1C188.1,48,186.6,48.1,185.3,47.9z"/>
		<path class="st15" d="M178.2,225.8c0.1-4.1,2.4-6.7,6.3-6c1.9,0.3,3.5,3,5.2,4.6c-1.4,1.1-2.7,2.2-4.1,3.2
			c-0.9,0.5-1.8,0.8-2.8,1.1L178.2,225.8z"/>
		<path class="st2" d="M712.9,260.6c2.7-2.3,5.4-4.6,8.2-6.9c1.1-0.7,2.2-1.4,3.5-1.9c-1.4,7.2-1.1,7.5,6.5,6.8
			c-1.1,0.6-2.1,1.5-3.3,1.7c-2,0.2-4,0.2-6,0.1l-7.3,4.4L712.9,260.6z"/>
		<path class="st0" d="M525.6,159.4c-0.2,0.1-0.6,0-0.7,0.2c-4.3,6.7-9.8,3.4-15,1.8c-0.5-0.1-0.8-0.7-1.3-1.1
			c0.6-0.5,1.3-1.4,1.9-1.4c4.4,0.3,7.8-1.9,11.1-4.3L525.6,159.4z"/>
		<path class="st4" d="M646.5,381c4-1.6,9.4,1.5,12.5-3.8c0.3-0.5,3.3,0.6,4.9,1l-5,6.2l-3.2,7.2l-4.7-4.5c2.8-2.5,1.9-3.8-1.3-4.7
			C648.6,382.1,647.5,381.6,646.5,381z"/>
		<path class="st5" d="M630.5,305.8c3.2,3.3,0.1,5.5-1.3,8.1c-3.5-0.5-8.9-6.6-8.8-10c0-0.3,1.4-0.9,2-0.8
			C625.1,303.8,627.8,304.8,630.5,305.8z"/>
		<path class="st6" d="M729.9,298.9c3.8,0.4,7.7,0.7,11.5,1.1c0.4,0,0.8,0.5-2.6-0.5l-0.2,5.2l2.6,1.1l2.6-2.1l0.8,1.2
			c-1.8,1.1-3.7,3.1-5.5,3.1c-2.1,0-4.1-1.8-6.2-2.9l1.8-2.6c-1.1-0.4-2.3-1.2-3.3-1C728.1,302,728.8,300.7,729.9,298.9z"/>
		<path class="st32" d="M611,370.4l-1.4,0.6l-9.2-2.3l-3.1-2.7c2.3-1.5,4.7-2.9,7.2-4c0.4-0.2,5.3,0.7,3,4.6
			C607.3,367,609.8,369.1,611,370.4z"/>
		<path class="st28" d="M731.4,116.2l-5.2,1.5c-0.2-2.9-0.5-5.8-0.7-8.7c0.6-2.2,1.2-4.5,1.8-6.8c4.1,0.9,6.3,5.1,4.9,10
			C731.9,113.5,731.7,114.9,731.4,116.2z"/>
		<path class="st16" d="M600.4,368.7l9.2,2.3c-1.7,4.3-5.1,5.4-8.3,4.8c-0.5,1.6-0.7,2.7-1,3.8l-3.2,1.9
			C597.2,376.7,595.7,371.9,600.4,368.7z"/>
		<path class="st42" d="M363,333.9c0.3-1.2,0.6-2.4,0.9-3.6l6-2.9c2,0.9,5.3-3.2,6.4,1.5c0.1,0.7-0.9,1.5-1.3,2.4
			c-0.2,0.7-0.4,1.5-0.6,2.3L363,333.9z"/>
		<path class="st36" d="M195.6,218.5l-0.3-0.7c-1-5.8,1.2-9.9,6.2-13c1.6-1,2.3-3.6,3.4-5.5c3,2.1,1,3.8-0.4,5.8
			c-0.8,1.4-1.4,2.8-1.9,4.3l2,0.5L195.6,218.5z"/>
		<path class="st20" d="M351,289.1l-5.1-2.8l5.6-3.4c0.6-0.2,1.2-0.4,1.8-0.5c1.8-0.1,3.5-0.1,5.3-0.1c-0.1,1.9,0.5,4.3-0.4,5.4
			s-3.5,1.3-5.4,1.8C352.3,289.7,351.6,289.3,351,289.1z"/>
		<path class="st9" d="M671.4,76.3l-7.7-0.5c2.3-2.6,4.7-5.1,7-7.7c2.2-2.4,3.3-6.8,8.2-4L671.4,76.3z"/>
		<path class="st26" d="M307.6,113.1c1.6-0.8,3.4-1.4,4.7-2.5s1.8-2.8,3.5-4.1c-0.7,4.3-1.3,8.5-2,12.7l-8.1-2.1L307.6,113.1z"/>
		<path class="st5" d="M753.2,297.3l-0.9-3.8c3.3-0.9,6.7-1.9,10.1-2.7c1.3-0.1,2.6-0.1,3.8,0c-0.2,1.4-0.2,3-0.8,4.2
			c-0.7,1.1-1.7,1.9-3,2.1C759.3,297.4,756.2,297.3,753.2,297.3z"/>
		<path class="st58" d="M729.6,131.9c-0.8,1.9-2.2,4.1,1.8,3.6c0,0.7,0,1.5,0,2.2l-7.4,3.4c-0.5-0.5-1-1-1.5-1.4
			c-0.9-0.6-1.9-1.2-2.9-1.7c0.9-0.7,1.8-1.4,2.6-2.2c0.5-0.5,1.1-1,1.2-1.5C724.1,130.4,726.2,129.6,729.6,131.9z"/>
		<path class="st20" d="M553.2,114.1h9.1c-1.5,3.9-3,7.8-4.7,11.6c-0.2,0.5-0.9,0.7-1.4,1.1c-0.4-0.6-1-1.1-1.2-1.7
			C554.4,121.5,553.8,117.8,553.2,114.1z"/>
		<path class="st19" d="M681,362.5c3.2-3.3,6.4-6.7,9.8-9.9c0.5-0.5,1.9-0.1,2.9-0.2c-1,3.2-2,6.4-3,9.6L681,362.5z"/>
		<path class="st3" d="M854.3,343.5c-2.2,0.5-5.5,7.9-6.1-1c0-0.3-1.2-0.9-1.4-0.7c-1.1,0.8-2.1,1.6-3,2.6c-0.9,0.9-1.8,1.9-2.7,2.8
			c-0.1-1.9-0.1-3.8-0.2-5.7c0.8-0.3,1.6-0.7,2.3-1.1c3-2.3,6.1-6,8.2,0.8c0.2,0.5,1.4,0.7,2.2,1L854.3,343.5z"/>
		<path class="st8" d="M853.6,342.2c-0.8-0.3-2-0.5-2.2-1c-2.2-6.8-5.2-3.1-8.2-0.8c-0.7,0.5-1.5,0.8-2.3,1.1
			c0.1-3.3,0.2-6.7,0.3-10.1l11.3,3C852.9,337,853.2,339.6,853.6,342.2z"/>
		<path class="st2" d="M720,127.2l-2.7,1.3c0.8-1.7-0.3-3-3.2-3.5c-1.2-0.2-2.4,0-4.5-1c2.7-2.6,5.1-5.8,8.3-7.7
			c1.5-0.9,4.4,0.8,6.7,1.3c-2.5,1.6-5,3.4-7.3,5.3C717.1,123.1,719.1,125.7,720,127.2z"/>
		<path class="st42" d="M345.4,270.1c2.2-1.7,4.5-4.8,6.1,0.5c-0.7,2.6-1.5,5.1-2.2,7.7c-5.1,0.5-6.8-0.9-5.7-4.9L345.4,270.1z"/>
		<path class="st59" d="M565.8,227.6l-1,1.3L555,231l0,0l-2.5-4c1.5-0.2,3.1-0.4,4.6-0.7c3.3-0.5,6.5-1.1,9.8-1.7
			c1.7-0.3,3.5-0.8,2.6,2.1L565.8,227.6z"/>
		<path class="st0" d="M455.1,107.9c0.4-0.6,0.6-1.3,0.8-2c0.1-1.6,0-3.3,0-5l8,4.5C463.3,111.8,463.3,111.8,455.1,107.9z"/>
		<path class="st54" d="M800.2,229.7c5.6,2.6,2.5,4.7-1.3,7c0.7,0,1.5,0.1,2.2,0.3c1.1,0.4,2.2,0.8,3.2,1.3c0.1,0-0.3,1.5-0.6,1.5
			c-1.2,0.1-2.3,0.1-3.5-0.1c-0.6-0.2-1.2-0.4-1.7-0.8l-5.2,0.7c0.8-1.5,1.6-3,2.5-4.3C797.2,233.4,798.7,231.5,800.2,229.7z"/>
		<path class="st9" d="M705,328.8c3.3-1.2,5.6,0.5,5.6,3.4c0,2-2.3,4.1-3.5,6.1c-1.5-1.2-3-2.3-4.5-3.4c-0.3-0.2-0.9-0.1-1.4-0.1
			l1.9-5.1L705,328.8z"/>
		<path class="st23" d="M827.4,154.9c-2.7,2-5.3,3.2-8.3,0.4c-0.4-0.4-1.5,0-2.3,0c-1.3,0-2.7,0-4,0c0.7-1.6,1.6-3.2,2.6-4.6
			c1.3-1.3,2.7-2.6,4.2-3.7l1,0.4l-2.8,5.4l7.4-0.9L827.4,154.9z"/>
		<path class="st60" d="M551.3,205.4c0.6,8.9,8.4,4.8,13.3,7c-3.9,3.6-8,5.1-13,4.4l-0.2-5.4L551.3,205.4z"/>
		<path class="st10" d="M820.9,311l-2.4,4.8l9.3,2.8c-0.9,0.6-1.8,1.8-2.7,1.7c-5.4-0.1-10.7-1-15.9-2.5L820.9,311z"/>
		<path class="st53" d="M754.9,387.4c-0.7,2.3-1.4,4.6-2.1,6.9c-0.2,0.4-0.5,0.8-0.8,1.1l-2.3-3c0-3.9-0.1-7.9,0-11.8
			c0-0.7,0.8-1.3,1.3-1.9c0.3,0.6,0.7,1.2,1,1.8C752.9,382.8,753.9,385.1,754.9,387.4z"/>
		<path class="st40" d="M821,383.8l-6.6-2.1l4.6-4.7l-4.6,1.3l0.9-3.2c0.1,0,0.2-0.1,0.3-0.2l7.2-2.1c-0.7,2.3-1.5,4.7-2,7.1
			C820.6,381.2,820.7,382.5,821,383.8z"/>
		<path class="st40" d="M613,137.6l-8.1,7.8l-2.3-0.9c4.5-2.9,3.8-4.2-0.1-5c-0.6-0.1-0.8-2.3-1.1-3.5c1.1-0.1,2.2-0.3,3.4-0.4
			c1.3-0.1,2.6-0.2,3.9-0.2L613,137.6z"/>
		<path class="st2" d="M508.2,42.5l-1.7,0c-0.2-1-0.4-2-0.6-3l8.6-8.2l2.2,6.4l-0.6,0.3L508.2,42.5z"/>
		<path class="st13" d="M660.8,299.9c-2.3,0.9-4.6,1.7-6.8,2.8c-0.9,0.7-1.7,1.5-2.4,2.4l-4,0.4c1.4-3.9-0.4-9.4,6.2-9.8l0.8,4.8
			c0.7-0.2,1.9-0.1,2-0.5c0.4-1.1,0.7-2.3,0.9-3.5C658.6,297.5,659.7,298.7,660.8,299.9z"/>
		<path class="st39" d="M750.7,290.1c-1,0.6-2,1-3.1,1.3c-1,0.1-2.1-0.1-3-0.6c-0.4-0.6-0.5-1.3-0.3-2c0.8-0.6,1.9-0.7,2.8-1.3
			c0.6-0.4,1.2-1,1.6-1.6c-3.8-4.9-1-6.9,3.5-8.2c0.5,1,0.9,2,0.7,1.5c-1,2.2-1.7,3.3-1.9,4.5C750.8,285.8,750.7,288,750.7,290.1z"
			/>
		<path class="st56" d="M450.7,126.6l-4.7-2.9l12.5-5l0,0c-0.7,1-1.2,2-1.5,3.1c-0.4,2-0.5,4.1-0.7,6.2L450.7,126.6z"/>
		<path class="st45" d="M730.6,95c-1.5-0.4-2.9-1.1-4.4-1.2c-1.9,0.1-3.8,0.5-5.7,0.9c-0.2-0.4-0.4-0.9-0.4-1.4
			c0.2-2,0.5-3.9,0.7-5.8c2.4,0.9,5,1.5,7,2.9C729.2,91.3,729.7,93.4,730.6,95z"/>
		<path class="st28" d="M764.5,208.4c0.3-0.3,0.8-0.6,0.7-0.8c-0.8-3.4-1.6-6.7-2.4-10.1l3.4-3.3c0,1.9-0.4,3.9,0,5.7
			c0.3,1.5-2.4,5.6,2.8,4.1c0.7-0.2,1.9,1.6,2.9,2.4L764.5,208.4z"/>
		<path class="st18" d="M591.6,276c0.4-1.1,0.8-2.1,1.2-3.2c2.6,1.3,5,2.7,7.4,4.2c0.8,0.6,1,2.2,1.4,3.3c-1.6,0.3-3.7,1.4-4.8,0.8
			C594.8,280,593.3,277.8,591.6,276z"/>
		<path class="st56" d="M226.6,226.4c0.1,0.2,0.2,0.5,0.3,0.7l-2.1,4.5c0.1-0.1-1.6,0.3-1.6,0.7c-0.1,1.1,0.4,3,1.1,3.2
			c1.5,0.5,3.4,0.3,5.1,0.3l0.3,0.7l-5.4,4.3c-1.9-3.9-3.8-7.9-5.6-11.8c-0.3-0.9-0.4-1.8-0.4-2.8
			C220.9,230.3,223.7,227.5,226.6,226.4z"/>
		<path class="st55" d="M376.1,293c-0.4,3.8-0.9,7.7-1.3,11.5l-7.6-6.3L376.1,293z"/>
		<path class="st59" d="M566.8,224.6c-5.5-4.7-5.2-7.7,1.7-12.4C567.9,216.4,567.4,220.5,566.8,224.6z"/>
		<path class="st35" d="M848.2,420.8c-0.2-1.1-0.3-2.2-0.2-1.6c-2.5-1.5-3.9-2.7-5.5-3.1c-1.2-0.3-2.6,0.3-4.1,0.5
			c0-0.5,0-1.5,0-2.6c1.2-0.3,2.4-0.7,3.6-0.9C849.9,411.4,850.9,412.6,848.2,420.8z"/>
		<path class="st48" d="M187.8,141.9l-4.4,4.5l2.9,1.9l-5.1,0.7c-0.6-1.2-2-2.6-1.8-3.6c0.4-1.8,1.4-4.1,2.8-4.7
			C183.7,140.2,186,141.4,187.8,141.9z"/>
		<path class="st5" d="M294.9,78.6c-3.1-2.1-5.3-1.9-6.6,2.1c-0.3,0.8-2.1,1.1-3.3,1.6c1.3-3.3,2.6-6.7,4-9.9
			c0.2-0.5,2.2-0.8,2.4-0.5C292.7,74,293.8,76.3,294.9,78.6z"/>
		<path class="st56" d="M736.5,332.4c2.3-4.1,4.5-8.2,6.8-12.2c1.1,0.6,3.1,1,3.1,1.7c0.1,1.2-1.3,2.4-1.4,3.7
			c-0.1,1.6,0.7,3.2,0.9,4.8c0,0.9,0,1.8-0.1,2.6c-1-3.1-3.1-3-5.6-1.9C739,331.6,737.8,332,736.5,332.4z"/>
		<path class="st20" d="M791.9,389.3c2.7,1.4,6.2,2.3,8.1,4.5c3.5,4.2-1.2,4-3.5,5L791.9,389.3z"/>
		<path class="st7" d="M191.4,80.6l-1.5-4.9c3.1,1,8.3-3,10,3.4L191.4,80.6z"/>
		<path class="st52" d="M624.1,191.2c4.9,0.6,4.5,4.3,4.5,7.8l-7.8,0.6l2.1,0.5L624.1,191.2z"/>
		<path class="st15" d="M596.4,206.6c-1.9-0.9-5.4-1.8-5.5-2.8c0.1-2.6,1-5.1,2.5-7.2c0.6-0.9,3-0.5,4.6-0.8
			c-0.9,1.5-1.6,3.2-2.8,4.3C591.6,203.3,593,205.1,596.4,206.6z"/>
		<path class="st28" d="M705,328.8l-2,0.8l-0.8-1.1c1.3-1.6,2.3-4.3,3.8-4.6c5.4-1.1,7.1-5.5,9.7-9.3l0.7,1.2
			c-0.8,4.8-2.6,8.5-8.1,9.4C707.1,325.5,706.1,327.6,705,328.8z"/>
		<path class="st11" d="M158.3,91.2c-0.4-0.5-0.8-1.5-1.2-1.5c-4.8,0-3.5-1.9-1.3-4c1.1,0.8,2,2.1,3.2,2.4c1.2,0.3,2.4-0.7,3.6-0.8
			c1.4,0.1,2.8,0.3,4.2,0.6c-1.2,1.1-2.3,2.7-3.7,3.3S159.9,91.2,158.3,91.2z"/>
		<path class="st29" d="M303,278.5c2.2,2.6,1,4-1.7,4.8c-2.1,0.6-4.3,0.6-6.4-0.1l8.4-7.5L303,278.5z"/>
		<path class="st8" d="M628.7,419.1l8.8,2.6c-2.4,0.9-4.7,2.2-7.1,2.6c-1.1,0.2-2.6-1.4-3.6-2.5
			C626.7,421.7,628.1,420.1,628.7,419.1z"/>
		<path class="st33" d="M198.1,43.5c-2,0.2-4.4,0.9-6.1,0.3c-1.2-0.5-1.7-2.9-2.5-4.5C194.3,36.8,196.8,38.9,198.1,43.5z"/>
		<path class="st7" d="M558.7,85.1l-6.9,8.1l-4.1-0.5c0.7-3.4,1.2-6.8,5.5-7.5C555,85.1,556.9,85.1,558.7,85.1z"/>
		<path class="st2" d="M180.4,40.8c-0.6,1.6-0.9,3.4-1.9,4.7c-0.5,0.6-2.5,0.8-3.4,0.4c-1.1-0.7-1.8-1.8-2.1-3.1
			c-0.3-1.6-0.5-3.1-0.5-4.7l2-1C174.3,41.8,178,40.3,180.4,40.8z"/>
		<path class="st9" d="M374.6,84.4c1.2-2.2,2-5.4,3.9-6.4c1.6-0.9,4.6,0.7,7,1.2L374.6,84.4z"/>
		<path class="st13" d="M549.7,200.3c2.2-0.5,4.3-0.9,6.5-1.1c0.9,0,1.8,1,2.7,1.5c-0.7,1.1-1.2,2.6-2.2,3.1c-1.5,0.8-3.3,0.9-5,1.3
			L549.7,200.3z"/>
		<path class="st19" d="M596,148.8l-3.5,3.3l-5.1-0.1c0.3-1.8,0.5-3.5,0.5-5.3c0-1.1-0.8-2.2-1.3-3.4l4.6,0.1
			c-0.2,1.6-0.4,3.3-0.6,5.1L596,148.8z"/>
		<path class="st15" d="M589.3,210.8c2.4,0.7,4.8,1.3,7.2,2.2c0.8,0.3,1.4,1.1,2.1,1.7l-7.1,4.2l-1.9-5.8L589.3,210.8z"/>
		<path class="st47" d="M405.3,113l-4.1-0.6l13.4-6.3C412.7,110.1,409.9,112.8,405.3,113z"/>
		<path class="st5" d="M330.7,105.6l-3.2-0.5l6-4c1.7-0.5,3.3-0.9,5-1.2c0.7-0.1,1.5,0.8,2.3,1.2c-0.5,0.7-0.9,1.8-1.6,2.1
			C336.4,104.1,333.5,104.9,330.7,105.6z"/>
		<path class="st21" d="M450.7,126.6l5.6,1.4l2.9-0.9c-0.1,0.5-0.1,0.9-0.2,1.3l-1.4,2.3l-9,1.8l-0.1-0.1
			C449.2,130.6,453.4,129.9,450.7,126.6z"/>
		<path class="st23" d="M374.6,84.4l10.8-5.2l1,0.4c-1,1.3-2.2,2.5-3.5,3.6c-2.1,1.3-4.3,2.5-6.5,3.6L374.6,84.4z"/>
		<path class="st40" d="M448.6,132.6l9-1.8l1.4,1c-0.4,1-0.8,2-1.2,3.1c-1.2,0.5-2.4,1-3.6,1.6c-0.7,0.4-1.4,0.8-2,1.3
			c-0.1-0.8,0.1-1.8-0.3-2.2C450.9,134.5,449.8,133.5,448.6,132.6z"/>
		<path class="st57" d="M924.5,405.1l2.5,11.3c-2.7-2.9-4.7-4.9-6.5-7c-0.3-0.3,0.1-1.1,0.2-1.7L924.5,405.1z"/>
		<path class="st0" d="M527.9,164.1c-0.4,0.5-0.7,1-1,1.5c-0.9,1.6-1.7,3.3-2.5,4.9c-0.4-0.2-1.1-0.5-1.1-0.6c0.3-2.3,0.6-4.7,1.1-7
			c0.4-1.2,0.8-2.4,1.3-3.5C526.3,161,527.1,162.6,527.9,164.1z"/>
		<path class="st39" d="M751.9,448.5c-0.2-1.8-0.4-3.5-0.6-5.3h4.7c1.8,3.8,3.5,7.5,5.3,11.3l-0.6,0.4c-1-2.1-1.8-4.3-3-6.3
			c-0.8-1.1-1.8-2.1-2.9-3L751.9,448.5z"/>
		<path class="st38" d="M705.8,144.6c-0.2-2.5-2.1-6.1,2.9-5.6c1.3,0.1,2.5,1.9,3.7,2.9l-4.7,1.9L705.8,144.6z"/>
		<path class="st23" d="M658.4,160.2L652,159c0.2-0.6,0.6-1.1,1-1.5c1.3-1,2.7-1.9,4.1-2.9L658.4,160.2z"/>
		<path class="st14" d="M437,198.4l0.8-3.7c1.2-0.3,2.5-0.8,3.6-0.7c1.3,0.4,2.5,0.9,3.6,1.6c-1.1,0.9-2,2.2-3.2,2.6
			C440.3,198.7,438.6,198.4,437,198.4z"/>
		<path class="st48" d="M303.7,164.6c-2.8,1.2-5.9,2.3-3,6.3l-1.2,0.7l-3.3-6.9L303.7,164.6z"/>
		<path class="st3" d="M632.3,173.3c0.5,0.9,1.4,1.7,1.4,2.6c-0.1,1.2-0.4,2.3-0.8,3.4c-0.8-0.6-1.4-1.4-2-2.1
			c-1.3-2.4-2.4-4.9-3.7-7.3L632.3,173.3z"/>
		<path class="st19" d="M259.1,110.1c-2.3,0.9-4.6,2.4-7,2.6c-1,0.1-2.2-2.3-3.3-3.5L259.1,110.1z"/>
		<path class="st60" d="M99.6,309c-0.6,2.2-1.3,4.4-1.9,6.6l-5-2.3L99.6,309z"/>
		<path class="st22" d="M347.1,140.4c-4.8-0.6-6.5-3.2-5.6-8.2L347.1,140.4z"/>
		<path class="st48" d="M783.7,259.8c-3.2,1.1-5.8,2.5-3.5,6.6l-4.1-7L783.7,259.8z"/>
		<path class="st34" d="M387.4,287l3.2,4l-5.8,3L387.4,287z"/>
		<path class="st23" d="M259.6,153.9c1.8-2.1,3.1-5.5,6.8-1.9c0.7,0.6,3.3-0.8,5-1.2C268.5,155.6,263.7,153.3,259.6,153.9z"/>
		<path class="st61" d="M651.1,387.1l4.7,4.5l0,0l-6,1.2c-0.3-1.2-0.6-2.5-0.9-3.7L651.1,387.1z"/>
		<path class="st19" d="M174.5,37.2l-2,1c-0.6-1-1.7-2-1.6-2.9c0.1-0.9,1.4-1.6,2.3-2.2c1.3-0.8,2.7-1.4,4.1-2.1L174.5,37.2z"/>
		<path class="st6" d="M822.8,265.5c-3.5-1.4-5.5-3.2-1.2-6.1C827,260.5,823.5,263.3,822.8,265.5z"/>
		<path class="st5" d="M796,137.3c-0.9-0.6-1.8-1.3-2.6-2c-0.8-0.9-1.6-1.9-2.3-2.9c0.8,0.7,1.8,1.3,2.8,1.8
			c0.5,0.2,1.7-0.3,1.8-0.7c0.1-1.2,0.1-2.5-0.1-3.7l2.9,2.2C797.6,133.8,796.8,135.5,796,137.3z"/>
		<path class="st7" d="M220.2,46.4c-1.7-3.3-6.8-5.8-2.4-10.5C218.6,39.4,219.4,42.9,220.2,46.4z"/>
		<path class="st43" d="M635.5,268.6c-0.7,3.5,1.8,4.5,4.2,5.5l-4.6,2.9c-0.3-1.5-0.4-3-0.5-4.5
			C634.8,271.2,635.1,269.9,635.5,268.6z"/>
		<path class="st9" d="M739.7,105.6c-2.8-2.4-7.5-3.5-5.9-8.8C735.8,99.7,737.8,102.7,739.7,105.6z"/>
		<path class="st5" d="M179.4,5.1L173,3.9c0.2-0.3,0.4-0.6,0.6-0.9c1.4-1,2.8-2,4.3-3C178.4,1.7,178.9,3.4,179.4,5.1z"/>
		<path class="st26" d="M587.4,152l5.1,0.1c-0.9,3.4-2.6,5.3-6.4,3.9C586.6,154.7,587,153.3,587.4,152z"/>
		<path class="st34" d="M657.6,296.4c-0.2,1.2-0.4,2.4-0.9,3.5c-0.2,0.4-1.3,0.3-2,0.5l-0.8-4.8L657.6,296.4z"/>
		<path class="st27" d="M571,169.7c1.4,0.1,2.7,0.2,4.1,0.1c1-0.2,2-0.5,3-0.9c-0.8,0.9-1.5,1.7-2.3,2.6c-0.5,0.5-1.1,1-1.6,1.5
			c-1-0.3-2-0.7-3-1c-0.6-0.2-1.2-0.5-1.9-0.7L571,169.7z"/>
		<path class="st37" d="M279.6,33.5l2.3-0.8c-0.2,0.6-0.4,1.3-0.5,2c-0.1,1.9-0.2,3.7-0.3,5.6l-1.4,0.6l-2.3-3.1
			c0.2-0.9,0.3-1.8,0.5-2.7L279.6,33.5z"/>
		<path class="st2" d="M825.1,151.8l-7.4,0.9l2.8-5.4L825.1,151.8z"/>
		<path class="st38" d="M260.6,189.7c-0.5-1.7-0.9-3.3-1.4-5l4-1.2c-0.5,1.3-1.1,2.6-1.6,3.9L260.6,189.7z"/>
		<path class="st14" d="M46.2,132.8c-0.8-0.8-1.4-1.7-2-2.6c-0.3-1.1-0.5-2.2-0.6-3.3l3.3,2.2L46.2,132.8z"/>
		<path class="st36" d="M505.9,39.4c0.2,1,0.4,2,0.6,3c-4,3.2-5-0.2-6.3-2.9L505.9,39.4z"/>
		<path class="st36" d="M516.7,37.7l-2.2-6.4C517.6,32.6,518.8,34.6,516.7,37.7z"/>
		<path class="st18" d="M655.2,206.4c0.2-1.6,0.4-3.2,0.7-4.8c0.1-0.6,0.7-1.1,1.1-1.6l3,2.6L655.2,206.4z"/>
		<path class="st33" d="M799,145.8c-1.1,0.3-2.1,0.6-3.2,0.9s-2,0.3-2.9,0.5c0-0.5-0.3-1.3-0.1-1.4c0.9-0.6,1.9-1,3-1.4
			c0.8-0.1,1.7-0.1,2.5,0L799,145.8z"/>
		<path class="st10" d="M155.8,84l-3.8-0.5l4.6-6.5C156.3,79.3,156.1,81.6,155.8,84z"/>
		<path class="st36" d="M508.2,42.5l7.9-4.5c0.1,0.2,0.2,0.4,0.3,0.6c-2,1.6-4,3.3-6.1,4.7C509.9,43.6,508.9,42.8,508.2,42.5z"/>
		<path class="st4" d="M649.7,392.8l6-1.2c-0.1,0.9-0.2,1.8-0.3,2.7L649.7,392.8z"/>
		<path class="st34" d="M427.2,149.1l-6.5,3.8L427.2,149.1z"/>
		<path class="st27" d="M574.2,173.1c2.9-0.6,5.8-1.3,8.7-1.8c0.3,0,0.7,0.9,1,1.4L574.2,173.1z"/>
		<path class="st26" d="M349.5,248.4l-4.9-8.7L349.5,248.4z"/>
		<path class="st39" d="M589.6,213.1l1.9,5.8c-1.5-1.5-2.9-3-4.3-4.5l1.7-1L589.6,213.1z"/>
		<path class="st2" d="M826.2,290.4l-6-2.1l6.5-3.7c0.3,0.8,1,1.7,0.9,2.4C827.2,288.1,826.8,289.3,826.2,290.4z"/>
		<path class="st32" d="M594.7,363.9c-1-4.1-0.8-4.3,2.9-4.6c0.6,0,1-1.2,1.6-1.7c1.9-1.6,3.8-3.2,5.8-4.6c0.2-0.1,0.8,0.3,1.2,0.4
			c-0.2,0.7-0.6,1.3-1,1.8C601.8,358.2,598.3,361,594.7,363.9L594.7,363.9z"/>
		<path class="st16" d="M288.8,104.6c-2.8,0.6-5.7,1.9-8.4,1.5c-1.3-0.2-2.1-3.6-3.1-5.5c1.8-0.2,3.8-1,5.3-0.4
			C284.9,101.3,286.8,103.1,288.8,104.6L288.8,104.6z"/>
		<path class="st25" d="M72.1,185.5l-6.3,1.1l-0.3-1.5l6.4-1.3L72.1,185.5z"/>
		<path class="st62" d="M327.3,162c-0.8-0.4-1.5-0.8-2.2-1.4c-0.8-0.9-1.5-1.9-2-3.1c-0.1-0.4,1-1.7,1.1-1.6c1,0.6,2,1.2,3,2
			c0.5,0.5,1,1.1,1.4,1.7C328.1,160.4,327.7,161.2,327.3,162z"/>
		<path class="st14" d="M338.1,171l-5.4-0.1c0-0.5,0-1.1,0.1-1.6c1.8-0.1,3.5-0.2,5.3-0.2C338.1,169.8,338.1,170.4,338.1,171z"/>
		<path class="st15" d="M273.6,43.8l2.1-4.4c4.4,2.5,1.3,3.9-0.8,5.4L273.6,43.8z"/>
		<path class="st56" d="M274.9,44.8c2.1-1.5,5.2-2.9,0.8-5.4l1.7-1.6l2.3,3.1C282,47,276.5,43.4,274.9,44.8z"/>
		<path class="st5" d="M781.5,133.8l12.5,3.1c0,0.6,0,1.2,0.1,1.8c-2.6,1.2-5.7,3.9-7.8,3.3C784.3,141.4,783.4,137.3,781.5,133.8z"
			/>
		<path class="st0" d="M681.6,301.7l-4.7,2.2l-0.8-1c0.2-0.3,0.4-0.6,0.7-0.8c1.1-0.9,2.3-1.7,3.4-2.6c-1.9,0-3.7-0.2-5.6,0
			c-1,0.2-2,0.5-3,1c-0.2-1-0.7-2.5-0.4-2.8c1-0.7,2.2-1.1,3.5-1C677.9,297.1,682.9,295.4,681.6,301.7L681.6,301.7z"/>
		<path class="st26" d="M333.9,229.1l-5.1,6.8l-1.7-1.7L333.9,229.1L333.9,229.1z"/>
		<path class="st61" d="M730.5,123.2c2-0.8,4.1-2.5,5.8-2.2c1.4,0.2,2.3,2.9,3.5,4.5c0.1,0.4,0.4,0.8,0.3,1.1
			c-0.7,2.8-1.5,5.6-2.3,8.3c-1.4-1.8-2.9-3.6-4.3-5.4c-0.5-0.7-1.2-1.3-1.7-1.9C730.2,126.4,726.8,125.8,730.5,123.2z"/>
		<path class="st27" d="M554.9,231l9.8-2.1c-0.6,1-1.2,2.8-1.8,2.8C560.2,231.6,557.6,231.4,554.9,231z"/>
	</g>
</g>
</svg>
