<svg id="Layer_1" data-name="Layer 1" xmlns="http://www.w3.org/2000/svg" viewBox="0 0 417.95 343.88"><defs><style>.cls-1{fill:#d9d9d9;}.cls-2{fill:#6e6e6e;}.cls-3{fill:#e9e9e9;}.cls-4{fill:#ececec;}.cls-5{fill:#f0f0f0;}.cls-6{fill:#cecece;}.cls-7{fill:#dcdcdc;}.cls-8{fill:#dadada;}.cls-9{fill:#e2e2e2;}.cls-10{fill:#dfdfdf;}.cls-11{fill:#eaeaea;}.cls-12{fill:#d3d3d3;}.cls-13{fill:#dbdbdb;}.cls-14{fill:#e4e4e4;}.cls-15{fill:#ededed;}.cls-16{fill:#cfcfcf;}.cls-17{fill:#dedede;}.cls-18{fill:#c2c2c2;}.cls-19{fill:#7c7c7c;}.cls-20{fill:#e6e6e6;}.cls-21{fill:#c9c9c9;}.cls-22{fill:#d1d1d1;}.cls-23{fill:#c5c5c5;}.cls-24{fill:#d4d4d4;}.cls-25{fill:#b6b6b6;}.cls-26{fill:#bcbcbc;}.cls-27{fill:#bababa;}.cls-28{fill:#909090;}.cls-29{fill:#b8b8b8;}.cls-30{fill:#cbcbcb;}.cls-31{fill:#a8a8a8;}.cls-32{fill:#ccc;}.cls-33{fill:#e7e7e7;}.cls-34{fill:#b2b2b2;}.cls-35{fill:#cacaca;}.cls-36{fill:#efefef;}.cls-37{fill:#e1e1e1;}.cls-38{fill:#a0a0a0;}.cls-39{fill:#aaa;}.cls-40{fill:#9e9e9e;}.cls-41{fill:#e3e3e3;}.cls-42{fill:#ddd;}.cls-43{fill:#f1f1f1;}.cls-44{fill:#cdcdcd;}.cls-45{fill:silver;}.cls-46{fill:#ebebeb;}.cls-47{fill:#bebebe;}.cls-48{fill:#a4a4a4;}.cls-49{fill:#b1b1b1;}.cls-50{fill:#d6d6d6;}.cls-51{fill:#b3b3b3;}.cls-52{fill:#bdbdbd;}.cls-53{fill:#ababab;}.cls-54{fill:#d5d5d5;}.cls-55{fill:#989898;}.cls-56{fill:#b9b9b9;}.cls-57{fill:#c3c3c3;}.cls-58{fill:#d7d7d7;}.cls-59{fill:#d0d0d0;}.cls-60{fill:#d8d8d8;}.cls-61{fill:#979797;}.cls-62{fill:#c1c1c1;}.cls-63{fill:#a2a2a2;}.cls-64{fill:#aeaeae;}.cls-65{fill:#9b9b9b;}.cls-66{fill:#8d8d8d;}.cls-67{fill:#9d9d9d;}.cls-68{fill:#868686;}.cls-69{fill:#919191;}.cls-70{fill:#c8c8c8;}.cls-71{fill:#969696;}.cls-72{fill:#8f8f8f;}.cls-73{fill:#a9a9a9;}.cls-74{fill:#acacac;}.cls-75{fill:#b7b7b7;}.cls-76{fill:#c7c7c7;}.cls-77{fill:#9f9f9f;}</style></defs><title>mountainsLeft</title><g id="Layer_2" data-name="Layer 2"><g id="Layer_1-2" data-name="Layer 1-2"><path class="cls-1" d="M211.08,343.88c.23-1.85.47-3.69.7-5.54l4.3,5.54Z"/><path class="cls-2" d="M54.08,160.88c-5.39,2.74-10.71,5.65-16.23,8.14-2.39,1.08-5.19,1.28-7.8,1.88,1.46-1.64,2.65-3.7,4.43-4.83,10.24-6.48,20.61-12.73,30.94-19.07l22.66-16.12c8.37-4.06,16.83-8,25.11-12.23,8.66-4.45,17.5-6.61,27.38-5.27,3.83.52,8.27-.63,11.91-2.21,10.83-4.7,21.38-10.06,32.1-15a120,120,0,0,1,28-8.87c12.36-2.4,25.9-5.9,33.67-18.25,1.55.47,3.42.54,4.6,1.47,7.42,5.89,14.55,12.14,22.1,17.85a8,8,0,0,0,6.89,1c5.55-2.42,10.67-5.79,16.1-8.51a5.07,5.07,0,0,1,4.32.17,68.76,68.76,0,0,0,25.41,10.71c5.43,1.13,10,6.11,15,9.36,6.74,4.78,12.27,13.52,22.5,6.86,10-3.36,19.08-7.79,25.81-16.73C396,82,404.14,73.53,412,65c.74-.81,3.79-.47,5.09.38,10.53,6.93,20.74,14.37,31.44,21,2.38,1.47,6.52,1.19,9.48.38,3.95-1.07,7.66-3.24,11.25-5.32A25.84,25.84,0,0,1,486,78.19c3.46.38,8-1.3,10.74-3.6,6.24-5.2,11.6-11.44,17.54-17,1-.9,3-.68,4.6-.87s4,.38,4.89-.51Q551.91,29,579.68,1.42C582.74-1.64,583.61,1,585,2.5c11.14,12.6,22.87,24.74,33.1,38s19.34,27.73,28.4,42c3.12,4.92,7.06,5.07,11.84,5.17,3.12.06,6.61.4,9.25,1.87,8.85,4.93,17.37,10.47,26.1,15.66,1.34.8,3.28,1.69,4.58,1.3,12-3.51,22.25,1.57,32.45,6.37,5.57,2.61,10.83,3.74,16.79,1.72a5.84,5.84,0,0,1,4.76,1.08c11.41,9.6,22.67,19.39,34,29.12l-3.14,3.09-10-3.78-6-5.22-12-10.5c-6-5.33-13.43-5.59-20.13-.63l-12.87,8.19L716,142.8l-9.93,7.08-9,4,9.87-8.21L713.2,140c1.36-1.63,2.76-3.23,4.09-4.89,2.56-3.18,4.81-6.67,7.7-9.5,2-2,4.88-3,7.37-4.53-2.66-1.87-5.31-3.74-8-5.59a8.6,8.6,0,0,0-1.34-.63c-4.47-1.79-9.61-6-13.28-5-12.65,3.57-23,1.6-32-8a8.14,8.14,0,0,0-1.66-1c-6.34-5.8-12.2-12-22.45-8.42-4.6,1.6-9.63.45-11.44-5.7-.44-1.48-1.93-2.64-2.93-4l-9.18-13.88-4-7h0L615,48l-.88-1.08c-3.12-2.27-6.28-4.5-9.36-6.83-7-5.31-13.8-10.88-21-15.83-1.78-1.22-5.2-1.29-7.33-.48-4.89,1.85-9.28,5.59-14.92,1.93-.3-.19-2.53,1.61-2.91,2.79s.3,2.91.53,4.38l-3,2-13,10L534.16,53q-3.13,3.88-6.28,7.75c-7.19,3.93-14.36,7.92-21.59,11.78-6,3.22-12.14,6.29-18.22,9.43-10.28-2.54-17.76,2.89-25.08,8.8l-10,6.1-30.15,20.87L412,129.88c-1.72.53-3.49,1-5.17,1.62-6,2.4-12,4.87-18,7.32L378,146.65l-3,.62,0-1.46c2.28-1.61,4.65-3.11,6.81-4.87,5.84-4.78,10.88-11,19.13-11.64,8.63-.68,13-6.29,16.31-13.3,3.65-3.08,7.11-6.43,11-9.19C433.68,103,439.36,99.49,445,96c2.82-1.77,3.09-3.29-.1-4.86l-10.67-5.3L427.08,82,425,81a39.4,39.4,0,0,1-5.92-3.39c-3.41-2.76-6-2.88-9.15.7a170,170,0,0,1-15.69,15.84c-5,4.34-10.68,7.87-16.07,11.75l-10.09,4c-6.64,1.55-13,7.89-20.11,1.16l-7.83-5.28-11-8-9.06-1.88-7.85-3.18L301.08,90c-5.84-2.46-8.91,3.23-13.46,4.56-6.11,1.79-5.85,4.66-1.51,8.31l2,2L303.83,119l-1.77,1-3-2.2L294,113l-11-7-5.78-4.21L254.08,87.94c-2.61-3.31-5.64-3.39-9.71-2.53-11.48,2.41-23.13,3.93-34.65,6.14-4.67.9-9.17,2.67-13.74,4l-36.2,21.14L149.2,123l-5.33,3.65-29.73,20.2-7,2,18.94-16.24,10-8.85-.76-1.47-10.41,1.38L84.08,142.82l-24.2,14.92Z"/><path class="cls-3" d="M332.08,267.88c-5.09.57-8.73,7.85-7,14-3.54-2-5-.83-5,3.08a39.69,39.69,0,0,1-1,5.93c-4.42-3.5-8.94-6.88-13.21-10.55-3.2-2.74-8.2-5.62-8.55-8.86-.44-4.11-2-4.59-4.81-5.18s-5.77-1.13-8.68-1.55a12.6,12.6,0,0,0-.74,2c-.35.92-.75,1.82-1.13,2.73a10.6,10.6,0,0,1-2.78-1.81c-1.73-2.23-2.88-5-4.89-6.9-2.19-2.06-5.15-4.8-7.67-4.68-4.71.21-5.47.87-4.79-4.51.76-6-6.11-2.83-5.77-5,.69-4.31-.53-6.24-4.43-7.32-5.86-1.63-8.24,1.06-8.54,6.56-1.28-3.86-3.18-6.88-8-6l1-6c1.18,1.55,2.42,4.42,3.54,4.38,2.79-.11,5.53-1.54,8.29-2.45l-5.84-3.8c.26-.8.9-2.2.73-2.31-5.76-3.6-3.77-5.84,1.22-7.7.41-.15.68-.7,1-1.06.87-.61,1.79-1.15,2.59-1.84s1.49-2.24,2.22-2.23c9.57,0,9.78-.21,6.11-8.47a2.73,2.73,0,0,1,.09-1.46c.87-.42,2.13-1.46,2.53-1.19,4,2.68,7.88,5.56,11.76,8.43,1.21.89,2.32,1.92,3.47,2.89.82-1.48,2.26-2.95,2.28-4.44,0-1.31-1.43-2.73-2.43-3.94a13.69,13.69,0,0,0-2.51-1.9c1.09-.3,2.26-1,3.26-.85,3.47.66,6.9,1.56,10.3,2.51,5.13,1.44,10.23,3,15.34,4.49-3.35,2.31-4.2,4.71-.74,7.81,3.93,3.52,2.6,6.77-1.15,9.38-2.82,2-6,3.49-8.73,5.53a5.22,5.22,0,0,0-2.13,3.73c.11,1.4,1.54,2.69,2.39,4a27.46,27.46,0,0,1,2.4-3.27c1.94-2,3.8-4.25,6.13-5.68,1.57-1,4.61-1.65,5.72-.8,2.52,1.92,1.54,3.8-1.12,5.72-1.21.87-.76,4-1.07,6.16A42.73,42.73,0,0,0,305.9,243a33.14,33.14,0,0,0,3.18-3.09c3.52,1.44,6.95,3.2,10.58,4.25,7.71,2.24,12.67-2.18,12-10.19-.11-1.33.55-2.71.86-4.07,4.35,2.15,6.23-.9,9-3.51,2.1-2,5.7-2.49,8.69-3.46.53-.17,1.32.72,2.05.89,1.93.43,3.89.73,5.84,1.09-.78,1.45-2,2.84-2.24,4.38s.4,3.22.66,4.85a19.44,19.44,0,0,0,3.49-2.84,53.08,53.08,0,0,0,3.42-5.58l-5.35-.81c1.12-1.43,2.05-3.1,3.44-4.2a4.67,4.67,0,0,1,3.58-.49c.53.13.64,1.76,1,2.68,1.2,2.83,1.73,6.92,3.87,8.14,2.36,1.35,6.23.05,10.54-.14l2.54,3c-1.82.61-4,.77-5.38,1.92-2.76,2.35-10.57-4.78-9.31,5,.08.62-1.68,2.21-2.35,2.08-2.84-.54-6.12-.88-8.27-2.55-3.6-2.81-7.58-4-8.69-1.42-.12,2.11-.08,4.24-.39,6.32-.79,5.24-1.73,10.46-2.61,15.68l-1-1c-2.2,1.51-4.34,3.12-6.6,4.52C336.41,265.69,334.21,266.74,332.08,267.88Zm-68-32.37c-.17-.53-.18-1-.39-1.11-3-1.56-6.08-3.09-9.16-4.55-.12-.06-.58.6-.88.93,2.18,1.89,4.3,3.85,6.58,5.61a3.39,3.39,0,0,0,2.37.1,3.48,3.48,0,0,0,1.48-1Z"/><path class="cls-4" d="M59.88,157.74l24.2-14.92c2.25-.25,4.49-.66,6.75-.72,2-.06,2.06.33.91,2.31-.25.43,0,1.17,0,1.75q1.67,10.36,3.34,20.72l-7,8a23.45,23.45,0,0,0-4.61,1.65c-6.38,3.92-9.58,3.59-14.93-1.61a12.35,12.35,0,0,0-4-2.74c-7-2.58-7.31-2.67-3.09-9.37C63.26,159.88,62.52,158.79,59.88,157.74Zm31.42,1.14c-1.75-.54-3.32-1.51-3.84-1.11-4.24,3.26-5.57.68-7.24-2.83-.4-.85-4.84-.92-4.94-.59-1.43,4.68-7.1,8.39-3.59,14.31.26.44-.44,1.38-.57,2.12-.2,1.18-.31,2.37-.46,3.56,1.85.22,4,1.15,5.46.49a25.42,25.42,0,0,0,8.07-5.48C86.79,166.57,88.58,163,91.3,158.88Z"/><path class="cls-5" d="M138.08,136.88l-1,2c-5.66,8.35-13.84,9.47-22.92,8l29.73-20.19c1,.62,1.89,1.55,3,1.79,1.6.35,4,1,4.85.16,3.6-3.5-1.06-3.94-2.47-5.6l10.58-6.34a30.11,30.11,0,0,0,2.6,4,3.43,3.43,0,0,0,2.58,1.16c2.74-.47,5.42-1.28,8.12-2-5.72,4.23-11.51,8.37-17.13,12.73-4.51,3.5-9.14,4.78-14.62,2.42C140.64,134.74,139.18,136.22,138.08,136.88Z"/><path class="cls-6" d="M219.08,274.88l4.17,8.06c.3,1,.59,1.93.88,2.9-.5.28-1.38.89-1.46.8-3.57-4.13-4.31-.72-5.35,2s-2.15,5.46-3.23,8.19l-4-3a40,40,0,0,0-.35-4.37c-.31-1.69-.5-4.54-1.36-4.79-2.61-.79-5.52-.56-8.31-.72h-5c.06-2.3.28-4.6.14-6.89a19.58,19.58,0,0,0-1.13-4.18l6-2.05c.71,1.68,1,3.78,2.22,4.93a13.3,13.3,0,0,0,6,3.35c3.36.72,5.87-5.34,9.93-1.6Z"/><path class="cls-7" d="M194.08,272.88a19.15,19.15,0,0,1,1.14,4.06c.14,2.29-.08,4.59-.14,6.89l-7.09-2c-2.82-3.27-5.58-3.49-8.5,0-.34.4-1.62,0-2.47,0,.12-2.38.17-4.77.38-7.15.13-1.57-.06-4,.83-4.53,4.78-3,9.84-5.6,14.81-8.34v4C192.63,268.35,188.47,271.35,194.08,272.88Z"/><path class="cls-8" d="M200.08,283.88c2.79.16,5.7-.07,8.31.72.86.25,1.05,3.1,1.36,4.79a40,40,0,0,1,.35,4.37l-2,4.12-10,5h0c-1.07-.21-2.4-.91-3.15-.51s-1.2,1.87-1.77,2.87c-.78-1.16-1.94-2.22-2.26-3.49a51.11,51.11,0,0,1-.82-6.87c0-5,4.17-3.86,6.88-4.5s5.31-.46,8-.65Z"/><path class="cls-9" d="M200.08,283.88l4.84,5.88c-2.67.19-5.41.05-8,.65s-6.84-.53-6.84,4.47l-2.27-2.57c-.25,1.19-.49,2.38-.74,3.57l-6,1,7-15,7.09,2Z"/><path class="cls-10" d="M180.08,307.88l-8,3c-.33-1.34-.67-2.67-1-4-1.66-4,.3-5.79,3.95-6.81a35.4,35.4,0,0,0,5-2.22c2.64,1.73,1.89,8.93,8.06,5l1.53,5.35a29.13,29.13,0,0,0-4.26-.71A51.66,51.66,0,0,0,180.08,307.88Z"/><path class="cls-8" d="M212.08,312.88l-6.53,6.54c-4.45-3-5.72-8.41-5.45-14.57l9.89,4.94Z"/><path class="cls-1" d="M214.08,296.76c1.08-2.73,2.17-5.45,3.23-8.19s1.78-6.09,5.35-2c.08.09,1-.52,1.46-.8,0,2.68-.09,5.36-.13,8l-3.91,4.11Z"/><path class="cls-11" d="M231.53,324.76c-2,1.75-3.69,3.33-3.75,3.28a63.66,63.66,0,0,1-6.57-7.45c-.17-.23,2.07-2.21,3.2-3.37Z"/><path class="cls-11" d="M220.08,297.88l3.95-4c1.17,5.56,2.37,11.12,3.46,16.7.12.63-.43,1.39-.67,2.09-.64-.41-1.65-.69-1.87-1.26C223.23,306.88,221.68,302.4,220.08,297.88Z"/><path class="cls-11" d="M142.16,313l-4.53-2.45c1.51-.67,3-1.36,4.53-2,.55-.24,1.18-.34,1.71-.62,1.26-.69,2.47-1.45,3.7-2.18.37,1.33,1.45,3.1,1,3.89-.79,1.28-2.57,2-4,2.77-.49.25-1.29-.08-1.95-.14Z"/><path class="cls-3" d="M284.79,303.39c4,4.27,8,8.52,12,12.85.43.47.25,1.47.35,2.23-.71-.15-1.7,0-2.09-.48-3.93-4.37-7.77-8.83-11.63-13.26Z"/><path class="cls-12" d="M187.08,295.88c.35,2.33.71,4.65,1.06,7-6.17,3.91-5.42-3.29-8.06-5l1-1Z"/><path class="cls-13" d="M177.08,265.88h-5l-3.07-4,2.07-3C175.4,259.22,178.21,260.88,177.08,265.88Z"/><path class="cls-14" d="M158.08,287.88q-.51-2.5-1-5c.66-.75,1.17-1.78,2-2.19a19.42,19.42,0,0,1,3.9-1c-.21,1.17-.1,2.56-.71,3.47A48.07,48.07,0,0,1,158.08,287.88Z"/><path class="cls-15" d="M175.08,291.3l-7.28-3.63c.72-.72,1.71-2.2,2.1-2.05,2.66,1,5.21,2.34,7.79,3.58Z"/><path class="cls-8" d="M181.26,315.73l-2.66,3.92c-.8-1.29-2-2.51-2.27-3.91-.19-.93.88-2.12,1.38-3.19Z"/><path class="cls-16" d="M213.13,305.07c-1.35-2-2.69-4.07-4-6.1C213,299.31,216.87,299.68,213.13,305.07Z"/><path class="cls-17" d="M172.56,277.65c-1.77,1.25-2.87,2.6-3.58,2.41-1.18-.3-2.11-1.59-3.14-2.46.77-.81,1.59-2.32,2.3-2.27C169.34,275.41,170.47,276.48,172.56,277.65Z"/><path class="cls-3" d="M171.08,306.88c.33,1.34.67,2.67,1,4-.8,1.23-1.4,2.71-2.48,3.6-.7.58-2.11.28-3.2.37.2-1,.13-2.16.65-2.94C168.24,310.14,169.72,308.55,171.08,306.88Z"/><path class="cls-10" d="M195.77,330.6l-2.2,2.78a30.64,30.64,0,0,1-2.2-4.63c-.14-.44,1-1.28,1.51-1.93Z"/><path class="cls-18" d="M210,309.82c.71-1,1.41-1.95,2.11-2.93l3,4.8-3,1.19Z"/><path class="cls-19" d="M0,187.21l12.08-8.28,10.52-5.05c-.91,1.28-1.52,3.1-2.76,3.74C13.31,181,6.63,184,0,187.21Z"/><path class="cls-20" d="M131.08,327.88a1,1,0,0,1,0,.49c-.93,1.93-1.88,3.86-2.83,5.79l-1.88-1.75Z"/><path class="cls-21" d="M254.08,87.94l23.1,13.84-2.1,6.16c.77.29,1.56.89,2.3.84,5.12-.37,6.05,4.55,9,7-2,1-4.11,1.92-6.12,3a4.66,4.66,0,0,0-1.9,1.56c-1,1.68-1.74,3.48-2.6,5.23l4.32-2.69c.39,1.91,1.66,4.2,1,5.67-2.83,6.46,1.28,3.92,4,3.33.45,1,.82,2.8,1.37,2.86a85.65,85.65,0,0,0,8.63.14c1.61,4-.9,9.82,5.07,12a77.89,77.89,0,0,1-.59,7.94c-.14.9-1.56,2.41-2.07,2.29-2.91-.7-5.72-1.81-9.53-3.11,2.31-.77,4.07-.93,5.16-1.87.85-.73,1.06-2.43,1.14-3.72,0-.33-2-1.32-2.34-1.06-3.72,2.74-7.29,5.68-9.54,7.47,1,2.63,1.89,4.81,2.75,7l-5,2-3-15c1.67-2.68,3.31-5.37,5-8a30.19,30.19,0,0,1,2.13-2.73c-1.16,0-2.32.06-3.48.06a22.34,22.34,0,0,1-4.17-.1c-4.88-1-8.13.31-8.51,5.84-3.56-6.25-9-9.8-16-11.08a17.58,17.58,0,0,1-.28-1.91c-.08-1.6-.1-3.19-.15-4.78.73,1,1.25,2.45,2.25,3,2.08,1.22,4.39,2.61,6.66,2.71,1.07,0,2.92-2.61,3.25-4.27.75-3.78,3.12-5.49,6.1-4,.7.35,2.39-.42,3.09-1.17a19.22,19.22,0,0,0,2.32-4,9.39,9.39,0,0,0-3-.66c-3.6.45-19.64-8.63-20.87-12a10.33,10.33,0,0,1-.34-2h0c1.59,1.34,3.27,3.91,4.76,3.8,5.36-.39,8.61,2.11,11.57,6,.54.73,3.41.86,3.9.24,1-1.25,1.22-3.19,1.35-4.88,0-.26-2.31-1.09-3.45-1-4.48.56-10.14-2.81-9.32-6.48,1.22-5.45-2-8.37-4.81-11.77Z"/><path class="cls-22" d="M417.3,116c-3.33,7-7.68,12.62-16.31,13.3-8.25.65-13.29,6.86-19.13,11.64-2.16,1.76-4.53,3.26-6.81,4.87L369,141.94l4.12-1.06,2-1c6.65-1.73,4.05-6.86,4.06-11a38.31,38.31,0,0,0,5.1,1.74,17.64,17.64,0,0,0,4.17-.13c-.41-1.31-.46-3-1.33-3.82a5.21,5.21,0,0,0-4-1.12c-1.44.27-2.69,1.53-4,2.36l3.93-15c10.12-1.73,17-8.59,22.87-16C409,93,409.45,87.06,411.1,82l2-1.15c1.27,1,2.42,2.27,3.85,2.87,4.26,1.8,5,4.9,2.51,8.91-3.36,5.45-6.95,10.57-9.42,16.82-2.76,7,1,5.61,4.32,6.35A16.26,16.26,0,0,0,417.3,116Z"/><path class="cls-13" d="M254.08,87.94l1,1.94A28.39,28.39,0,0,0,252,94.29c-.31.67.28,2,.87,2.76a9.38,9.38,0,0,0,2.63,1.62c-.73.77-1.49,1.5-2.17,2.3s-1.52,1.91-2.28,2.91h0c-2.32.06-4.86-.44-6.89.36-1.6.63-2.58,2.85-3.84,4.37,4.85,2.94,1.18,5.92.26,9.11-1.19,4.15-3.12,3-5.36,1.28a33.66,33.66,0,0,1-3-2.78c1.73,5,2,11.38,5,13.26,6.3,3.9,1.09,4.35-.84,5.64a66.61,66.61,0,0,1-7.33,3.76c.12-1.22.23-2.44.34-3.66l2,.06-4.34-3.4c1.13-1.08,2.27-2.15,3.3-3.32.05-.05-1.14-1.6-1.47-1.5a25.35,25.35,0,0,0-3.83,1.82l-4,1c-.67-2-1.33-4-2-6l25.52-32-44.52,8L196,95.55c4.57-1.37,9.07-3.14,13.74-4,11.52-2.21,23.17-3.73,34.65-6.14C248.44,84.55,251.47,84.63,254.08,87.94Z"/><path class="cls-10" d="M378,146.6l10.87-7.83c1.61-.12,3.46-.78,4.79-.22,2.06.85,5.38,2.66,5.29,3.85-.16,2.15-2.07,4.73-4,5.94-1.11.7-3.68-.93-6.07-1.66.5,1.76.86,3,1.21,4.23l1,4.9c.67,1.72,1.33,3.44,2,5.17-.63,1.5-.85,3.52-2,4.43-9.82,8-19.8,15.75-29.74,23.58l-6.88,1c1.59-2.17,3.16-4.35,4.77-6.5a3,3,0,0,1,.84-.61c-.07-1.39-.15-2.79-.22-4.18,5.62.46,6.21-4.45,8.3-7.77,4.15,4,7.66,4.41,10.13-1.71a11,11,0,0,1,1.79-2.34c6.11-1.43,4.35-4.22,1.24-7.22C377.51,156,372.76,152.57,378,146.6Z"/><path class="cls-6" d="M378,146.6c-5.24,6-.49,9.39,3.32,13.06,3.11,3,4.87,5.79-1.24,7.22a44.58,44.58,0,0,1-4.28-2.76A26.38,26.38,0,0,1,373,161c-.65,1.37-1.34,2.72-2,4.1-.39.88-.68,1.81-1,2.72-.72-2.19-.84-5.44-2.34-6.29s-5.19-.42-6.68.88c-1.26,1.11-.75,4.22-1,6.45-6.06-5.17-10-1-14.4,2.87-2.08,1.84-5.13,4.09-8.27.55-.55-.63-3-.42-3.91.27a50.9,50.9,0,0,0-6.66,6.47c-.17.2,1.31,2.64,1.82,2.57,8.2-1.13,9.57,2.41,6.55,9.17h-10a37.73,37.73,0,0,0,4.33-1,21.43,21.43,0,0,0,4.08-2c.1-.06-.52-2-.87-2a13.35,13.35,0,0,0-4.67.38c-1.21.37-2.27,2-3.31,2a9.75,9.75,0,0,1-4.05-1.93c1.77-4.3.21-10.33,6.61-12.29,3.38-1,1.86-2.73-.13-4l1-2.05h2c1.56-1.1,3.38-1.95,4.62-3.33,2.2-2.47,4.07-4.91,7.75-2.23.82.61,2.16.5,3.26.71-.53-1.05-1.06-2.11-1.6-3.16l20-5L366,155l9-7.74Z"/><path class="cls-23" d="M417.3,116a16,16,0,0,1-2.94-.11c-3.3-.74-7.08.65-4.32-6.35,2.47-6.25,6.06-11.37,9.42-16.82,2.47-4,1.75-7.11-2.51-8.91-1.43-.6-2.58-1.9-3.85-2.88L425,81l2.08,1a35.21,35.21,0,0,0-1.64,5c-.18,1,.34,2.22.54,3.34,2.46-1.15,8.84,6.06,7.41-3.48-.06-.34.54-.78.84-1.18L444.88,91c3.19,1.57,2.92,3.09.1,4.86-5.62,3.54-11.3,7-16.7,10.86C424.41,109.52,421,112.88,417.3,116Z"/><path class="cls-24" d="M393.08,161c-.67-1.73-1.33-3.45-2-5.17l4.64-3.65-5.64-1.28c-.35-1.24-.71-2.47-1.21-4.23,2.39.73,5,2.36,6.07,1.66,1.92-1.21,3.83-3.79,4-5.94.09-1.19-3.23-3-5.29-3.85-1.33-.56-3.18.1-4.79.22,6-2.45,12-4.92,18-7.32,1.68-.66,3.45-1.09,5.17-1.62,1,1,1.81,2.31,3,3,5.48,3.16,5.76,5.59.87,9.49l-5.82,4.59-6,8.08Z"/><path class="cls-25" d="M303.81,119l-15.73-14.12L291,102.8c9.32.91,15.49,7.87,23.09,12.07l-4.29,2,4.1,2.75,2.19-3.74c5.54.15,6.24-4,7-8l4,1.92.07.08c-.95,1.93-1.93,3.84-2.85,5.79-1.15,2.44-3.74,5.5-3,7.23,1.34,3.33-.05,4.47-2.15,5.94-6.39-2.51-11,.4-15,5-.67-2-1.33-4-2-5.89l1-5,8-.33Z"/><path class="cls-14" d="M196,95.59l4.1,4.29-27,20c-2.7.69-5.38,1.5-8.12,2a3.43,3.43,0,0,1-2.58-1.16,30.11,30.11,0,0,1-2.6-4Z"/><path class="cls-26" d="M280.08,122.88l-4.39,2.62c.86-1.75,1.62-3.55,2.6-5.23a4.66,4.66,0,0,1,1.9-1.56c2-1,4.08-2,6.12-3-2.91-2.41-3.84-7.33-9-7a7.66,7.66,0,0,1-2.3-.84l7.91-2,11,7c-2.94,3.2-2.34,10.73,1.1,13.91-.33,2-.67,4-1,6l1,2a84.92,84.92,0,0,1-8.59-.17c-.55-.06-.92-1.86-1.37-2.86,1.15-1.06,3.4-2.38,3.23-3.15a25.9,25.9,0,0,0-3.39-7.75C284.76,120.72,281.76,122.2,280.08,122.88Z"/><path class="cls-16" d="M425,81l-11.9-.14-2,1.09-26,28.81-5-2.9-1.88-2c5.39-3.88,11.08-7.41,16.07-11.75A170,170,0,0,0,410,78.29c3.16-3.58,5.74-3.46,9.15-.7A40.53,40.53,0,0,0,425,81Z"/><path class="cls-27" d="M348,111c7.11,6.73,13.47.39,20.11-1.16a9.07,9.07,0,0,1-.65,3c-2.74,4.07-5.63,8-8.47,12l-4.88-1c-4.74-4.51-9.56-4.12-12,1h-1l-3-5.89c4-1.52,4.78-4.29,3-8Z"/><path class="cls-28" d="M359,124.88c2.84-4,5.73-8,8.47-12,.52-.78.45-2,.65-3l10.08-4,1.88,2c-.67,2.16-1,4.57-2.09,6.46-4,6.7-10.77,9.49-17.88,11.59Z"/><path class="cls-29" d="M286.08,102.88c-4.34-3.65-4.6-6.52,1.51-8.31,4.55-1.33,7.62-7,13.46-4.56,1.64,5.6,3.91,6.43,8,2.94.26,6.36,1.72,7.57,6,5,0,.89.28,2.25-.19,2.62-5.55,4.39-12.38,2.93-15.94-3.12-.46-.79-1.88-1-2.86-1.49Z"/><path class="cls-30" d="M425.08,133.88h2l-14,14-3-1,5.78-4.61c4.89-3.9,4.61-6.33-.87-9.49-1.18-.68-2-2-3-3l10.85-12.13q1.1,5.1,2.2,10.2a8.8,8.8,0,0,0-2-1.43,39.19,39.19,0,0,0-4-1c0,1.49-.63,3.55.11,4.34C420.76,131.48,423.08,132.55,425.08,133.88Z"/><path class="cls-25" d="M329.13,97.79l11,8c-.67,1.33-1.33,2.69-2,4.08l-4.05,5c-1.46-2.85-2.14-6.8-6.94-5h-.06c0-2.94,4.26-6.9-2.23-8Z"/><path class="cls-31" d="M375,147.22,366,155c-.45-2-1-4-1.33-6s-.41-4-.6-6l4.85-1,6.09,3.81A8.78,8.78,0,0,1,375,147.22Z"/><path class="cls-32" d="M329.13,97.79l-4.32,4c6.49,1.1,2.26,5.06,2.23,8l-4-1.91a62.63,62.63,0,0,1-2.86-7c-.44-1.57-.12-3.35-.14-5h0Z"/><path class="cls-18" d="M294.08,132.88c.33-2,.67-4,1-6l4-9.12L302,120c.34,1,.67,2,1,2.94-.31,1.69-.62,3.37-.95,5l-4.8-2.16c.26,2.18.56,4.57.85,7Z"/><path class="cls-33" d="M126.08,132.64l-2.55-3.95c.54-2,1-3.47,1.4-5l10.41-1.38.76,1.47Z"/><path class="cls-34" d="M299.08,117.77l-4,9.11c-3.44-3.18-4-10.71-1.1-13.91Z"/><path class="cls-35" d="M315.08,97.88c-4.28,2.6-5.74,1.39-6-5l3.11-.19,7.89,3.19h0Z"/><path class="cls-36" d="M286.08,102.88l10-7-5.12,6.9-2.88,2.1Z"/><path class="cls-37" d="M149.2,123.07c1.41,1.66,6.07,2.1,2.47,5.6-.82.8-3.25.19-4.85-.16-1.06-.24-2-1.17-3-1.79Z"/><path class="cls-35" d="M338.08,109.88c.67-1.33,1.33-2.69,2-4.07l7.83,5.28L341,111Z"/><path class="cls-38" d="M303.08,122.94c-.33-1-.66-2-1-2.94l1.77-1,7.2,3.61Z"/><path class="cls-39" d="M312.22,92.72l-3.14.16c-4.12,3.49-6.39,2.66-8-2.94Z"/><path class="cls-40" d="M283,106l-7.91,2,2.13-6.16Z"/><path class="cls-41" d="M414.08,231.88l-3-1c-1.44-.78-2.95-2.34-4.3-2.22-6.13.58-8.62-2.67-10.14-8-.25-.87-4.86-1.59-5-1.21a45,45,0,0,0-2.54,8.07,22.49,22.49,0,0,0-.38,2.44c-4.31-2.22-3.94,2.29-5.6,3.89l-2.54-3c-4.31.19-8.18,1.49-10.54.14-2.14-1.22-2.67-5.31-3.87-8.14-.39-.92-.5-2.55-1-2.68a4.67,4.67,0,0,0-3.58.49c-1.39,1.1-2.32,2.77-3.44,4.2-1.95-.36-3.91-.66-5.84-1.09-.73-.17-1.52-1.06-2.05-.89-3,1-6.59,1.46-8.69,3.46-2.75,2.61-4.63,5.66-9,3.51-.31,1.36-1,2.74-.86,4.07.67,8-4.29,12.43-12,10.19-3.63-1-7.11-2.79-10.63-4.23,1.07-3.17,2.24-6.31,3.19-9.51.84-2.88.68-6.58,5.37-2.74,1.16,1,4.49-.75,6.83-1.24a23.35,23.35,0,0,0-2.39-3.51c-3.06-3.07-.21-3.52,1.77-4.81,2.37-1.55,7.46-2.84,1.67-6.67-.39-.25-.46-1.28-.38-1.92.25-2.14.64-4.26,1-6.39a15.27,15.27,0,0,1,1-1.18l6.31-.63c-.37,3.46-.87,6.65-1,9.84,0,1.13.92,2.28,1.42,3.42,1-1.12,2.91-2.32,2.84-3.36-.53-7.06,1.81-4.19,4.56-1.6.56.53,2.29.31,3.18-.14s2.17-1.69,2.14-2.54c-.11-3-.77-5.92-1.06-8.9-.06-.68.51-1.42.79-2.14.7.56,1.95,1.07,2,1.68.44,5.09,3.42,4.63,6.88,3.35.06,1.1.05,2.21.2,3.29.09.73.32,2,.63,2.06,4.69.66,9.41,1.16,14.12,1.69,2.29,2.71,4.62,6.45,6.05-.62.17-.81,2-1.36,3.07-1.88,1.35-.63,2.77-1.09,4.16-1.62-2.48-2.24,2.71-7-3.09-8.48-2.64-.64-4.87-2.94-7.28-4.49l18-9c1.77,2.25,3.55,4.49,5.67,7.17-1.2.58-3.06,1.47-4.9,2.39-1.29.64-2.56,1.33-3.83,2,1.67,1.23,3.19,3.05,5.06,3.54,2.33.61,5-.17,7.43.22,1.58.25,3,1.5,4.49,2.31l-4.35,2.28c7.08,1.85,3.55,11.72,10.85,13.32,2.94.65,5.84,1.46,8.77,2.18,2.26.55,4.54,1.06,6.81,1.59l-4,9Zm-42.32-7.79,2.28-1,3.33-4.93c-.71-.44-1.81-1.43-2.06-1.25a19.38,19.38,0,0,0-4.38,4C370.52,221.48,371.44,223,371.76,224.09Zm7.49,2.17c-1.38-1-2.53-2-2.72-1.86a18.84,18.84,0,0,0-3.07,3.3c0,.07,1.2,1.46,1.4,1.36a44.67,44.67,0,0,0,4.39-2.8Z"/><path class="cls-5" d="M319.08,290.88c-6.14,5.26-13.61,3.9-18.34-2.33-2-2.66-5.9-4.05-9.12-5.64-5.24-2.59-10.88-4.45-15.87-7.42-3-1.77-4.9-2.84-7.79-.17-2.43,2.25-4.55,3.33-5.61-1.77-.4-1.94-4.18-3.71-6.75-4.51-2.9-.91-4.62-1.15-2.81-4.86.7-1.42-.18-4.92-1.42-5.66a7.6,7.6,0,0,0-6.63-.17c-3.51,2.12-6,6.16-9.69,7.62-2.36,1-6-1.28-9.06-2.08l-2.28-2.43a13.72,13.72,0,0,0,3-.33,12,12,0,0,0,2.41-1.43c-3.89-2.64-.11-5.19.09-7.78l2.92-5a24.09,24.09,0,0,0,4.93,1.39c2.3.16,5.86,2.79,6.06-2.44.3-5.5,2.68-8.19,8.54-6.56,3.9,1.08,5.12,3,4.43,7.32-.34,2.15,6.53-1,5.77,5-.68,5.38.08,4.72,4.79,4.51,2.52-.12,5.48,2.62,7.67,4.68,2,1.89,3.16,4.67,4.89,6.9.64.83,1.84,1.22,2.78,1.81.38-.91.78-1.81,1.13-2.73a12.6,12.6,0,0,1,.74-2c2.91.42,5.81.94,8.68,1.55s4.37,1.07,4.81,5.18c.35,3.24,5.35,6.12,8.55,8.86C310.14,284,314.66,287.38,319.08,290.88Z"/><path class="cls-42" d="M326.08,203.05c-.34,2.13-.73,4.25-1,6.39-.08.64,0,1.67.38,1.92,5.79,3.83.7,5.12-1.67,6.67-2,1.29-4.83,1.74-1.77,4.81a23.59,23.59,0,0,1,2.41,3.55c-2.34.49-5.67,2.19-6.83,1.24-4.69-3.84-4.53-.14-5.37,2.74-1,3.2-2.12,6.34-3.19,9.51A33.13,33.13,0,0,1,305.9,243a42.73,42.73,0,0,1-4.16,2.49c.31-2.12-.14-5.29,1.07-6.16,2.66-1.92,3.64-3.8,1.12-5.72-1.11-.85-4.15-.16-5.72.8-2.33,1.43-4.19,3.67-6.13,5.68a27.46,27.46,0,0,0-2.4,3.27c-.85-1.35-2.28-2.64-2.39-4a5.22,5.22,0,0,1,2.13-3.73c2.76-2,5.91-3.56,8.73-5.53,3.75-2.61,5.08-5.86,1.15-9.38-3.46-3.1-2.61-5.5.74-7.81.32-.83,1.13-2.23.9-2.42-3.61-3.1-6.3-7.9-12.25-6.94a10.67,10.67,0,0,1-3.43-.08c-.23-2.85-.2-5.71-.23-8.56,1.43.4,3.35.34,4.19,1.27,5,5.63,7.59,1.43,10.77-2.16.76-.87,3.24-.72,4.75-.34,5.82,1.51,5.91,7.9,9.39,11.46a27.53,27.53,0,0,0-1.53,4.68,2.9,2.9,0,0,0,1.09,2.45,2.93,2.93,0,0,0,2.66-.37C319.71,209,322.88,206,326.08,203.05Zm-26.89-1.49,2.47,4.17a37.28,37.28,0,0,0,3.84-5.95c.26-.6-1.46-2.05-2.28-3.1Z"/><path class="cls-12" d="M243.08,245.88c-.2,5.23-3.76,2.6-6.06,2.44a23.69,23.69,0,0,1-4.94-1.44l-.12-1.47c-.37.1-.73.24-1.1.32-1.26.24-3.5.93-3.64.63-2.72-5.79-7.45-2.92-11.44-2.72a73.91,73.91,0,0,0-7.7,1.24l-5.1-.13c.88-2.57,2.8-5.29,2.44-7.67-1.08-7.13,2.21-11.56,7.59-15.2,2-.26,4.07-.16,5.88-.84,5.52-2,11.26-2.21,15.34,1.79,1.57,1.55-.11,6.51-.48,9.9-.16,1.47-1.14,3-1,4.33.12,1,1.48,1.89,2.29,2.83C239.91,239,241.81,242,243.08,245.88Z"/><path class="cls-4" d="M383.08,233.88c1.66-1.6,1.29-6.11,5.6-3.89a22.49,22.49,0,0,1,.38-2.44,45,45,0,0,1,2.54-8.07c.18-.38,4.79.34,5,1.21,1.52,5.3,4,8.55,10.14,8,1.35-.12,2.86,1.44,4.3,2.22-2.67,3-5.65,5.81-7.9,9.11-1.66,2.44-2.33,5.54-3.5,8.32a4.07,4.07,0,0,1-1.23,1.87,1.76,1.76,0,0,1-1.65-.56c-1.21-2.44-2.24-5-3.37-7.43-.46-1-.81-2.4-1.62-2.8-.57-.28-2.31.55-2.67,1.3a43.07,43.07,0,0,0-2,6.16c-1.59,0-3.74.59-4.66-.2-3.33-2.87-6.29-3.82-9.7-.28-3.76,3.9-8,4.66-12.62,1.46l-1-1a38.93,38.93,0,0,1-5.86-3.24c-1.62-1.28-2.78-3.15-4.14-4.75,1.11-2.58,5.09-1.39,8.69,1.42,2.15,1.67,5.43,2,8.27,2.55.67.13,2.43-1.46,2.35-2.08-1.26-9.76,6.55-2.63,9.31-5C379.08,234.65,381.26,234.49,383.08,233.88Z"/><path class="cls-41" d="M285.08,194.88c0,2.85,0,5.71.23,8.56a10.67,10.67,0,0,0,3.43.08c6-1,8.64,3.84,12.25,6.94.23.19-.58,1.59-.9,2.42-5.11-1.5-10.21-3-15.34-4.49-3.4-.95-6.83-1.85-10.3-2.51-1-.18-2.17.55-3.26.85a13.69,13.69,0,0,1,2.51,1.9c1,1.21,2.46,2.63,2.43,3.94,0,1.49-1.46,3-2.28,4.44-1.15-1-2.26-2-3.47-2.89-3.88-2.87-7.76-5.75-11.76-8.43-.4-.27-1.66.77-2.53,1.19h0l-3-7,10.88-1.2.17-1.49-9.06-1.31v-4c2.35.9,4.82,2.35,4.5-2.35-.05-.71,2.32-1.58,3.57-2.37-.24,1-.9,2.14-.62,3a16,16,0,0,0,2.29,3.58,26.26,26.26,0,0,1,3.79-3.35,57.66,57.66,0,0,1,6-2.84c-.07,1.5-.21,3-.16,4.5a18.89,18.89,0,0,0,.51,2.8,18.8,18.8,0,0,0,3.55-.88C281,192.88,283.51,190.07,285.08,194.88Z"/><path class="cls-35" d="M235.08,239.88c-.81-.94-2.17-1.81-2.29-2.83-.17-1.38.81-2.86,1-4.33.37-3.39,2.05-8.35.48-9.9-4.08-4-9.82-3.84-15.34-1.79-1.81.68-3.91.58-5.88.84l4.06-6c4.39,1,8.77,2,13.21,2.73.39.06,1.18-2.43,1.79-3.73,4.3-5.47,10.43-3.64,16-4l-3,10c-.33.36-.6.91-1,1.06-5,1.86-7,4.1-1.22,7.7.17.11-.47,1.51-.73,2.31l-6,2Z"/><path class="cls-41" d="M245.08,220.88q1.51-5,3-10c.73-5.17,4.15-5,8-4h0c0,.49-.27,1.07-.09,1.46,3.67,8.26,3.46,8.52-6.11,8.47-.73,0-1.41,1.53-2.22,2.23S245.94,220.27,245.08,220.88Z"/><path class="cls-5" d="M236.08,233.88l6-2,5.81,3.89c-2.76.91-5.5,2.34-8.29,2.45C238.51,238.33,237.27,235.46,236.08,233.88Z"/><path class="cls-4" d="M358.08,224.88l5.33.81a53.08,53.08,0,0,1-3.42,5.58,19.44,19.44,0,0,1-3.49,2.84c-.26-1.63-.92-3.32-.66-4.85S357.3,226.33,358.08,224.88Z"/><path class="cls-5" d="M264.08,235.52c-.46.32-.92.87-1.48,1a3.39,3.39,0,0,1-2.37-.1c-2.28-1.76-4.4-3.72-6.58-5.61.3-.33.76-1,.88-.93,3.08,1.46,6.13,3,9.16,4.55C263.93,234.51,263.94,235,264.08,235.52Z"/><path class="cls-22" d="M256.08,206.88c-3.83-1-7.25-1.14-8,4-5.57.36-11.7-1.47-16,4l-1-2a5.65,5.65,0,0,1,.57-1.8c1.52-1.91,3.14-3.73,4.72-5.59a51.57,51.57,0,0,1-5.8-2,6.9,6.9,0,0,1-2.35-2.45c-2.85-4.26-5.55-4.32-8.13.2-1.06,1.85-2,3.76-3,5.64-.38-2.73-.64-5.48-1.19-8.17a55.35,55.35,0,0,0-1.82-5.78l-3-3.05,5-6,8.09-3,4.91,2a27.39,27.39,0,0,0-1,4.3c-.06.67.78,2,1,2,5-.82,8.85-.2,9.09,6.09,0,.24,1,.68,1.53.64,2.17-.2,4.33-.54,8.18-1-2.26-1.71-3.67-2.84-5.15-3.86-2.52-1.75-5.1-3.43-7.65-5.13.33-1,.67-2,1-3,5.4.72,10.84,1.91,13.69-5,.43-1,3.21-1.07,4.92-1.53,1.33-.37,2.69-.67,4-1-1-.91-2-1.8-3-2.74-.59-.56-1.1-1.2-1.65-1.8.85-3.48,1.07-7.28,2.69-10.35,2.68-5.06.67-6-3.83-5.7l2.18-.92h4c7.25,0,8.6-1.5,9-9.91.38-5.53,3.63-6.79,8.51-5.84a22.34,22.34,0,0,0,4.17.1c1.16,0,2.32,0,3.48-.06-.72.9-1.5,1.76-2.13,2.73-1.7,2.65-3.34,5.34-5,8-3.53,1.69-5.44,4-2.39,7.94-5.59-.33-9.18,3.72-8.64,9.09-1,2-2,4-2.93,6-2.74,3.43-5.54,6.83-8.12,10.38-.29.4.7,1.72,1.09,2.61l-1,7v4l-2,4Z"/><path class="cls-43" d="M214.08,193a55.35,55.35,0,0,1,1.82,5.78c.55,2.69.81,5.44,1.19,8.17-1.31,3.76-1,6.21,4,5l-4,4-4.06,6c-5.38,3.64-8.67,8.07-7.59,15.2.36,2.38-1.56,5.1-2.44,7.67l-3.84-.8c-3.87-.45-3.78-2.36-1.23-4.29,4.72-3.57,3.66-6.26-.84-8.77a25,25,0,0,0,.93-5c0-2.7-.64-5.3,3.42-5.76.7-.08,1.11-2.75,1.66-4.22,1.6.34,3.2.75,4.83.93.15,0,.84-1.86.63-2a45.92,45.92,0,0,0-4.45-2.84c2.79-2,5.63-3.93,8.31-6.05.63-.5.72-1.66,1-2.52a13.3,13.3,0,0,0-2.57-.59c-1.12-.05-2.68.67-3.29.15a22.17,22.17,0,0,1-3.94-4.8c-.29-.43.28-1.43.46-2.18,1.49.6,3,1.15,4.46,1.79.72.32,1.37.81,3.48,2.07l-2.92-4.25Z"/><path class="cls-11" d="M197.08,230.88c4.5,2.51,5.56,5.2.84,8.77-2.55,1.93-2.64,3.84,1.23,4.29-6.74,2.53-2.42,7.86-3,11.94H196c-3.81-.21-6.45-1.51-7.44-5.79-.32-1.34-3.12-2.79-4.82-2.84-1,0-2.66,2.63-2.85,4.22-.38,3.09.08,6.29.19,9.44-5.52-1.68-1.61,4.2-4,5,1.13-5-1.68-6.66-6-7,1-1.5,2-3,2.95-4.53a5.36,5.36,0,0,0,.75-2.42c-5.27-3-2.92-7.51-.47-9.72a18.28,18.28,0,0,1,11.29-4.65c7.82,0,9.8-1.78,6.65-10Z"/><path class="cls-43" d="M216.08,183.88l-5,6-4-2.94v-.1c5.15-3.33,5.38-5.77.94-9.9l-8-3c.36-5.55,3.26-7.9,8.8-7.16,1.27.17,2.61-.31,3.93-.34,4.29-.08,6-1.34,2.84-5.42-1.44-1.89-1.64-3.45,1.74-2.67a40.36,40.36,0,0,0,5.7.5l-1.41,3.83,8.68,1.84-2.22,5.36v-2l-.19-2.25a27,27,0,0,0-2.81,1.37c-3.07,2-5.87,5.13-9.2,5.85-3.49.76-4.69.74-3.46,4.66C213.14,179.77,214.79,181.75,216.08,183.88Z"/><path class="cls-44" d="M141.08,218.88l7-6.94c4.39,5,5.31,10.67,3,16.89l-4-4Z"/><path class="cls-45" d="M168,238.38c-1.9-3.3-3.93-5.27-3.56-6.56.53-1.85,2.61-3.58,4.45-4.55.54-.28,3.81,2.5,3.61,3.34C172,232.88,170.22,234.79,168,238.38Z"/><path class="cls-46" d="M147.08,224.88l4,3.93c-1.44,1-3.27,1.6-4.25,2.9-3.34,4.37-5.17,4.25-7.74-.85v-2Z"/><path class="cls-47" d="M190.16,202.88c-1.12-3.66-3.43-8,3.89-6.87C197.49,201,195.08,202.61,190.16,202.88Z"/><path class="cls-41" d="M159.08,211.88c-8.39-4.77.59-7,2.09-10.49.3,1.5.61,3,.91,4.49Z"/><path class="cls-12" d="M204.08,211.94a45.92,45.92,0,0,1,4.45,2.84c.21.16-.48,2-.63,2-1.63-.18-3.23-.59-4.83-.93C203.42,214.56,203.76,213.25,204.08,211.94Z"/><path class="cls-13" d="M427.08,218.88c-2.27-.53-4.55-1-6.81-1.59-2.93-.72-5.83-1.53-8.77-2.18-7.3-1.6-3.77-11.47-10.85-13.32l4.35-2.28c-1.49-.81-2.91-2.06-4.49-2.31-2.43-.39-5.1.39-7.43-.22-1.87-.49-3.39-2.31-5.06-3.54,1.27-.67,2.54-1.36,3.83-2,1.84-.92,3.7-1.81,4.9-2.39-2.12-2.68-3.9-4.92-5.67-7.17L406,169.79a29.52,29.52,0,0,0,5.7.55c2.92-.28,6-1.37,5.39,3.54-1.17,6-2.62,12-3.34,18-.19,1.63,1.82,3.53,2.81,5.3a27.3,27.3,0,0,0,2.84-2.05c3.24-3,5.6-4.74,8.53,1,1.41,2.76,6,3.89,9.17,5.76l6,5.26a41.69,41.69,0,0,0,1.63-5,44.29,44.29,0,0,0,.4-5.4c3.43,0,8.72,2.59,6.94-4.86l1-3c-.37-1.6-.78-3.18-1.11-4.79-.93-4.48-3.86-9.36,2.46-12.48.31-.15,0-1.47,0-2.25-5.75.24-2.85-4-3.38-6.5l10,9,10.91,4-4.66,17.62,1,.5,2.81-3.11,6.63,6c.47-2.11.8-4.27,1.47-6.31a10.57,10.57,0,0,1,1.9-2.69c2.06,1,4.63,1.45,6.08,3,2.87,3.06,4.36,1.74,5.91-1h3l10,5,4.09,6.6,1-.53-.2-4.24,6.12,2.17,5,5V205c.78,3.07,6.8,4.77,2.39,9.19,5.77,2.83,2.07,7.75,2.59,11.73-5-.27-5.22-8-11-7l-2-1.62-3.93,7.6c-1.57-1-3.14-2-4.56-2.92l-4.44,13.92c-1.59-1.47-4-2.66-4.59-4.46-1-3-1-6.32-1.38-9.51l-6.24-1.08s.9-2.53.13-3.23c-3.44-3.14-1.47-3.94,1.2-6.07,1.65-1.31,2.65-5.51,1.77-7.39s-4.44-3.77-6.86-3.83c-1.74,0-3.81,2.72-5.24,4.6-1,1.35-1.21,3.33-1.78,5-2-3-4-2.54-6,0l-2,2-5,7-5.63,4.54,5.62,2.48c.66,1.61,1.33,3.21,2,4.74l7.35-5.32c.32,2.29.47,3.43.63,4.56l-1,1-6.85,3.85,8.87,3.17h-2l-4,3a25.43,25.43,0,0,1-4.8,1.07,57.16,57.16,0,0,1-6.66-.57c.82-1.83,1.63-3.67,2.44-5.5-.25-2.45.18-6.61-.88-7-3.39-1.35-7.34-1.31-11.5-1.87a8.71,8.71,0,0,0,.18-3.52c-.5-2.12-1.55-5.75-2.56-5.82-3.69-.25-7.47.71-11.22,1.22C432.41,216.39,429.74,214.31,427.08,218.88Zm25.53-19.56c-.49,1.14-1.07,1.84-1,2.5.28,5.45,5.08,6.06,8.72,7.53a8.41,8.41,0,0,0,6.33-.14c1.11-.58,1-3.4,1.51-5.21a23.16,23.16,0,0,1-4.56-.07,91.11,91.11,0,0,1-9-2.44C453.9,201.28,453.49,200.34,452.61,199.32Zm45.58,14.42,5.34-4.34-3.45-4.11a62,62,0,0,0-4.39,5.32C495.49,210.88,496.94,212.22,498.19,213.74ZM407,199l.15,3,7.59-.77a10.69,10.69,0,0,0-.27-2.11C411.94,199,409.44,199,407,199Z"/><path class="cls-3" d="M414.08,231.88l9-4c-1.37,1.94-3.3,3.71-3.95,5.86s-.26,4.91-.1,7.37c.08,1.19,1.24,2.55.9,3.47-1.71,4.74-3.74,9.37-5.69,14.1l-5.72-3.63c11.85-4.43-4.12-6.51-.26-10.21l7.48-.43c-.31-1-.33-1.45-.51-1.53-7.53-3.24-7.51-3.23-1.82-9.15C413.83,233.29,413.87,232.5,414.08,231.88Z"/><path class="cls-33" d="M176.08,137.88l43-14c.67,2,1.33,4,2,6l-4.69,2.05a45.74,45.74,0,0,0,2.32,4.09c1.17,1.67,2.51,3.22,3.78,4.82l-6.4,4-5.74,4.37,4.73,2.67,5,1,6,1c-.68,1.67-1.35,3.35-2,5h-1a40.36,40.36,0,0,1-5.7-.5c-3.38-.78-3.18.78-1.74,2.67,3.11,4.08,1.45,5.34-2.84,5.42-1.32,0-2.66.51-3.93.34-5.54-.74-8.44,1.61-8.8,7.16-3-2.23-5.86-4.68-10.1-2.12-4.49,2.72-5.11,6.45-3.83,11-.86-.86-2.28-1.62-2.46-2.6-.24-1.38.43-2.93.85-5.17l-4.9,3.93a36.49,36.49,0,0,0-.27-4.9,4.82,4.82,0,0,0-1.42-2.93c-3.18-2.24-6.54-4.23-9.83-6.31.31-1.41.61-2.82.91-4.23,1.68.61,4.39.78,4.86,1.9,2.33,5.52,6.62,4.62,10.81,3.72s8.2-2.27,12.3-3.43c.52-1.81.56-4.83,1.62-5.23,7.29-2.81,5-6.58,1.7-10.89-1.08-1.41-1.26-3.5-2.34-4.91-.94-1.24-2.56-2-3.87-2.93-5.9-3.89-11.5-1.94-17,.88C176.72,139.14,176.4,138.51,176.08,137.88Z"/><path class="cls-48" d="M197,162.88c-4.1,1.16-8.15,2.54-12.3,3.43s-8.48,1.8-10.81-3.72c-.47-1.12-3.18-1.29-4.86-1.89l-.92-1.82q.54-3.91,1.09-7.83l7.91-11.28c5.55-2.82,11.15-4.77,17-.88a12.17,12.17,0,0,0-1.59,2.48c-2.25,6.77-2.41,6.83-8.17,2.38-3.69,9.22-3.52,9.3,5.34,13.54C192.36,158.59,194.55,161,197,162.88Z"/><path class="cls-49" d="M186.08,182.88c-1.28-4.56-.66-8.29,3.83-11,4.24-2.56,7.06-.11,10.1,2.12l8,3c-3.8,2.46-8.14,4.76-3,9.89-5.48.7-10.95,1.45-16.45,2-.43.05-1.18-1.19-1.46-2A34.63,34.63,0,0,1,186.08,182.88Z"/><path class="cls-50" d="M150.52,198.41c0-2.95-.66-6.11.19-8.8s3.18-4.73,4.87-7.06c1.82,1.35,3.59,2.8,5.49,4,5,3.27,3,5.34-.84,7.91-2.09,1.4-3.22,4.18-5.07,6-.89.89-2.65,1.77-3.64,1.46s-1.52-2.11-2.25-3.26Z"/><path class="cls-4" d="M177.08,139.77,169.19,151c-1.85-1.59-3.7-3.18-5.53-4.78-.86-.76-1.68-1.55-2.53-2.33l15-6Z"/><path class="cls-51" d="M168.08,158.88l.95,1.84c-.3,1.4-.6,2.81-.91,4.22l-7.38,1.67-1.2-6.8Z"/><path class="cls-52" d="M205.08,186.88c-5.19-5.13-.85-7.43,3-9.89,4.44,4.13,4.21,6.57-.94,9.9Z"/><path class="cls-8" d="M147.08,224.88l-8,4c-.3-1-1.05-2.15-.8-3a70.28,70.28,0,0,1,2.78-7Z"/><path class="cls-29" d="M196.13,255.88c.6-4.08-3.72-9.41,3-11.94l3.84.8,5.1.13c3.89,1.37,7.77,2.78,11.68,4.1l9.41,3c-.2,2.59-4,5.14-.09,7.78a12,12,0,0,1-2.41,1.43,13.72,13.72,0,0,1-3,.33l2.28,2.43c-1.07,1.21-2,3.22-3.24,3.5-4.7,1-4.57,3.94-3.65,7.46-.29.9-.59,1.8-.88,2.7-4.06-3.74-6.57,2.32-9.93,1.6a13.3,13.3,0,0,1-6-3.35c-1.21-1.15-1.51-3.25-2.22-4.93h0l5.07-5c2.79.24,5.73,1.15,8.31.52,2.09-.51,3.85-2.73,5.52-4.44.82-.83,1.79-2.43,1.5-3.3-2.3-7.18-10.52-10.32-19.43-7.21C199.08,252.12,197.75,254.36,196.13,255.88Z"/><path class="cls-17" d="M91.3,158.88c-2.72,4.11-4.51,7.66-7.11,10.47a25.58,25.58,0,0,1-8.11,5.53c-1.44.66-3.61-.27-5.46-.49.15-1.19.26-2.38.46-3.56.13-.74.83-1.68.57-2.12-3.51-5.92,2.16-9.63,3.59-14.31.1-.33,4.54-.26,4.94.59,1.67,3.51,3,6.09,7.24,2.83C88,157.4,89.55,158.37,91.3,158.88Z"/><path class="cls-16" d="M200.08,270.88l-7-5v-4c0-.68.07-1.36.11-2.05l12,6.08Z"/><path class="cls-53" d="M205.13,265.88l-12-6.08c-.07-.63-.13-1.26-.2-1.89l3-2.07h.11c1.62-1.52,3-3.76,4.9-4.43,8.91-3.11,17.13,0,19.43,7.21.29.87-.68,2.47-1.5,3.3-1.67,1.71-3.43,3.93-5.52,4.44C210.86,267,207.92,266.12,205.13,265.88Z"/><path class="cls-54" d="M196,255.88l-3.05,2c-3.55-1.74-6.87-3-8.14,2.67-.08.36-2.43.2-3.73.29-.11-3.15-.57-6.35-.19-9.44.19-1.59,1.89-4.25,2.85-4.22,1.7,0,4.5,1.5,4.82,2.84C189.57,254.33,192.21,255.63,196,255.88Z"/><path class="cls-24" d="M229.08,138.88a66,66,0,0,0,7.29-3.76c1.93-1.29,7.14-1.74.84-5.64-3-1.88-3.27-8.27-5-13.26,1.24,1.14,2.07,2,3,2.78,2.24,1.7,4.17,2.87,5.36-1.28.92-3.19,4.59-6.17-.26-9.11,1.26-1.52,2.24-3.74,3.84-4.37,2-.8,4.57-.3,6.89-.36a10.33,10.33,0,0,0,.34,2c1.23,3.37,17.27,12.45,20.87,12a9.39,9.39,0,0,1,3,.66,19.22,19.22,0,0,1-2.32,4c-.7.75-2.39,1.52-3.09,1.17-3-1.51-5.35.2-6.1,4-.33,1.66-2.18,4.31-3.25,4.27-2.27-.1-4.58-1.49-6.66-2.71-1-.59-1.52-2-2.25-3,0,1.59.07,3.18.15,4.78a16,16,0,0,0,.35,1.83c-2.26,1.63-5,2.88-6.66,5s-2.29,5.3-3.36,8l-11,10C233.5,149.88,232.6,144.21,229.08,138.88Z"/><path class="cls-22" d="M285.08,161.88l-2.75-7c2.25-1.79,5.82-4.73,9.54-7.47.36-.26,2.35.73,2.34,1.06-.08,1.29-.29,3-1.14,3.72-1.09.94-2.85,1.1-5.16,1.87,3.81,1.3,6.62,2.41,9.53,3.11.51.12,1.93-1.39,2.07-2.29a77.89,77.89,0,0,0,.59-7.94v-.06c4.63,1.33,4,4.65,2.72,7.88-1.72,4.23-1.34,7.13,3.4,9.1,2.27,1,4,3.29,5.92,5-1.53,6.24-1.53,6.24-9.4,4.57v-4.85l-13.66.3c1.46-1.78,2.91-3.57,4.37-5.36-2.46-.55-4.92-1.11-7.39-1.64A5.35,5.35,0,0,0,285.08,161.88Z"/><path class="cls-55" d="M242.08,145.88c1.08-2.7,1.67-5.77,3.37-8s4.4-3.37,6.66-5c7,1.28,12.43,4.83,16,11.08-.38,8.41-1.73,9.9-9,9.91.78-1,2.32-2.12,2.22-3-.43-3.56-.93-7.26-2.41-10.44-.39-.84-4.89-.81-6.65.25-4.16,2.48-.35,4.95.79,7.36-2.08,1.57-4.16,3.13-6.19,4.75-.07.05.36.73.56,1.12l5.63-3,2,3-2.14.94c-2.51-1.29-7.95,5.34-7.88-2.92C244.08,149.88,243.08,147.88,242.08,145.88Z"/><path class="cls-56" d="M266.08,165.88c-.54-5.37,3-9.42,8.64-9.09-3.05-4-1.14-6.25,2.39-7.94l3,15c.08,1.31-.2,2.78.31,3.88a58.61,58.61,0,0,0,3.66,6.15q-1.51,4.49-3,9c-.63-.75-1.12-1.87-1.92-2.19-4.53-1.81-5.2-4.17-1.39-7.45-.89-.78-1.79-1.55-2.69-2.32.65-2.52,1.43-5,1.83-7.57.09-.57-1.47-2-1.74-1.93C272.08,162.78,269.08,164.37,266.08,165.88Z"/><path class="cls-24" d="M251.08,103.88c.76-1,1.49-2,2.28-2.91s1.44-1.53,2.17-2.3a9.38,9.38,0,0,1-2.63-1.62c-.59-.72-1.18-2.09-.87-2.76a28.39,28.39,0,0,1,3.05-4.41c2.84,3.4,6,6.32,4.81,11.77-.82,3.67,4.84,7,9.32,6.48,1.14-.14,3.46.69,3.45,1-.13,1.69-.37,3.63-1.35,4.88-.49.62-3.36.49-3.9-.24-3-3.93-6.21-6.43-11.57-6C254.35,107.79,252.67,105.22,251.08,103.88Z"/><path class="cls-39" d="M294.08,132.88l4.06-.08a17.82,17.82,0,0,0,3,2.69c.75.44,1.88.23,2.84.31l-.36,4.75,8.46-.67a31.41,31.41,0,0,1-3,3.41,36.73,36.73,0,0,1-3.92,2.63l-5.08,1v.06c-6-2.21-3.46-8-5.07-12Z"/><path class="cls-57" d="M284.08,173.88a58.89,58.89,0,0,1-3.71-6.14c-.51-1.1-.23-2.57-.31-3.88l5-2a4.18,4.18,0,0,1,1,0c2.47.53,4.93,1.09,7.39,1.64-1.46,1.79-2.91,3.58-4.37,5.36Q286.61,171.4,284.08,173.88Z"/><path class="cls-24" d="M280.08,122.88c1.68-.68,4.68-2.16,4.84-1.9a25.9,25.9,0,0,1,3.39,7.75c.17.77-2.08,2.09-3.23,3.15-2.7.59-6.81,3.13-4-3.33C281.74,127.08,280.47,124.79,280.08,122.88Z"/><path class="cls-58" d="M305.15,145.88a36.73,36.73,0,0,0,3.92-2.63,31.41,31.41,0,0,0,3-3.41h1l12-3,5,2.08,6,5.93-5,5,1.5,6.28c.73-.27,1.78-.33,2.12-.85,1.57-2.43,2.95-5,4.4-7.49l1.59-2.16-4.6-.75,2.08-8,6.9-3h3c2.42-.54,5.26-2.15,7.2-1.41,6.13,2.33,11.92,5.55,17.85,8.42L369,142l-4.9.92c-1.29.93-2.86,1.62-3.82,2.82-3.27,4.08-2.53,5.75,2.41,6.58.6.1.95,1.69,1.42,2.58l-20,5c-3.52-3.25-6.68-2.92-9.4,1-1.6,2.3-3.09,4.66-4.63,7h-2c-4.33-3.2-8.67-4.83-13,0-.58-5.06-3.43-7.16-8.48-6.83-.74.05-1.58-1.47-2.38-2.26C308.87,154.8,305.84,150.26,305.15,145.88Zm49.35,5.21c-5.15-1.34-4.83-1.26-3.34-6.65.4-1.45-1.81-3.62-2.83-5.46-.92,1-2.28,1.77-2.67,2.91a77.43,77.43,0,0,0-3,11,4.29,4.29,0,0,0,1.82,3.57c1.2.66,3.43.92,4.44.23,2.09-1.39,3.65-3.56,5.58-5.58Z"/><path class="cls-52" d="M360.08,126c7.11-2.1,13.85-4.89,17.88-11.59,1.14-1.89,1.42-4.3,2.09-6.46l5,2.86-2,2.08-4,15c0,.32.05.64.07,1,0,4.17,2.59,9.3-4.06,11a81.32,81.32,0,0,1-5.39-7.27c-.75-1.27-.57-3.09-.8-4.66-1.58.74-3.17,1.43-4.71,2.23a30.24,30.24,0,0,0-2.61,1.73,23,23,0,0,1-1.23-3A18.06,18.06,0,0,1,360.08,126Z"/><path class="cls-35" d="M360.08,126a18.18,18.18,0,0,0,.27,2.95,23,23,0,0,0,1.23,3,30.24,30.24,0,0,1,2.61-1.73c1.54-.8,3.13-1.49,4.71-2.23.23,1.57.05,3.39.8,4.66a79.18,79.18,0,0,0,5.38,7.26l-2,1c-5.93-2.87-11.72-6.09-17.85-8.42-1.94-.74-4.78.87-7.2,1.41l4.1-6h0l1.92-4,4.89,1Z"/><path class="cls-9" d="M379.14,128.88c0-.33-.05-.65-.07-1,1.34-.83,2.59-2.09,4-2.36a5.21,5.21,0,0,1,4,1.12c.87.81.92,2.51,1.33,3.82a17.64,17.64,0,0,1-4.17.13A37.57,37.57,0,0,1,379.14,128.88Z"/><path class="cls-37" d="M229.08,138.88c3.52,5.33,4.42,11,2,17-1,1.65-1.92,3.29-2.87,4.94l-4.13-1.94,2-5-3.83-3.8-2.17,2.8-5-1c.33-2.34.65-4.68,1-7l6.4-4c-1.27-1.6-2.61-3.15-3.78-4.82a45.74,45.74,0,0,1-2.32-4.09l4.7-2.09,4-1,2,3,4.34,3.39-2-.06C229.31,136.44,229.2,137.66,229.08,138.88Z"/><path class="cls-24" d="M227.08,131.88l-2-3a24.37,24.37,0,0,1,3.83-1.81c.33-.1,1.52,1.45,1.47,1.5C229.34,129.74,228.2,130.81,227.08,131.88Z"/><path class="cls-1" d="M361.38,189c-1.05,2-2.1,4-3.17,6-2.6,1.12-4.7,2.49-3,5.83-3.46,1.28-6.44,1.74-6.88-3.35-.06-.61-1.31-1.12-2-1.68-.28.72-.85,1.46-.79,2.14.29,3,1,5.93,1.06,8.9,0,.85-1.2,2-2.14,2.54s-2.62.67-3.18.14c-2.75-2.59-5.09-5.46-4.56,1.6.07,1-1.85,2.24-2.84,3.36-.5-1.14-1.46-2.29-1.42-3.42.09-3.19.59-6.38,1-9.84l-6.33.67,5-4,3.08-2,8.81-4.35-.54-1.67-7.35,1.1a5,5,0,0,1-.94-.16c3-6.76,1.65-10.3-6.55-9.17-.51.07-2-2.37-1.82-2.57a50.9,50.9,0,0,1,6.66-6.47c.91-.69,3.36-.9,3.91-.27,3.14,3.54,6.19,1.29,8.27-.55,4.43-3.89,8.34-8,14.4-2.87a4.67,4.67,0,0,1,.15.91c-.88.87-1.6,2.11-2.66,2.55-2.9,1.22-8.34,1.83-8.5,3.18-.63,5.33,4.94,5,8.26,6.6a14.46,14.46,0,0,0,2.82.74,3.29,3.29,0,0,0-.81.57c-1.61,2.15-3.18,4.33-4.77,6.5Zm-17-13.82L338.26,179q1.88,2.83,3.77,5.67a67.47,67.47,0,0,0,4.09-6.23c.24-.52-.91-1.71-1.76-3.23Z"/><path class="cls-59" d="M360.08,182.88a14,14,0,0,1-2.86-.74c-3.32-1.64-8.89-1.27-8.26-6.6.16-1.35,5.6-2,8.5-3.18,1.06-.44,1.78-1.68,2.66-2.55l7.82,1,.22.15c-2.09,3.32-2.68,8.23-8.3,7.77C359.93,180.09,360,181.49,360.08,182.88Z"/><path class="cls-60" d="M370,167.88c.34-.91.63-1.84,1-2.72.62-1.38,1.31-2.73,2-4.1a26.38,26.38,0,0,0,2.8,3.08,45.36,45.36,0,0,0,4.26,2.74,11,11,0,0,0-1.79,2.34c-2.47,6.12-6,5.73-10.13,1.71l-.22-.15Z"/><path class="cls-49" d="M390.08,150.88l5.66,1.25-4.66,3.68Z"/><path class="cls-60" d="M284.08,173.88q2.49-2.52,5-5l13.62-.3v4.85c7.87,1.67,7.87,1.67,9.4-4.57l4,1,4.58-.08c-.26.68-.49,1.37-.78,2-.47,1.07-1,2.12-1.47,3.18a28.43,28.43,0,0,0,4.26-1.79,50.2,50.2,0,0,0,4.36-3.33c2,1.3,3.51,3,.13,4-6.4,2-4.84,8-6.61,12.29a9.75,9.75,0,0,0,4.05,1.93c1,.07,2.1-1.59,3.31-2a13.35,13.35,0,0,1,4.67-.38c.35,0,1,1.92.87,2a21.43,21.43,0,0,1-4.08,2,37.73,37.73,0,0,1-4.33,1l-2.12,1L314.16,205c-3.48-3.56-3.57-10-9.39-11.46-1.51-.38-4-.53-4.75.34-3.18,3.59-5.73,7.79-10.77,2.16-.84-.93-2.76-.87-4.19-1.27-1.56-4.81-4.1-2-6.53-.92a18.8,18.8,0,0,1-3.55.88,18.89,18.89,0,0,1-.51-2.8c0-1.5.09-3,.16-4.5a57.66,57.66,0,0,0-6,2.84,26.26,26.26,0,0,0-3.79,3.35,16,16,0,0,1-2.29-3.58c-.28-.83.38-2,.62-3-1.25.79-3.62,1.66-3.57,2.37.32,4.7-2.15,3.25-4.5,2.35.33-2.33.67-4.66,1-7,3.39-.78,8.21.32,7.52-5.83,0-.36.94-.84,1.44-1.27,3.17-.42,6.11-1.23,6.87,3.71.55,3.63,6.25,4.24,9.16,1.34Q282.58,178.4,284.08,173.88Z"/><path class="cls-61" d="M370,167.88l-2.08,2.92-7.82-1a4.67,4.67,0,0,0-.15-.91c.28-2.23-.23-5.34,1-6.45,1.49-1.3,5-1.81,6.68-.88S369.3,165.67,370,167.88Z"/><path class="cls-18" d="M327.08,169.93a50.2,50.2,0,0,1-4.36,3.33,28.43,28.43,0,0,1-4.26,1.79c.49-1.06,1-2.11,1.47-3.18.29-.67.52-1.36.78-2h-4.63l-1-2c4.33-4.83,8.67-3.2,13,0Z"/><path class="cls-27" d="M330.08,167.88c1.54-2.34,3-4.7,4.63-7,2.72-3.93,5.88-4.26,9.4-1,.54,1,1.07,2.11,1.6,3.16-1.1-.21-2.44-.1-3.26-.71-3.68-2.68-5.55-.24-7.75,2.23C333.45,165.93,331.63,166.78,330.08,167.88Z"/><path class="cls-62" d="M364.08,154.88c-.47-.89-.82-2.48-1.42-2.58-4.94-.83-5.68-2.5-2.41-6.58,1-1.2,2.53-1.89,3.82-2.82.2,2,.29,4,.61,6s.88,4,1.33,6Z"/><path class="cls-28" d="M323,191.82l2.12-1h10a5,5,0,0,0,.94.16c-.3,1.64-.59,3.29-.88,4.93l-3.05,2c.25-.6.75-1.72.73-1.73C329.55,194.66,326.25,193.24,323,191.82Z"/><path class="cls-63" d="M413.08,147.88l-9,7.09,6-8.08Z"/><path class="cls-64" d="M291,102.79l5.08-6.91c1,.48,2.4.7,2.86,1.49,3.56,6,10.39,7.51,15.94,3.12.47-.37.15-1.73.19-2.62l5-2c0,1.68-.3,3.46.14,5a62.63,62.63,0,0,0,2.86,7c-.77,4-1.47,8.13-7,8l-2-1C306.49,110.66,300.32,103.7,291,102.79Z"/><path class="cls-65" d="M313.08,139.88h-1l-8.43.68c.11-1.45.23-3.1.36-4.75,0-.64.05-1.27.08-1.91,4-4.61,8.6-7.52,15-5l2,1c.56,1.21,1.8,3.32,1.58,3.49C319.59,135.69,316.31,137.74,313.08,139.88Z"/><path class="cls-38" d="M321.08,129.88l-2-1c2.1-1.47,3.49-2.61,2.15-5.94-.7-1.73,1.89-4.79,3-7.23.92-1.95,1.9-3.86,2.85-5.79,4.8-1.8,5.48,2.15,6.94,5l-4.93,7v1l-3.43-2.42c-.28.49-.92,1.16-.78,1.42C327.25,126.32,323.65,127.88,321.08,129.88Z"/><path class="cls-24" d="M304.08,133.88c0,.64-.05,1.27-.08,1.91-1-.08-2.09.13-2.84-.31a17.82,17.82,0,0,1-3-2.69c-.29-2.39-.59-4.78-.85-7l4.8,2.16C302.76,129.9,303.41,131.88,304.08,133.88Z"/><path class="cls-57" d="M314.08,114.88l2,1-2.17,3.7-4.1-2.75Z"/><path class="cls-64" d="M329.08,121.93l4.93-7,4.07-5.05L341,111c1.76,3.71,1,6.48-3,8l-4,4Z"/><path class="cls-66" d="M341.08,124.88h1c4.59-3,8.14-2.64,10.1,3.06h0c-8.82,5.08-10.15,4.73-11-2.94Z"/><path class="cls-24" d="M334,122.88l4-4,3,5.89.1.14-2.05,2Z"/><path class="cls-67" d="M352.15,127.88c-2-5.7-5.51-6.11-10.1-3.06,2.46-5.1,7.28-5.49,12-1Z"/><path class="cls-68" d="M323,191.82c3.3,1.42,6.6,2.84,9.86,4.34l-.73,1.73-5,4c-.32.39-.64.78-1,1.18-3.22,3-6.39,6-9.71,8.82a2.93,2.93,0,0,1-2.66.37,2.9,2.9,0,0,1-1.09-2.45,27.53,27.53,0,0,1,1.53-4.68Z"/><path class="cls-7" d="M369.08,191.74l4-.94c2.41,1.55,4.64,3.85,7.28,4.49,5.8,1.43.61,6.24,3.09,8.48-1.39.53-2.81,1-4.16,1.62-1.11.52-2.9,1.07-3.07,1.88-1.43,7.07-3.76,3.33-6.05.62v-7C369.75,197.88,369.4,194.79,369.08,191.74Z"/><path class="cls-69" d="M370.08,200.88v7c-4.71-.53-9.43-1-14.12-1.69-.31,0-.54-1.33-.63-2.06-.15-1.08-.14-2.19-.2-3.29-1.65-3.34.45-4.71,3.05-5.83l5.54-1.34Z"/><path class="cls-64" d="M371.76,224.09c-.32-1.08-1.24-2.61-.83-3.17a19.38,19.38,0,0,1,4.38-4c.25-.18,1.35.81,2.06,1.25l-3.29,4.89Z"/><path class="cls-49" d="M379.25,226.26a44.67,44.67,0,0,1-4.39,2.8c-.2.1-1.45-1.29-1.4-1.36a18.84,18.84,0,0,1,3.07-3.3C376.72,224.25,377.87,225.3,379.25,226.26Z"/><path class="cls-70" d="M229.18,251.88c-3.14-1-6.3-1.91-9.41-3-3.91-1.32-7.79-2.73-11.68-4.1a71.81,71.81,0,0,1,7.71-1.2c4-.2,8.72-3.07,11.44,2.72.14.3,2.38-.39,3.64-.63.37-.08.73-.22,1.1-.32l.1,1.53Z"/><path class="cls-71" d="M299.21,201.56l4-4.88c.82,1,2.54,2.5,2.28,3.1a37.28,37.28,0,0,1-3.84,5.95C301,204.59,300.34,203.45,299.21,201.56Z"/><path class="cls-60" d="M253.08,199.88l2-4,9,1.34-.17,1.49Z"/><path class="cls-12" d="M217.08,215.88l4-4c1.82.29,3.64.65,5.47.84,1.51.16,3,.1,4.56.14l1,2c-.61,1.3-1.4,3.79-1.79,3.73C225.85,217.88,221.47,216.88,217.08,215.88Z"/><path class="cls-24" d="M245.08,151.88c-.07,8.26,5.37,1.63,7.88,2.92,4.5-.27,6.51.64,3.83,5.7-1.62,3.07-1.84,6.87-2.69,10.35-1.18.28-3,1.16-3.43.73-1.26-1.41-3-3.55-2.7-5,.9-3.79-.25-3.59-3.16-2.73-3.16.94-6.48,1.33-9.73,2a18.29,18.29,0,0,0,2.17-2.71,47.78,47.78,0,0,0,1.94-4.61l-5.11-.7a78.49,78.49,0,0,1,7-6.77C241.84,150.6,243.72,151.6,245.08,151.88Z"/><path class="cls-43" d="M228.08,167.88v2l5,3,1,.93A20.87,20.87,0,0,0,238,174c4-.53,5.79,1.69,5.52,5-.08,1.1-3,2-4.64,2.93a17.94,17.94,0,0,1-2.77,1c-.33,1-.67,2-1,3l-6-3-5-2c-2.75-2.49-5.08-5.08-1.3-8.53C224.51,170.76,226.32,169.35,228.08,167.88Z"/><path class="cls-9" d="M236.08,182.88a17.94,17.94,0,0,0,2.77-1c1.67-.89,4.56-1.83,4.64-2.93.27-3.36-1.57-5.58-5.52-5a20.87,20.87,0,0,1-3.87-.17l4.15-3.7-5.17-2.14,2-2.06a86.5,86.5,0,0,0,9.73-2c2.91-.86,4.06-1.06,3.16,2.73-.34,1.4,1.44,3.54,2.7,4.95.39.43,2.25-.45,3.43-.73.55.6,1.06,1.24,1.65,1.8,1,.94,2,1.83,3,2.74-1.34.33-2.7.63-4,1-1.71.46-4.49.51-4.92,1.53C246.94,184.82,241.5,183.63,236.08,182.88Z"/><path class="cls-35" d="M231.08,212.88c-1.52,0-3.05,0-4.56-.14-1.83-.19-3.65-.55-5.47-.84-5,1.21-5.29-1.24-4-5,1-1.88,2-3.79,3-5.64,2.58-4.52,5.28-4.46,8.13-.2a6.9,6.9,0,0,0,2.35,2.45,51.57,51.57,0,0,0,5.8,2c-1.58,1.86-3.2,3.68-4.72,5.59A5.31,5.31,0,0,0,231.08,212.88Z"/><path class="cls-72" d="M253.08,148c-1.14-2.41-5-4.88-.79-7.36,1.76-1.06,6.26-1.09,6.65-.25,1.48,3.18,2,6.88,2.41,10.44.1.91-1.44,2-2.22,3h-4l-2-3Z"/><path class="cls-39" d="M266.08,165.88c3-1.54,6-3.13,9.12-4.5.27-.12,1.83,1.36,1.74,1.93-.4,2.56-1.18,5-1.83,7.57l-10,6-2-4.95C264.08,169.88,265.08,167.88,266.08,165.88Z"/><path class="cls-60" d="M228.08,167.88c-1.76,1.48-3.57,2.89-5.26,4.44-3.78,3.45-1.45,6,1.3,8.53l-8,3c-1.24-2.11-2.89-4.09-3.61-6.36-1.23-3.92,0-3.9,3.46-4.66s6.13-3.84,9.2-5.85a27,27,0,0,1,2.81-1.37Z"/><path class="cls-37" d="M229.08,182.88l6,3c2.55,1.7,5.13,3.38,7.65,5.13,1.48,1,2.89,2.15,5.15,3.86-3.85.5-6,.84-8.18,1-.51,0-1.52-.4-1.53-.64-.24-6.29-4.11-6.91-9.09-6.09-.26.05-1.1-1.33-1-2A27.16,27.16,0,0,1,229.08,182.88Z"/><path class="cls-27" d="M263.08,171.93c.64,1.63,1.29,3.27,1.93,4.91v1c-.5.43-1.49.91-1.44,1.27.69,6.15-4.13,5-7.52,5.83-.39-.89-1.38-2.21-1.09-2.61C257.58,178.76,260.38,175.36,263.08,171.93Z"/><path class="cls-3" d="M235.08,165.88l-2,2.06v4.94l-5-3,2.25-5.32-8.68-1.84,1.43-3.84h1l4.15,1.93,5.85-2.93,5.06.65a47.78,47.78,0,0,1-1.94,4.61A18.22,18.22,0,0,1,235.08,165.88Z"/><path class="cls-6" d="M426.08,150.88l8-7c1.58,1,2.89,6,4.93.34.83.3,2.12.38,2.38.95.82,1.74,1.89,3.73,1.73,5.51-.49,5.24,2,5.5,5.91,4.2l2.06,7v1c.53,2.48-2.37,6.74,3.38,6.5,0,.78.28,2.1,0,2.25-6.32,3.12-3.39,8-2.46,12.48.33,1.61.74,3.19,1.11,4.79-.95-.22-2.12-.15-2.81-.7-7.08-5.48-14-11.15-21.18-16.53-1-.78-3-.44-4.48-.36a6.08,6.08,0,0,0-.21,2.84,36.18,36.18,0,0,0,1.65,4.5,34.39,34.39,0,0,1-4.6-1.72,43.47,43.47,0,0,1-4.38-3c.63-4.91-2.47-3.82-5.39-3.54a29.52,29.52,0,0,1-5.7-.55l16.08-15c.73.9,1.95,2.67,2.12,2.58,4.12-2.3,5,1.61,6.91,3.47-1.21,6.63,2,10.68,7.71,13.32,1.7.78,3.34,1.69,5,2.54.24-2.07,1.14-4.34.59-6.18a49.93,49.93,0,0,0-4.73-10.77c-.81-1.39-3-1.94-4.62-2.88Z"/><path class="cls-24" d="M417.08,173.88a43.47,43.47,0,0,0,4.38,3,34.39,34.39,0,0,0,4.6,1.72,36.18,36.18,0,0,1-1.65-4.5,6.08,6.08,0,0,1,.21-2.84c1.51-.08,3.45-.42,4.48.36,7.15,5.38,14.1,11,21.18,16.53.69.55,1.86.48,2.81.7-.34,1-.67,2-1,3l-6,1a17.71,17.71,0,0,0-.58-2.39c-.54-1.39-1.2-2.72-1.81-4.07-1,1.15-2.38,2.14-2.87,3.47-1.44,3.93-2.52,8-3.74,12-3.16-1.87-7.76-3-9.17-5.76-2.93-5.72-5.29-4-8.53-1a27.3,27.3,0,0,1-2.84,2.05c-1-1.77-3-3.67-2.81-5.3C414.45,185.88,415.9,179.88,417.08,173.88Z"/><path class="cls-73" d="M407,199c2.49,0,5,0,7.47.09a10.69,10.69,0,0,1,.27,2.11l-7.59.77Z"/><path class="cls-74" d="M197,162.88c-2.42-1.88-4.61-4.26-7.31-5.56-8.86-4.24-9-4.32-5.34-13.54,5.76,4.45,5.92,4.39,8.17-2.38a12,12,0,0,1,1.59-2.52c1.31,1,2.93,1.69,3.87,2.93,1.08,1.41,1.26,3.5,2.34,4.91,3.28,4.31,5.59,8.08-1.7,10.89C197.53,158,197.49,161,197,162.88Z"/><path class="cls-75" d="M216.08,144.88c-.33,2.34-.65,4.68-1,7l-4.76-2.65Z"/><path class="cls-22" d="M220.08,152.88l2.17-2.82,3.83,3.82Z"/><path class="cls-64" d="M234.08,157.88l-5.9,2.9c1-1.65,1.91-3.29,2.87-4.94l11-10c1,2,2,4,3,6-1.34-.3-3.22-1.3-3.91-.76A79,79,0,0,0,234.08,157.88Z"/><path class="cls-75" d="M315.08,167.88l1,2-4-1c-2-1.71-3.65-4-5.92-5-4.74-2-5.12-4.87-3.4-9.1,1.31-3.23,1.91-6.55-2.72-7.88l5.07-1c.69,4.36,3.72,8.9-.93,12.89.8.79,1.64,2.31,2.38,2.26C311.65,160.72,314.5,162.82,315.08,167.88Z"/><path class="cls-76" d="M253.08,148v2.82l-5.68,3.08c-.2-.39-.63-1.07-.56-1.12C248.87,151.11,251,149.55,253.08,148Z"/><path class="cls-57" d="M265.08,177.82v-1l10-5.94c.9.77,1.8,1.54,2.69,2.32-3.81,3.28-3.14,5.64,1.39,7.45.8.32,1.29,1.44,1.92,2.19-2.91,2.9-8.61,2.29-9.16-1.34C271.16,176.59,268.22,177.4,265.08,177.82Z"/><path class="cls-57" d="M334,122.88l5.1,4c-1.94,5.71,3.34,5.26,6,7l-6.9,3-.14-.06-3.56-3.36-4.4,5.42L330,139l-4.94-2.08c.44-4-.29-8.49,4.15-11.13.38-.23-.07-1.86-.13-2.84v-1Z"/><path class="cls-37" d="M354.5,151.11c-1.93,2-3.49,4.19-5.57,5.62-1,.69-3.24.43-4.44-.23a4.29,4.29,0,0,1-1.82-3.57,77.43,77.43,0,0,1,3-11c.39-1.14,1.75-2,2.67-2.91,1,1.84,3.23,4,2.83,5.46C349.67,149.88,349.35,149.77,354.5,151.11Z"/><path class="cls-74" d="M329.08,122.88c.06,1,.51,2.61.13,2.84-4.44,2.64-3.71,7.09-4.15,11.13l-12,3c3.22-2.12,6.5-4.17,9.58-6.49.22-.17-1-2.28-1.58-3.49,2.56-2,6.16-3.56,3.79-8-.14-.26.5-.93.78-1.42Z"/><path class="cls-25" d="M339.08,147.88c-1.45,2.51-2.83,5.06-4.4,7.49-.34.52-1.39.58-2.12.85l-1.48-6.34Z"/><path class="cls-67" d="M345.08,133.88c-2.66-1.78-7.94-1.33-6-7l2.09-1.89c.85,7.67,2.18,8,11,2.94l-4.09,5.95Z"/><path class="cls-57" d="M336.08,144.88l-6-5.93v-.07l7.91-2,.14.06c-.7,2.65-1.39,5.31-2.08,8Z"/><path class="cls-70" d="M339.08,147.88l-8,2,5-5h0l4.64.81Z"/><path class="cls-77" d="M370.08,200.88l-6.35-7.2,5.29-1.94C369.4,194.79,369.75,197.88,370.08,200.88Z"/><path class="cls-35" d="M344.36,175.17c.85,1.52,2,2.74,1.74,3.23a67.47,67.47,0,0,1-4.09,6.23q-1.89-2.83-3.77-5.67Z"/><path class="cls-6" d="M335.16,195.88c.29-1.64.58-3.29.88-4.93l7.39-1.09.54,1.67Z"/><path class="cls-57" d="M233.08,172.88V168l5.16,2.16-4.15,3.7Z"/><path class="cls-31" d="M338,136.88l-7.93,2,4.35-5.36Z"/></g></g></svg>