<svg id="Layer_1" data-name="Layer 1" xmlns="http://www.w3.org/2000/svg" viewBox="0 0 430.63 343.88"><defs><style>.cls-1{fill:#6e6e6e;}.cls-2{fill:#ededed;}.cls-3{fill:#6a6a6a;}.cls-4{fill:#ececec;}.cls-5{fill:#e9e9e9;}.cls-6{fill:#d6d6d6;}.cls-7{fill:#dedede;}.cls-8{fill:#d1d1d1;}.cls-9{fill:#cfcfcf;}.cls-10{fill:#c8c8c8;}.cls-11{fill:#747474;}.cls-12{fill:#e6e6e6;}.cls-13{fill:#c5c5c5;}.cls-14{fill:#d4d4d4;}.cls-15{fill:#c3c3c3;}.cls-16{fill:#a1a1a1;}.cls-17{fill:#d8d8d8;}.cls-18{fill:#aaa;}.cls-19{fill:#bbb;}.cls-20{fill:#cecece;}.cls-21{fill:#a0a0a0;}.cls-22{fill:#cbcbcb;}.cls-23{fill:#b1b1b1;}.cls-24{fill:#cacaca;}.cls-25{fill:#a4a4a4;}.cls-26{fill:#b0b0b0;}.cls-27{fill:#d9d9d9;}.cls-28{fill:#979797;}.cls-29{fill:#c7c7c7;}.cls-30{fill:#d2d2d2;}.cls-31{fill:#b9b9b9;}.cls-32{fill:#b8b8b8;}.cls-33{fill:#e3e3e3;}.cls-34{fill:#ddd;}.cls-35{fill:#d0d0d0;}.cls-36{fill:#e5e5e5;}.cls-37{fill:#eaeaea;}.cls-38{fill:#e7e7e7;}.cls-39{fill:#dbdbdb;}.cls-40{fill:#e8e8e8;}.cls-41{fill:#dcdcdc;}.cls-42{fill:#e4e4e4;}.cls-43{fill:#e2e2e2;}.cls-44{fill:#e1e1e1;}.cls-45{fill:#d7d7d7;}.cls-46{fill:#d3d3d3;}.cls-47{fill:#dadada;}.cls-48{fill:#c9c9c9;}.cls-49{fill:#dfdfdf;}.cls-50{fill:#e0e0e0;}.cls-51{fill:#aeaeae;}.cls-52{fill:#c2c2c2;}.cls-53{fill:#adadad;}.cls-54{fill:#7f7f7f;}.cls-55{fill:#efefef;}.cls-56{fill:#bebebe;}.cls-57{fill:#c1c1c1;}.cls-58{fill:#ababab;}.cls-59{fill:#a3a3a3;}.cls-60{fill:#b2b2b2;}.cls-61{fill:#b5b5b5;}.cls-62{fill:#cdcdcd;}.cls-63{fill:#a2a2a2;}.cls-64{fill:#a8a8a8;}.cls-65{fill:#b6b6b6;}.cls-66{fill:#bfbfbf;}.cls-67{fill:silver;}.cls-68{fill:#9a9a9a;}.cls-69{fill:#a5a5a5;}.cls-70{fill:#b7b7b7;}</style></defs><title>mountainsRight</title><g id="Layer_2" data-name="Layer 2"><g id="Layer_1-2" data-name="Layer 1-2"><path class="cls-1" d="M-361.78,160.88c-5.39,2.74-10.71,5.65-16.23,8.14-2.39,1.08-5.19,1.28-7.8,1.88,1.46-1.64,2.65-3.7,4.43-4.83,10.24-6.48,20.61-12.73,30.94-19.07l22.66-16.12c8.37-4.06,16.83-8,25.11-12.23,8.66-4.45,17.5-6.61,27.38-5.27,3.83.52,8.27-.63,11.91-2.21,10.83-4.7,21.38-10.06,32.1-15a120,120,0,0,1,28.05-8.87c12.36-2.4,25.9-5.9,33.67-18.25,1.55.47,3.42.54,4.6,1.47,7.42,5.89,14.55,12.14,22.1,17.85a8,8,0,0,0,6.89,1c5.55-2.42,10.67-5.79,16.1-8.51a5.07,5.07,0,0,1,4.32.17A68.76,68.76,0,0,0-90.14,91.74c5.43,1.13,10,6.11,15,9.36,6.74,4.78,12.27,13.52,22.5,6.86,10-3.36,19.08-7.79,25.81-16.73,7-9.28,15.11-17.7,23-26.24.74-.81,3.79-.47,5.09.38C11.79,72.3,22,79.74,32.7,86.37c2.38,1.47,6.52,1.19,9.48.38,4-1.07,7.66-3.24,11.25-5.32a25.84,25.84,0,0,1,16.68-3.24c3.46.38,8-1.3,10.74-3.6,6.24-5.2,11.6-11.44,17.54-17,1-.9,3-.68,4.6-.87s4,.38,4.89-.51Q136.05,29,163.82,1.42c3.06-3.06,3.93-.43,5.27,1.08,11.14,12.6,22.87,24.74,33.1,38s19.34,27.73,28.4,42c3.12,4.92,7.06,5.07,11.84,5.17,3.12.06,6.61.4,9.25,1.87,8.85,4.93,17.37,10.47,26.1,15.66,1.34.8,3.28,1.69,4.58,1.3,12-3.51,22.25,1.57,32.45,6.37,5.57,2.61,10.83,3.74,16.79,1.72a5.84,5.84,0,0,1,4.76,1.08c11.41,9.6,22.67,19.39,34,29.12l-3.14,3.09-10-3.78-6-5.22-12-10.5c-6-5.33-13.43-5.59-20.13-.63l-12.87,8.19-6.07,6.86-9.93,7.08-9,4,9.87-8.21,6.25-5.67c1.36-1.63,2.76-3.23,4.09-4.89,2.56-3.18,4.81-6.67,7.7-9.5,2-2,4.88-3,7.37-4.53-2.66-1.87-5.31-3.74-8-5.59a8.6,8.6,0,0,0-1.34-.63c-4.47-1.79-9.61-6-13.28-5-12.65,3.57-23,1.6-32-8a8.14,8.14,0,0,0-1.66-1c-6.34-5.8-12.2-12-22.45-8.42-4.6,1.6-9.63.45-11.44-5.7-.44-1.48-1.93-2.64-2.93-4l-9.18-13.88-4-7h0L199.1,48l-.88-1.08c-3.12-2.27-6.28-4.5-9.36-6.83-7-5.31-13.8-10.88-21-15.83-1.78-1.22-5.2-1.29-7.33-.48-4.89,1.85-9.28,5.59-14.92,1.93-.3-.19-2.53,1.61-2.91,2.79s.3,2.91.53,4.38l-3,2-13,10L118.3,53q-3.14,3.88-6.28,7.75c-7.19,3.93-14.36,7.92-21.59,11.78-6,3.22-12.14,6.29-18.22,9.43-10.28-2.54-17.76,2.89-25.08,8.8l-10,6.1L7,117.75-3.84,129.88c-1.72.53-3.49,1-5.17,1.62-6,2.4-12,4.87-18,7.32l-10.87,7.83-3,.62.05-1.46c2.28-1.61,4.65-3.11,6.81-4.87,5.84-4.78,10.88-11,19.13-11.64,8.63-.68,13-6.29,16.31-13.3,3.65-3.08,7.11-6.43,11-9.19C17.82,103,23.5,99.49,29.12,96c2.82-1.77,3.09-3.29-.1-4.86l-10.67-5.3L11.22,82,9.14,81a39.4,39.4,0,0,1-5.92-3.39c-3.41-2.76-6-2.88-9.15.7A170,170,0,0,1-21.62,94.17c-5,4.34-10.68,7.87-16.07,11.75l-10.09,4c-6.64,1.55-13,7.89-20.11,1.16l-7.83-5.28-11-8-9.06-1.88-7.85-3.18L-114.78,90c-5.84-2.46-8.91,3.23-13.46,4.56-6.11,1.79-5.85,4.66-1.51,8.31l2,2L-112,119l-1.77,1-3-2.2-5.13-4.79-11-7-5.78-4.21-23.09-13.83c-2.61-3.31-5.64-3.39-9.71-2.53-11.48,2.41-23.13,3.93-34.65,6.14-4.67.9-9.17,2.67-13.74,4l-36.2,21.14L-266.66,123l-5.33,3.65-29.73,20.2-7,2,18.94-16.24,10-8.85-.76-1.47-10.41,1.38-40.83,19.12L-356,157.74Z"/><path class="cls-2" d="M374.22,182.88c-7.11.16-14.22.28-21.33.54-.73,0-2.11,1.07-2,1.34,1.59,6-3.39,4.94-6.2,5.5-2,.4-4.27-.58-7-1,1-1.12,1.22-1.59,1.61-1.81,1.23-.7,2.52-1.31,3.79-2-1.34-.64-2.73-1.2-4-1.95a10.32,10.32,0,0,1-1.87-1.62l15-2c4.24,1.74,8.53,5.53,11.41-2.29.66-1.81,5.42-2.21,8.36-3a36.73,36.73,0,0,1,5.23-.71h1Q376.23,178.4,374.22,182.88Z"/><path class="cls-3" d="M367.22,147.88l3.11-3,60.3,39.89-.57.95L388.15,161l-6.93-4.11-13-8Z"/><path class="cls-4" d="M348.22,217.88c-2.89-1.44-6-2.59-8.58-4.49-1.07-.79-.94-3.2-1.35-4.87,1.49-.33,3-1,4.48-.92a39.72,39.72,0,0,1,9.27,1.25c2.95.88,4.08,2.65,1,5.36-.94.83-.61,3.08-.86,4.69Z"/><path class="cls-5" d="M381.22,156.88l6.91,4.06c-3.7,2.17-5,4.63-1.31,8.11.33.31-.62,3-1.46,3.3a41.46,41.46,0,0,1-7.14,1.53h-1q1-6,2-12Z"/><path class="cls-6" d="M260.22,100.88a8.57,8.57,0,0,1,1.65,1.09c8.94,9.6,19.32,11.57,32,8,3.67-1,8.81,3.16,13.28,5-4.12,1.8-1.66,3.18.18,4.83.58.51.53,1.72.76,2.61-.82-.11-1.65-.22-2.47-.35-1.86-.3-4.1-1.43-5.52-.77a104,104,0,0,0-12.71,7.3c-4.41,2.87-7.75,1.73-9.33-3.38-.37-1.19-1.55-3.24-1.93-3.14-3.18.76-7.34,1.08-9.06,3.24s-.71,6.19-.93,9.69a64.18,64.18,0,0,1-8.91-3.16c-1.79-.9-3.16-2.84-4.41-4.54s-1.64-3.71-3-5.1c-.41-.43-3.32.4-3.71,1.27-.78,1.75-1.37,4.26-.66,5.85,1.16,2.63,3.4,4.78,6,8.26-4-1.28-6.9-3.16-9.44-2.76s-5.75,2.66-6.68,4.93c-1.22,3.13,5.89,12,8.89,12.13,4.65,2.66,1,3.66-1,5l-7-5-4.71-7.68-1.3.8c.36,1.47.72,2.95,1.07,4.42-1.5-.36-3-.66-4.51-1.11s-3.07-.72-4.08-1.66-2.59-3.43-2.18-4c2.71-3.77.27-5.77-2.29-7.77l2.12-4a2.42,2.42,0,0,0,1.45.6,16.47,16.47,0,0,0,3.42-1.18c-1.85-.48-3.73-.88-5.55-1.44-3.06-1-6.11-1.93-9.12-3a27.15,27.15,0,0,1-5.36-2.48A13.72,13.72,0,0,1,201.9,120a25.61,25.61,0,0,1-1.93-3.57,18.28,18.28,0,0,1-1.91,2.94c-1,1-2.61,2.76-3.19,2.49a9.11,9.11,0,0,1-3.71-3.62c-.26-.43,1.25-1.89,1.94-2.9q2.57-3.72,5.11-7.45v-2c8.45,3.88,15.07,1.23,20-6.88,1.19-2,5.15-2.75,7.94-3,1.65-.15,3.51,1.78,4.52,2.36-1.61,3.09-4,6.18-4.82,9.63s-.19,7.22-.08,10.84c0,1.1.16,2.89.74,3.11a4.2,4.2,0,0,0,3.54-.43c1.41-1.09,2.21-3,3.6-4.08,1.14-.91,2.89-1.82,4.14-1.58.9.18,1.58,2.19,2.09,3.49a20.41,20.41,0,0,1,.68,3.55c.83-.47,2-.75,2.42-1.46.72-1.33,1.83-3.57,1.28-4.28-4.29-5.53-.83-5.35,3.38-5.07,1.13.08,2.31-.56,3.68-.92-.56-.77-.88-1-.93-1.3-.34-2.24-.64-4.48-1-6.73a24.76,24.76,0,0,0,4,1.89,3.74,3.74,0,0,0,2.85-.41A39,39,0,0,0,260.22,100.88Z"/><path class="cls-7" d="M244.22,151.88c-3-.13-10.11-9-8.79-12.2.93-2.27,4.17-4.53,6.68-4.93s5.45,1.48,9.44,2.76c-2.64-3.48-4.88-5.63-6-8.26-.71-1.59-.12-4.1.66-5.85.39-.87,3.3-1.7,3.71-1.27,1.31,1.39,1.8,3.51,3,5.1s2.62,3.64,4.41,4.54a64.18,64.18,0,0,0,8.91,3.16c.22-3.5-.71-7.62.93-9.69s5.88-2.48,9.06-3.24c.38-.1,1.56,2,1.93,3.14,1.58,5.11,4.92,6.25,9.33,3.38a104,104,0,0,1,12.71-7.3c1.42-.66,3.66.47,5.52.77.82.13,1.65.24,2.47.35-.23-.89-.18-2.1-.76-2.61-1.84-1.65-4.3-3-.18-4.83a8.6,8.6,0,0,1,1.34.63c2.67,1.85,5.32,3.72,8,5.59-2.49,1.48-5.36,2.56-7.37,4.53-2.89,2.83-5.14,6.32-7.7,9.5-1.33,1.66-2.73,3.26-4.09,4.89-2.45-.53-4.89-1.17-7.37-1.48-.45-.05-1.51,1.29-1.51,2a21,21,0,0,0,.67,4.32c-2.43-.14-6.42,1.71-3.67-3.94,1.47-3,.24-5.89-4.28-5.54-4.24.34-5.95,3.58-4.36,8.32.44,1.3.15,2.85.2,4.28-1.13-1-2.64-1.84-3.32-3.11-2.57-4.73-4.92-9.47-11.33-4.69C256.65,144.52,247.6,143.78,244.22,151.88Z"/><path class="cls-8" d="M1.44,116c-3.33,7-7.68,12.62-16.31,13.3-8.25.65-13.29,6.86-19.13,11.64-2.16,1.76-4.53,3.26-6.81,4.87l-6.09-3.82,4.12-1.06,2-1c6.65-1.73,4.05-6.86,4.06-11a38.31,38.31,0,0,0,5.1,1.74,17.64,17.64,0,0,0,4.17-.13c-.41-1.31-.46-3-1.33-3.82a5.21,5.21,0,0,0-4-1.12c-1.44.27-2.69,1.53-4,2.36l3.93-15c10.12-1.73,17-8.59,22.87-16C-6.9,93-6.41,87.06-4.76,82l2-1.15c1.27,1,2.42,2.27,3.85,2.87,4.26,1.8,5,4.9,2.51,8.91-3.36,5.45-6.95,10.57-9.42,16.82-2.76,7,1,5.61,4.32,6.35A16.26,16.26,0,0,0,1.44,116Z"/><path class="cls-9" d="M260.22,100.88a38.49,38.49,0,0,1-3.91,3.75,3.74,3.74,0,0,1-2.85.41,24.76,24.76,0,0,1-4-1.89c.31,2.25.61,4.49,1,6.73,0,.29.37.53.93,1.3-1.37.36-2.55,1-3.68.92-4.21-.28-7.67-.46-3.38,5.07.55.71-.56,3-1.28,4.28-.39.71-1.59,1-2.42,1.46a20.41,20.41,0,0,0-.68-3.55c-.51-1.3-1.19-3.31-2.09-3.49-1.25-.24-3,.67-4.14,1.58-1.39,1.12-2.19,3-3.6,4.08a4.2,4.2,0,0,1-3.54.43c-.58-.22-.71-2-.74-3.11-.11-3.62-.76-7.42.08-10.84s3.21-6.54,4.82-9.63c-1-.58-2.87-2.51-4.52-2.36-2.79.26-6.75,1.06-7.94,3-4.93,8.11-11.55,10.76-20,6.88.66-1,1.33-2,2-3,2.92.31,5.84,1,8.73.81,1.54-.08,3-1.44,4.46-2.38a2.43,2.43,0,0,0-.37-1.66c-1.68-.22-3.41-.12-5.08-.36-2.6-.36-5.16-.93-7.74-1.41l12-2c1.33-2.67,2.67-5.31,4-7.92a7.43,7.43,0,0,1,1.86-.45c1.54,0,3.07.22,4.6.35-.54-1.1-1.41-2.18-1.49-3.31,0-.53,1.48-1.15,2.29-1.73,1,1.31,2.49,2.47,2.93,4,1.81,6.15,6.84,7.3,11.44,5.7C248.06,88.88,253.92,95.06,260.22,100.88Z"/><path class="cls-10" d="M200.22,102.88c-.66,1-1.33,2-2,3v2c-1.85-.27-4.48-4.82-5.3-.43-1,5.55-4.62,5.3-8.24,5.58-1.39.11-2.88-1-4.32-1.63,1.41-.25,2.83-.44,4.23-.75a36,36,0,0,0,3.47-1c-.6-1.53-1-4.27-1.83-4.37-4.24-.56-2.31-2.09-.85-3.64,1.24-1.31,2.56-2.54,3.85-3.8l7-7.35c-5.75-4.81-11-.17-16.57.85-.7.13-1.64-1-2.46-1.51,1.91-5.08,5.46-7.6,11-7,3.67,0,7.37.43,11,0,1.91-.24,4.47-1.57,5.16-3.11.51-1.13-1.12-3.92-2.53-5-1.8-1.44-4.35-1.94-6.57-2.85-.08-1.43-.21-2.87-.22-4.3,0-.9.58-2.25.17-2.64-2.21-2.14-4.65-4-7-6,.32-.69.65-1.38,1-2.06.63.07,1.63-.09,1.85.25,3.83,6.05,7.9,10.81,15.43,4.51.68-.58,2.47.16,3.74.29h0c-1.69,3.35-3.78,6.59-4.8,10.14-.29,1,2.53,3,4.11,4.28a6.42,6.42,0,0,0,2.38-2.13,49.21,49.21,0,0,0,2.3-5.33l9.21,13.92c-.81.58-2.32,1.2-2.29,1.73.08,1.13,1,2.21,1.49,3.31-1.53-.13-3.06-.31-4.6-.35a7.43,7.43,0,0,0-1.86.45c-2.59-.91-5.64-3.09-7.63-2.36-1.8.65-2.43,4.49-3.57,6.93l7.25,3.37-12,2Z"/><path class="cls-11" d="M143.22,32.8c-.23-1.47-.93-3.11-.53-4.38s2.61-3,2.91-2.79c5.64,3.66,10-.08,14.92-1.93,2.13-.81,5.55-.74,7.33.48,7.23,5,14,10.52,21,15.83,3.08,2.33,6.24,4.56,9.36,6.83-1.81.1-4-.39-5.36.43-2.43,1.45-4.41,3.71-6.63,5.61-4.32.33-8.64.85-13,.93a29.75,29.75,0,0,1-7.38-1.05,17,17,0,0,1-3.62-1.88l-3.88-7c1.62-5.8,3.25-11.6,5.07-18.12L150.31,33c0-1.91.78-4.73-2.84-2.29A37.26,37.26,0,0,1,143.22,32.8Z"/><path class="cls-12" d="M244.22,151.88c3.38-8.1,12.43-7.36,18.24-11.7,6.41-4.78,8.76,0,11.33,4.69.68,1.27,2.19,2.09,3.32,3.11a13.78,13.78,0,0,0-.2-4.28c-1.59-4.74.12-8,4.36-8.32,4.52-.35,5.75,2.54,4.28,5.54-2.75,5.65,1.24,3.8,3.67,3.94l1.85.85-9.85,8.17-7,5c.56-5.15-3.75-6.4-7-7.7a18,18,0,0,0-9.91-1.11c-3.08.66-3.9,7.91-1.93,9.82a79.72,79.72,0,0,1,5.85,7h-7c-4-2.06-8-4-11.88-6.34-.33-.2.54-2.4.85-3.68C245.22,155.54,248.87,154.54,244.22,151.88Z"/><path class="cls-13" d="M1.44,116a16,16,0,0,1-2.94-.11c-3.3-.74-7.08.65-4.32-6.35C-3.35,103.24.24,98.12,3.6,92.67c2.47-4,1.75-7.11-2.51-8.91-1.43-.6-2.58-1.9-3.85-2.88L9.12,81l2.08,1a35.21,35.21,0,0,0-1.64,5c-.18,1,.34,2.22.54,3.34,2.46-1.15,8.84,6.06,7.41-3.48-.06-.34.54-.78.84-1.18L29,91c3.19,1.57,2.92,3.09.1,4.86-5.62,3.54-11.3,7-16.7,10.86C8.55,109.52,5.09,112.88,1.44,116Z"/><path class="cls-14" d="M-22.78,161c-.67-1.73-1.33-3.45-2-5.17l4.64-3.65-5.64-1.28c-.35-1.24-.71-2.47-1.21-4.23,2.39.73,5,2.36,6.07,1.66,1.92-1.21,3.83-3.79,4-5.94.09-1.19-3.23-3-5.29-3.85-1.33-.56-3.18.1-4.79.22,6-2.45,12-4.92,18-7.32,1.68-.66,3.45-1.09,5.17-1.62,1,1,1.81,2.31,3,3,5.48,3.16,5.76,5.59.87,9.49l-5.82,4.59-6,8.08Z"/><path class="cls-15" d="M7,117.7,37.16,96.88,41.34,104l-17.2,16.87c-.87-1.93-1.74-3.86-2.6-5.81-.95,2.83-2,5.64-2.8,8.51-.2.69.31,1.58.5,2.37l-8,8h-2v-6Q8.1,122.81,7,117.7Z"/><path class="cls-16" d="M319.11,127.74c6.7-5,14.16-4.7,20.13.63,4,3.54,8,7,12,10.5l-9.89,7.18c-1-.38-2.23-.5-2.88-1.19-2.54-2.7-5-4.77-8.22-1-1.39,2.42-2.81,4.82-4.17,7.25-.51.93-.89,1.94-1.33,2.91a12.32,12.32,0,0,1-2.29-2.75,11.07,11.07,0,0,1-.34-3.44c1.22-2.84,2.54-5.64,3.51-8.56.13-.4-1.58-1.4-2.44-2.12v-1.32l8.74-6.92-.92-1.39-8.79,2.28Z"/><path class="cls-17" d="M367.22,147.88l1,1c-3,.7-4.54,1.75-1.15,4.27a4.16,4.16,0,0,1,1.3,2.45c1.31,7.66,1.28,7.66,8.89,5.27-1.82,4.53-4.81,6.79-10,4.47.16.95.19,1.27.27,1.58.45,1.69.9,3.38,1.37,5.07-1.23-.87-2.35-2.08-3.72-2.49-1.17-.36-2.62.2-4,.35-1-1.32-2.73-2.56-2.89-4-.25-2.27.52-4.67.87-7-1.54-1.35-4.62-3.24-4.37-4,1.86-5.36,2-5.36-5.48-5.71l7.81-5.14Z"/><path class="cls-18" d="M72.22,82c6.08-3.14,12.19-6.21,18.22-9.43,7.23-3.86,14.4-7.85,21.59-11.78l.42.25c-1.62,2.38-2.82,6.28-4.94,6.86C98.29,70.4,93.05,78,85.89,83.09c-4.72,3.37-11,4.51-16.65,6.65C70.11,87.11,67.47,83.13,72.22,82Z"/><path class="cls-12" d="M274.22,158.88l7-5,9-4,4,4-22,19-10-5c2,0,4.08.31,5.93-.21a8.63,8.63,0,0,0,4.13-3c.29-.37-1.32-2.21-2.13-3.5Z"/><path class="cls-9" d="M9.12,81l-11.9-.14-2,1.09-26,28.81-5-2.9-1.88-2c5.39-3.88,11.08-7.41,16.07-11.75A170,170,0,0,0-5.9,78.29c3.16-3.58,5.74-3.46,9.15-.7A40.53,40.53,0,0,0,9.12,81Z"/><path class="cls-19" d="M210.22,61.88c-1.27-.13-3.06-.87-3.74-.29-7.53,6.3-11.6,1.54-15.43-4.51-.22-.34-1.22-.18-1.85-.25,1.82-1.95,5.21-3.94,5.17-5.84-.12-4.76,2.56-3.08,4.76-3Z"/><path class="cls-20" d="M357.22,144.06l-7.81,5.14c7.51.35,7.34.35,5.48,5.71-.25.73,2.83,2.62,4.37,4h-1c-2.48-.88-4.92-1.87-7.45-2.57-.77-.22-1.76.32-2.65.52l-6.78-10.78,9.84-7.2Z"/><path class="cls-21" d="M72.22,82c-4.71,1.17-2.07,5.15-3,7.78l-13,5.14L47.1,90.76C54.42,84.88,61.9,79.42,72.22,82Z"/><path class="cls-22" d="M9.22,133.88h2l-14,14-3-1L0,142.27c4.89-3.9,4.61-6.33-.87-9.49-1.18-.68-2-2-3-3L7,117.65q1.09,5.1,2.2,10.2a8.8,8.8,0,0,0-2-1.43,39.19,39.19,0,0,0-4-1c0,1.49-.63,3.55.11,4.34C4.9,131.48,7.22,132.55,9.22,133.88Z"/><path class="cls-23" d="M47.1,90.76l9.12,4.12L41.34,104l-4.18-7.08Z"/><path class="cls-19" d="M214.22,68.88a46.7,46.7,0,0,1-2.35,5.32,6.42,6.42,0,0,1-2.38,2.13c-1.58-1.32-4.4-3.29-4.11-4.28,1-3.55,3.11-6.79,4.8-10.14Z"/><path class="cls-24" d="M319.11,127.74l3.15,2.06c-7.58,1.89-12,7.88-17,13.13l1-7Z"/><path class="cls-25" d="M199.1,48c-2.2,0-4.88-1.72-4.76,3,0,1.9-3.35,3.89-5.17,5.84-.33.68-.66,1.37-1,2.06.69,2.67.42,4-3,3.1-1.46-.4-3.3.54-5,.87l-2-4.08c5,1.15,8.51.39,8-5.89,2.18-1.92,4.16-4.18,6.61-5.63,1.38-.82,3.55-.33,5.36-.43Z"/><path class="cls-19" d="M18.35,85.74c-.3.4-.9.84-.84,1.18,1.43,9.54-5,2.33-7.41,3.48-.2-1.12-.72-2.29-.54-3.34a35.21,35.21,0,0,1,1.64-5Z"/><path class="cls-26" d="M127.22,44.88l13-10c-.26,1.74-.51,3.48-.76,5.22L129.36,48Z"/><path class="cls-27" d="M294.22,153.88l-4-4,9.93-7.09,2,5Z"/><path class="cls-28" d="M139.43,40.06c.25-1.74.5-3.48.76-5.22l3-2a35.4,35.4,0,0,0,4.26-2.15c3.62-2.44,2.83.38,2.84,2.29Z"/><path class="cls-29" d="M127.22,44.88,129.36,48l-9,8.07-2.07-3Z"/><path class="cls-30" d="M291.07,145.71l-1.85-.83a20.87,20.87,0,0,1-.78-4.3c0-.71,1.06-2.05,1.51-2,2.48.31,4.92.95,7.37,1.48Z"/><path class="cls-31" d="M302.16,147.81l-2-5,6.07-6.86q-.48,3.5-1,7Z"/><path class="cls-32" d="M118.27,53l2.07,3-7.92,5L112,60.8Q115.13,56.89,118.27,53Z"/><path class="cls-33" d="M-1.78,231.88l-3-1c-1.44-.78-2.95-2.34-4.3-2.22-6.13.58-8.62-2.67-10.14-8-.25-.87-4.86-1.59-5-1.21a45,45,0,0,0-2.54,8.07,22.49,22.49,0,0,0-.38,2.44c-4.31-2.22-3.94,2.29-5.6,3.89l-2.54-3c-4.31.19-8.18,1.49-10.54.14-2.14-1.22-2.67-5.31-3.87-8.14-.39-.92-.5-2.55-1-2.68a4.67,4.67,0,0,0-3.58.49c-1.39,1.1-2.32,2.77-3.44,4.2-1.95-.36-3.91-.66-5.84-1.09-.73-.17-1.52-1.06-2-.89-3,1-6.59,1.46-8.69,3.46-2.75,2.61-4.63,5.66-9,3.51-.31,1.36-1,2.74-.86,4.07.67,8-4.29,12.43-12,10.19-3.63-1-7.11-2.79-10.63-4.23,1.07-3.17,2.24-6.31,3.19-9.51.84-2.88.68-6.58,5.37-2.74,1.16,1,4.49-.75,6.83-1.24a23.35,23.35,0,0,0-2.39-3.51c-3.06-3.07-.21-3.52,1.77-4.81,2.37-1.55,7.46-2.84,1.67-6.67-.39-.25-.46-1.28-.38-1.92.25-2.14.64-4.26,1-6.39a15.27,15.27,0,0,1,1-1.18l6.31-.63c-.37,3.46-.87,6.65-1,9.84,0,1.13.92,2.28,1.42,3.42,1-1.12,2.91-2.32,2.84-3.36-.53-7.06,1.81-4.19,4.56-1.6.56.53,2.29.31,3.18-.14s2.17-1.69,2.14-2.54c-.11-3-.77-5.92-1.06-8.9-.06-.68.51-1.42.79-2.14.7.56,2,1.07,2,1.68.44,5.09,3.42,4.63,6.88,3.35.06,1.1,0,2.21.2,3.29.09.73.32,2,.63,2.06,4.69.66,9.41,1.16,14.12,1.69,2.29,2.71,4.62,6.45,6.05-.62.17-.81,2-1.36,3.07-1.88,1.35-.63,2.77-1.09,4.16-1.62-2.48-2.24,2.71-7-3.09-8.48-2.64-.64-4.87-2.94-7.28-4.49l18-9c1.77,2.25,3.55,4.49,5.67,7.17-1.2.58-3.06,1.47-4.9,2.39-1.29.64-2.56,1.33-3.83,2,1.67,1.23,3.19,3.05,5.06,3.54,2.33.61,5-.17,7.43.22,1.58.25,3,1.5,4.49,2.31l-4.35,2.28c7.08,1.85,3.55,11.72,10.85,13.32,2.94.65,5.84,1.46,8.77,2.18,2.26.55,4.54,1.06,6.81,1.59l-4,9Zm-42.32-7.79,2.28-1,3.33-4.93c-.71-.44-1.81-1.43-2.06-1.25a19.38,19.38,0,0,0-4.38,4C-45.34,221.48-44.42,223-44.1,224.09Zm7.49,2.17c-1.38-1-2.53-2-2.72-1.86a18.84,18.84,0,0,0-3.07,3.3c-.05.07,1.2,1.46,1.4,1.36a44.67,44.67,0,0,0,4.39-2.8Z"/><path class="cls-34" d="M157.22,256.88c.43.82.85,1.64,1.27,2.46l-3.27.54-7,2h0l-2-11-13.14-5.22c1.83-1.16,2.2-1.46,2.61-1.65,1.55-.71,3.12-1.39,4.69-2.09-1.38-2-2.77-4-4.12-6-.4-.61-1.1-1.45-.93-1.93,1.12-3.27.9-5.44-2.89-7.05-1.85-.78-2.69-3.73-4.23-5.49-.68-.78-2-1-3-1.55,1.32-1.48,3.94-3.16,3.75-4.4-.78-5-2.42-9.76-3.75-14.62,0-5.76,3.51-4.93,6.63-3,5,3,8.67.84,12.7-1.89a99.41,99.41,0,0,1,11.38-6.42c.51-.26,1.89,1,2.73,1.68a33.56,33.56,0,0,1,2.57,2.63,44.92,44.92,0,0,1-3.15,3.86c-.94.93-3.22,2-3.11,2.29,1.92,5,4.13,9.92,6.27,14.85-.21,1.81-.41,3.62-.64,5.42-.07.56-.14,1.52-.4,1.59-5,1.31-3.37,4.39-3,8,.19,1.71-3.27,3.84-4.66,5.33-.18,2.56-.53,5.55-.52,8.54,0,.83,1.26,1.59,1.51,2.5a7.75,7.75,0,0,1-.3,2.62l.21,8.09Z"/><path class="cls-35" d="M190.22,196.88l-3-.06c-2,.42-5.23,1.85-5.85,1.1-4.9-5.86-11.6-5.54-18.12-6.08v-4c3.28,1,6.51,2.3,9.86,3.06,1.57.36,4.61.21,4.82-.43.87-2.63-5.23-8.38-8.27-8.51-1.2-.05-3-.64-3.42-1.51a48.33,48.33,0,0,1-2.89-8.25c-.28-1-.33-2.55.25-3.16a3.24,3.24,0,0,1,3.08-.17c6.59,3.86,13.51,3.55,20.58,2,.21,6.52,3,8.62,10.34,7.81,3.21-.36,6.44-.55,9.66-.82,2,1.48,4.09,2.91,6.06,4.46a11.06,11.06,0,0,1,2.26,2.42,44.92,44.92,0,0,1-5.7,6c-.27.22-2-1.79-3.19-2.05a24,24,0,0,0-6.44-.39c-.33,0-1.11,2.06-.78,2.65,2.28,4,.34,4.26-3.1,4.24C194.29,195.15,192.22,196.29,190.22,196.88Z"/><path class="cls-34" d="M213.27,196.88c1.58.65,3.16,1.3,4.74,2,1.3.56,2.58,1.15,3.88,1.72a25.44,25.44,0,0,1-2.45,3.21,41,41,0,0,1-3.9,3.06c.61.44.84.72,1.11.78,1.87.43,3.74.81,5.62,1.2-1.36,1.18-2.55,2.76-4.12,3.44-3.13,1.37-6.5,2.15-9.71,3.34a31.55,31.55,0,0,0-4.17,2.24l-5.05-1c-4.23-4.11-5.88-9.26-6-15,4.28-1.82,8.45-4,12.87-5.3C208.22,195.94,210.85,196.76,213.27,196.88Z"/><path class="cls-36" d="M161.22,214.88C159.08,210,156.87,205,155,200c-.11-.31,2.17-1.36,3.11-2.29a43.22,43.22,0,0,0,3.16-3.86l1-1a16.18,16.18,0,0,1,2.94.36c4.61,1.43,5.11,3.06,2.11,6.16a2.2,2.2,0,0,0,.29,2.07c5.17,3.22,10.43,6.31,15.66,9.44-1.87,1.6-4.15,2.93-5.48,4.9-1.1,1.63-1.08,4-1.55,6.07l-4-3-6.5-8.07Z"/><path class="cls-6" d="M213.27,196.88c-2.42-.15-5-1-7.22-.31-4.42,1.34-8.59,3.48-12.87,5.3l-3-5c2-.62,4.11-1.76,6.16-1.75,3.44,0,5.38-.23,3.1-4.24-.33-.59.45-2.64.78-2.65a24,24,0,0,1,6.44.39c1.2.26,2.92,2.27,3.19,2a44.92,44.92,0,0,0,5.7-6,11.06,11.06,0,0,0-2.26-2.42c-2-1.55-4-3-6.06-4.46l4-7,8,14c-2,1.29-4.39,2.49-.81,4.8,1.4.9,2.64,2.06,4,3.1a57.26,57.26,0,0,1-5.28,3.27A16.66,16.66,0,0,1,213.27,196.88Z"/><path class="cls-12" d="M199.22,216.88l5.09,1c1.22,1.15,4.59-3.28,4.35,1.68h4.69c-.14-.47-.54-1.1-.37-1.38a4.7,4.7,0,0,1,1.67-1.76,44,44,0,0,1,6.19-2.78c.45-.15,2,1.14,1.92,1.62a14.84,14.84,0,0,1-1.54,3.62h0c-3.34,1.48-6.74,2.84-10,4.52-.95.49-1.44,1.86-2.14,2.83.69.26,1.45.84,2.06.72,3-.59,6-1.37,9-2.08l1.87-.09-.79,2.1c-6.51,2.4-16-.52-18,10Z"/><path class="cls-34" d="M183.22,210.88c-5.23-3.13-10.49-6.22-15.66-9.44a2.2,2.2,0,0,1-.29-2.07c3-3.1,2.5-4.73-2.11-6.16a16.14,16.14,0,0,0-2.94-.33l1-1c6.52.54,13.22.22,18.12,6.08.62.75,3.84-.68,5.85-1.1-1.47,2.3-3.06,4.53-4.34,6.93-.35.66.35,1.81.39,2.74C183.31,208,183.22,209.44,183.22,210.88Z"/><path class="cls-37" d="M268.22,199.88q-1.49,9.51-3,19a30.07,30.07,0,0,1-4.45.2,8.1,8.1,0,0,1-2.46-1.18l1.91-2c2.1-1.61,6.14-2.65.13-5.13-2.11-.87-2.83-5.14-4.19-7.87Z"/><path class="cls-38" d="M172.22,265.88c-1.29-1-5.65.2-2.17-4,1.32-1.6.17-5.23.14-7.93,4.62.7,3.14-1.76,2.07-4,4.75,1.51,8.88,3.17,2.4,8.07a2.22,2.22,0,0,0-.07,2.12C180.82,265,174.5,264.57,172.22,265.88Z"/><path class="cls-12" d="M282.22,206.88l4-4,5,1c.57,6.52-.09,7.45-5,7C281.14,210.21,280.86,209.93,282.22,206.88Z"/><path class="cls-39" d="M172.22,218.88l4,3.05,3.81,3.34c-1.52.94-3.65,3-4.44,2.61a12.85,12.85,0,0,1-4.75-5.06C170.36,222,171.67,220.17,172.22,218.88Z"/><path class="cls-40" d="M281.22,219.88h12L285,226.37C283.73,224.22,282.49,222.05,281.22,219.88Z"/><path class="cls-41" d="M242.22,217.88a31.6,31.6,0,0,0,.76-3.73,10.69,10.69,0,0,0-.33-2.52l3.57,1.25C246.58,215.88,246.57,218.61,242.22,217.88Z"/><path class="cls-17" d="M172.22,249.88c1.07,2.25,2.55,4.71-2.07,4l-2-3c1.17-.86,2.34-1.71,3.53-2.56C171.89,248.88,172.08,249.37,172.22,249.88Z"/><path class="cls-39" d="M11.22,218.88c-2.27-.53-4.55-1-6.81-1.59-2.93-.72-5.83-1.53-8.77-2.18-7.3-1.6-3.77-11.47-10.85-13.32l4.35-2.28c-1.49-.81-2.91-2.06-4.49-2.31-2.43-.39-5.1.39-7.43-.22-1.87-.49-3.39-2.31-5.06-3.54,1.27-.67,2.54-1.36,3.83-2,1.84-.92,3.7-1.81,4.9-2.39-2.12-2.68-3.9-4.92-5.67-7.17l14.9-12.09a29.52,29.52,0,0,0,5.7.55c2.92-.28,6-1.37,5.39,3.54-1.17,6-2.62,12-3.34,18-.19,1.63,1.82,3.53,2.81,5.3a27.3,27.3,0,0,0,2.84-2.05c3.24-3,5.6-4.74,8.53,1,1.41,2.76,6,3.89,9.17,5.76l6,5.26a41.69,41.69,0,0,0,1.63-5,44.29,44.29,0,0,0,.4-5.4c3.43,0,8.72,2.59,6.94-4.86l1-3c-.37-1.6-.78-3.18-1.11-4.79-.93-4.48-3.86-9.36,2.46-12.48.31-.15,0-1.47,0-2.25-5.75.24-2.85-4-3.38-6.5l10,9,10.91,4-4.66,17.62,1,.5,2.81-3.11,6.63,6c.47-2.11.8-4.27,1.47-6.31a10.57,10.57,0,0,1,1.9-2.69c2.06,1,4.63,1.45,6.08,3,2.87,3.06,4.36,1.74,5.91-1h3l10,5,4.09,6.6,1-.53-.2-4.24,6.12,2.17,5,5V205c.78,3.07,6.8,4.77,2.39,9.19,5.77,2.83,2.07,7.75,2.59,11.73-5-.27-5.22-8-11-7l-2-1.62-3.93,7.6c-1.57-1-3.14-2-4.56-2.92l-4.44,13.92c-1.59-1.47-4-2.66-4.59-4.46-1-3-1-6.32-1.38-9.51L73,220.83s.9-2.53.13-3.23c-3.44-3.14-1.47-3.94,1.2-6.07C76,210.22,77,206,76.11,204.14s-4.44-3.77-6.86-3.83c-1.74,0-3.81,2.72-5.24,4.6-1,1.35-1.21,3.33-1.78,5-2-3-4-2.54-6,0l-2,2-5,7L43.6,223.4l5.62,2.48c.66,1.61,1.33,3.21,2,4.74l7.35-5.32c.32,2.29.47,3.43.63,4.56l-1,1-6.85,3.85,8.87,3.17h-2l-4,3a25.43,25.43,0,0,1-4.8,1.07,57.16,57.16,0,0,1-6.66-.57c.82-1.83,1.63-3.67,2.44-5.5-.25-2.45.18-6.61-.88-7-3.39-1.35-7.34-1.31-11.5-1.87a8.71,8.71,0,0,0,.18-3.52c-.5-2.12-1.55-5.75-2.56-5.82-3.69-.25-7.47.71-11.22,1.22C16.55,216.39,13.88,214.31,11.22,218.88Zm25.53-19.56c-.49,1.14-1.07,1.84-1,2.5.28,5.45,5.08,6.06,8.72,7.53a8.41,8.41,0,0,0,6.33-.14c1.11-.58,1.05-3.4,1.51-5.21a23.16,23.16,0,0,1-4.56-.07,91.11,91.11,0,0,1-9-2.44C38,201.28,37.63,200.34,36.75,199.32Zm45.58,14.42,5.34-4.34-3.45-4.11a62,62,0,0,0-4.39,5.32C79.63,210.88,81.08,212.22,82.33,213.74ZM-8.91,199l.15,3,7.59-.77a10.69,10.69,0,0,0-.27-2.11C-3.92,199-6.42,199-8.91,199Z"/><path class="cls-42" d="M19.22,218.88c3.75-.51,7.53-1.47,11.22-1.22,1,.07,2.06,3.7,2.56,5.82a8.71,8.71,0,0,1-.18,3.52c4.16.56,8.11.52,11.5,1.87,1.06.42.63,4.58.88,7-1.32-.35-2.67-.61-4-1.08-1.8-.65-4.49-2.54-5.13-2-1.85,1.61-2.92,4.15-4.2,6.39-.66,1.15-1.11,2.43-1.66,3.65l-2-1c-1.67-3.75-3.31-7.52-5.09-11.22-.18-.39-1.27-.31-1.91-.52s-1.87-.5-1.88-.8C19.22,225.88,19.22,222.36,19.22,218.88Z"/><path class="cls-5" d="M-1.78,231.88l9-4c-1.37,1.94-3.3,3.71-3.95,5.86s-.26,4.91-.1,7.37c.08,1.19,1.24,2.55.9,3.47C2.36,249.32.33,254-1.62,258.68l-5.72-3.63c11.85-4.43-4.12-6.51-.26-10.21l7.48-.43c-.31-1-.33-1.45-.51-1.53-7.53-3.24-7.51-3.23-1.82-9.15C-2,233.29-2,232.5-1.78,231.88Z"/><path class="cls-2" d="M86.22,239.88c-.35-1.35-.7-2.7-1-4L89.66,222c1.42.92,3,1.92,4.56,2.92-.59,1.44-.83,3.2-1.84,4.21-1.15,1.17-4.24,1.63-4.26,2.45,0,1.77,1.33,3.58,2.13,5.37Z"/><path class="cls-4" d="M49.22,268.88a50.32,50.32,0,0,1,4.19-4.68c.92-.82,2.33-1.1,3.52-1.63-.23,1.6,0,4.15-.79,4.61-2,1.09-4.58,1.2-6.92,1.7Z"/><path class="cls-43" d="M47.22,246.88c1.93,0,4-.41,5.76.09,1.26.35,2.18,1.91,3.25,2.93a56.7,56.7,0,0,1-7.69.64C45.77,250.41,44.38,249.25,47.22,246.88Z"/><path class="cls-44" d="M67.22,240.88q1-3.24,1.9-6.48c.85,1.53,1.78,3,2.5,4.61a12.75,12.75,0,0,1,.6,2.87Z"/><path class="cls-33" d="M28.22,241.88l2.06,1c-.32,1.41-.65,2.82-1,4.23L25.34,246Z"/><path class="cls-42" d="M78.22,239.88h6c-.29,1.59-.59,3.18-.89,4.76-1-1.13-2.06-2.29-3.17-3.37A15.58,15.58,0,0,0,78.22,239.88Z"/><path class="cls-24" d="M116.16,195.88l-3-2.9c.37-4.48.51-9,1.25-13.43.19-1.12,2.17-2.13,3.51-2.8a16.45,16.45,0,0,1,3.92-.86l-2.62-4,.93-2.14,3-3.76q-.93-2.1-1.93-4.1c1.46,1.79,4.37,5,4.17,5.17-3.4,3.54-.81,5.15,1.85,6.84l-1.4.36c.76,2.43,1.1,5.17,2.5,7.16.54.78,3.46,0,5.28-.23a40.61,40.61,0,0,0,4.07-.93c-1.48,2.84-2.63,5.1-3.83,7.32-.66,1.24-1.41,2.43-2.12,3.64-.69-1-1.17-2.45-2.13-2.94a29.77,29.77,0,0,0-6.75-2.32,4.11,4.11,0,0,0-1.42,2.81c1.07,4.1,2.49,8.1,3.78,12.14-1.64-.14-3.58.23-4.84-.54C118.7,199.33,117.54,197.43,116.16,195.88Z"/><path class="cls-45" d="M116.16,195.88c1.38,1.52,2.54,3.42,4.22,4.43,1.26.77,3.2.4,4.84.54,1.33,4.86,3,9.67,3.75,14.62.19,1.24-2.43,2.92-3.75,4.4-.19.46-.37.92-.58,1.37-.79,1.68-1.58,3.35-2.39,5-2.51-1.3-5.8-2-7.31-4.09-1.23-1.67-.8-5-.15-7.37.29-1,3-1.42,4.59-2.12L114,208.88l5-4.41C114.89,202.81,113.15,200.09,116.16,195.88Z"/><path class="cls-46" d="M119.22,171.88l2.64,4a16.45,16.45,0,0,0-3.92.86c-1.34.67-3.32,1.68-3.51,2.8-.74,4.42-.88,9-1.25,13.43-4,3-6.64,6.8-6.94,12v-1.1c-2.12-7.62-4.27-15.25-6.35-22.89a37.66,37.66,0,0,1-.67-4.1l5,.09c4,2,7.34,1.88,9-3.09l2-3Z"/><path class="cls-36" d="M100.22,218.88c5.83-1,6,6.77,11,7,.88,6-5,3.18-7.08,5.34-.06.06-.73-.23-.79-.45C102.22,226.81,101.22,222.88,100.22,218.88Z"/><path class="cls-47" d="M119.16,234.31c-.74-2.39-1.54-4.76-2.14-7.19-.07-.29,1-.86,1.5-1.3.91,1.13,2.24,2.14,2.61,3.43s-.14,3-.27,4.51Z"/><path class="cls-38" d="M143.05,269.21a7.76,7.76,0,0,1-1.5,1.17c-2.25,1-4.54,2-6.84,2.91a12.51,12.51,0,0,1-.64-1.45c2.74-1.45,5.52-2.83,8.3-4.22Z"/><path class="cls-39" d="M322.1,147.88a11.07,11.07,0,0,0,.34,3.44,12.32,12.32,0,0,0,2.29,2.75c.44-1,.82-2,1.33-2.91,1.36-2.43,2.78-4.83,4.17-7.25l-1.8,5.78c1.25,1.1,1.6,2.45,1.09,3.07-2.56,3.08-1.89,5,1.79,6.1-.74.89-1.46,1.81-2.24,2.67-.53.59-1.67,1.56-1.62,1.62,5.37,6.67-2.38,3.45-3.73,5a.68.68,0,0,0,.12.44,1.61,1.61,0,0,0,.38.31l-1,5.93v2c-4.22-2.14-7.66-.16-11,2.09-5.37-.67-10.74-1.38-16.13-2a3.48,3.48,0,0,0-2.6.57c-6.24,7-13.46,7.28-21.37,3.32l24.1-9.93c.35.67.55,1.78,1.07,2,9.55,3.51,12.16-4.47,16.06-10,.88-1.25.6-3.31.86-5h0Z"/><path class="cls-24" d="M358.22,158.88h1c-.35,2.34-1.12,4.74-.87,7,.16,1.41,1.87,2.65,2.89,4q-4.51,5-9,10.06l-15,1.94c.78-1,1.39-2.47,2.37-2.79,2.06-.66,5-.31,1.78-3.5l5.89-3.75c-.58-1.91-1.33-4.36-2.08-6.81l-4-3.1-1-1,5-3.11c1.89,2.57,3.86,3.82,7.51,4.68C357.4,163.59,358.5,163.6,358.22,158.88Z"/><path class="cls-2" d="M345.15,157.81l-5,3.11-8.84-2c-3.68-1.12-4.35-3-1.79-6.1.51-.62.16-2-1.09-3.07l1.79-5.83c3.24-3.8,5.68-1.73,8.22,1,.65.69,1.91.81,2.88,1.19q3.4,5.38,6.79,10.78Z"/><path class="cls-5" d="M323.27,176.79v-2c4.74-3.57,6.79,1.5,9.91,3.1-.77,5-4.76,6.28-8.64,8.11-3,1.42-5.55,3.88-8.3,5.88v-4c-1.22-10.46,5.9-9.41,13.17-8.17l-.45-1.82Z"/><path class="cls-34" d="M316.22,187.88v3c-1.46,1.89-3.3,5.58-4.32,5.37-5.14-1.07-5.63,2.37-6.66,5.58v-.94c-.29-1.45,1.37-4.2-2.83-2.33-1.56.7-5.37-3.64-8.16-5.69l-2-2,9.06,2,3.31,1.34a13.71,13.71,0,0,1,.87-3.4c.6-1.13,1.53-2.75,2.49-2.88A58.11,58.11,0,0,1,316.22,187.88Z"/><path class="cls-38" d="M294.22,192.88c2.79,2.05,6.6,6.39,8.16,5.69,4.2-1.87,2.54.88,2.83,2.33-7.59,4.52-7.63,4.51-11-3.47l-3,6.45-5-1-1-3c-1.29-4.58-.39-6.91,5.07-5.47C291.37,194.73,292.89,193.44,294.22,192.88Z"/><path class="cls-38" d="M305.22,201.88c1-3.21,1.52-6.65,6.66-5.58,1,.21,2.86-3.48,4.32-5.37v1c1,3.85,1.91,7.7,2.41,9.73l-11.39,7.22h0Z"/><path class="cls-48" d="M333.22,177.88c-3.12-1.6-5.17-6.67-9.91-3.1l1-5.93c2.55.94,5.55,1.37,7.5,3C333,173,332.74,175.88,333.22,177.88Z"/><path class="cls-49" d="M341.16,161.88l4,3.1c-.57,1-1,2.65-1.76,2.87-1.78.48-3.75.25-5.64.31a18.28,18.28,0,0,1,1.09-3.7A13.5,13.5,0,0,1,341.16,161.88Z"/><path class="cls-43" d="M352.22,179.88q4.5-5,9-10.06c1.33-.15,2.78-.71,4-.35s2.49,1.62,3.72,2.49q-.69-2.53-1.37-5.07c-.08-.31-.11-.63-.27-1.58,5.15,2.32,8.14.06,10-4.47l2,1-2,12a36.6,36.6,0,0,0-5.22.71c-2.94.83-7.7,1.23-8.36,3C360.76,185.45,356.47,181.66,352.22,179.88Z"/><path class="cls-50" d="M379.22,161.88l-2-1c-7.61,2.39-7.58,2.39-8.89-5.27a4.16,4.16,0,0,0-1.3-2.45c-3.39-2.52-1.88-3.57,1.15-4.27l13,8Z"/><path class="cls-44" d="M219.22,184.88l-8-14c-.53-4.84-3.16-6.9-8-6l-2.1-1.13,7-10.71c-4-.2-8.94-1.91-12-.24-4.44,2.45-8.06,2.93-12.45,1.14-1.31-.53-2.72-.83-4.08-1.23a21.64,21.64,0,0,1,3.33-3.16c.88-.56,2.17-.47,3.27-.67l5-1c2,.73,4.25,2.4,6,2,5.13-1.13,10-3.49,15.12-4.62s8,4.29,11.29,6.63c5.14,3.6,8.35,3.42,12.56,0l7,5c-.31,1.28-1.18,3.48-.85,3.68,3.91,2.31,7.91,4.31,11.91,6.31l-3,5-19,4a31,31,0,0,0-5.32,1,16.94,16.94,0,0,0-3.61,2.49l3.82,3.53,2,5-2,3Z"/><path class="cls-46" d="M189.22,97.88c-1.29,1.26-2.61,2.49-3.85,3.8-1.46,1.55-3.39,3.08.85,3.64.79.1,1.23,2.84,1.83,4.37-1.15.32-2.3.7-3.47,1-1.4.31-2.82.5-4.23.75,1.44.58,2.93,1.74,4.32,1.63,3.62-.28,7.2,0,8.24-5.58.82-4.39,3.45.16,5.3.43l-5.11,7.45c-.69,1-2.2,2.47-1.94,2.9a9.11,9.11,0,0,0,3.71,3.62c.58.27,2.23-1.48,3.19-2.49a18.28,18.28,0,0,0,1.91-2.94A25.61,25.61,0,0,0,201.9,120a13.72,13.72,0,0,0,3.28,3.39,27.15,27.15,0,0,0,5.36,2.48c3,1.09,6.06,2.07,9.12,3,1.82.56,3.7,1,5.55,1.44a16.47,16.47,0,0,1-3.42,1.18,2.42,2.42,0,0,1-1.45-.6l-2.12,4-8-2c-.36-1.48-.49-4.12-1.11-4.24a7.46,7.46,0,0,0-8.8,5.82,7.56,7.56,0,0,0-.09,2.42c-3.13.64-6.37,2.1-9.37,1.72-4.63-.58-9.09-2.41-13.63-3.71,2.55-3.43,5.16-6.82,7.62-10.31a14.19,14.19,0,0,0,1.29-3.21c-1.08.61-2.19,1.17-3.32,1.67-3.11,1.23-6.27,3.25-9.38,3.18-1.62,0-3-4-4.82-5.79-1-1-2.9-1.06-4.39-1.55-.33-1.43-.69-2.85-1-4.28-.63-3.09,2-8.66-5.22-6.7-.21.06-.94-.68-.89-.91a2.4,2.4,0,0,1,1-1.52,42.56,42.56,0,0,1,4.11-1.59l3-2c1.67.59,4,.68,4.88,1.86,2.84,3.74,5,2,7.91.13C181.54,101.55,185.47,99.88,189.22,97.88Z"/><path class="cls-41" d="M177.22,134.88c4.54,1.3,9,3.13,13.63,3.71,3,.38,6.24-1.08,9.37-1.72l10-4,8,2c2.56,2,5,3.95,2.29,7.76-.41.58,1.08,3,2.18,4s2.66,1.22,4.08,1.66,3,.75,4.51,1.11c-.35-1.47-.71-3-1.07-4.42l1.3-.8,4.71,7.7c-4.21,3.44-7.42,3.62-12.56,0-3.34-2.34-6-7.79-11.29-6.63s-10,3.49-15.12,4.62c-1.78.39-4-1.28-6-2l2.76-2.3-7.61-3.5-.18,6.81c-1.1.2-2.39.11-3.27.67a21.64,21.64,0,0,0-3.33,3.16c1.36.4,2.77.7,4.08,1.23,4.39,1.79,8,1.31,12.45-1.14,3-1.67,7.91,0,12,.24-4.21.42-8.7.14-12.49,1.63-1.33.52-1,5.38-1.37,8.26l-2.61-3.5c-1,1-2.49,1.75-2.89,2.92-.59,1.7-.38,3.67-.52,5.52h0c-2.63.23-5.25.63-7.87.66-4.9.06-7.91-3.95-5.14-7.23,3.29-3.89,2-5-2-6.21-1-.28-1.55-1.8-2.31-2.74,1-.32,2-.67,3-.93.75-.18,1.52-.23,2.15-.33l-2.88-5.21,4-10Z"/><path class="cls-51" d="M212.22,95.88,205,92.53c1.14-2.44,1.77-6.28,3.57-6.93,2-.73,5,1.45,7.63,2.36C214.88,90.57,213.55,93.21,212.22,95.88Z"/><path class="cls-6" d="M200.22,102.88v-5c2.58.48,5.14,1,7.74,1.41,1.67.24,3.4.14,5.08.36a2.43,2.43,0,0,1,.37,1.66c-1.42.94-2.92,2.3-4.46,2.38C206.06,103.88,203.14,103.19,200.22,102.88Z"/><path class="cls-19" d="M180.22,62.88c1.66-.33,3.5-1.27,5-.87,3.43,1,3.7-.43,3-3.1,2.35,2,4.79,3.89,7,6,.41.39-.18,1.74-.17,2.64,0,1.43.14,2.87.22,4.3h-1c-2.65-.56-5.59-2.06-7.86-1.37-1.9.57-4.61,4.33-4.12,5.59.9,2.35,3.86,3.9,6,5.78v1c-5.53-.63-9.08,1.89-11,7l-5.47-6c.73,3.07,1.46,6.15,2.21,9.22.07.31.43.64.36.89-.33,1.18-.75,2.34-1.14,3.5a8.35,8.35,0,0,0-2.2-1.62,8.58,8.58,0,0,0-2.77,0l-4-3,4.14-4.21c-1.56-1-3-2.5-4.7-3a28.15,28.15,0,0,0-6.07-.6c-3.36-2.57,8.57-3.29-.43-6.15a29.65,29.65,0,0,0-1.89-4.23,35.18,35.18,0,0,0-3.11-3.77c4.33.19,8.08-4.09,7-8l2-2a55.45,55.45,0,0,1,1.92,5.33c.47,1.89.53,3.87.93,5.77.27,1.26,1.31,2.52,1.16,3.66-.64,4.9,2.59,4.33,5.33,3.73,5-1.09,7.75-7,6.66-13.49Z"/><path class="cls-52" d="M168.22,95.88a8.58,8.58,0,0,1,2.77,0,8.35,8.35,0,0,1,2.2,1.62c.39-1.16.81-2.32,1.14-3.5.07-.25-.29-.58-.36-.89-.75-3.13-1.49-6.23-2.22-9.23l5.47,6c.82.54,1.76,1.64,2.46,1.51,5.54-1,10.82-5.66,16.57-.85l-7,7.34c-3.75,2-7.68,3.67-11.2,6-2.89,1.92-5.07,3.61-7.91-.13-.89-1.18-3.21-1.27-4.88-1.86Q166.72,98.88,168.22,95.88Z"/><path class="cls-32" d="M188.22,82.88v-1c2.65-1.51,5.54-2.75,7.76-4.75.55-.49-1.11-3.43-1.75-5.25h1c2.22.91,4.77,1.41,6.57,2.85,1.41,1.13,3,3.92,2.53,5-.69,1.54-3.25,2.87-5.16,3.11C195.58,83.33,191.88,82.94,188.22,82.88Z"/><path class="cls-53" d="M153.14,60.79l5.2-17,3.88,7.09c.26,1.62.3,4.57.81,4.65,4.37.7,8.82.89,13.25,1.23l-.14.24c-4.61,2.74-9.17,5.65-15,3.87l-2,2c-.93-.35-2.56-1.17-2.7-1C154,65.67,154,61.94,153.14,60.79Z"/><path class="cls-54" d="M176.31,56.77c-4.43-.34-8.88-.53-13.25-1.23-.51-.08-.55-3-.81-4.65a16.77,16.77,0,0,0,3.67,1.89,30.14,30.14,0,0,0,7.38,1.1c4.32-.08,8.64-.6,13-.93.51,6.28-3,7-8,5.89Z"/><path class="cls-9" d="M251.22,171.88l3-5h7l1,1,10,5-6,5.13q-3.56,3.88-7.09,7.79l-5,13-.14.14a9.14,9.14,0,0,0-2-.18c-.29.93,0,2.26-.52,2.84-1.93,2.08-4.12,3.9-6.21,5.82a39.56,39.56,0,0,1-2-6.07c-.67-4.26-1.34-8.2-7.23-6.58-1-5.71-.18-10.75,5.21-14.15.46-.29.54-1.18.8-1.79a80.05,80.05,0,0,0,8.58-3.39C251.91,174.88,255.32,173.52,251.22,171.88Z"/><path class="cls-55" d="M262.22,167.88l-1-1a79.72,79.72,0,0,0-5.85-7c-2-1.91-1.15-9.16,1.93-9.82a18,18,0,0,1,9.92,1.12c3.25,1.3,7.56,2.55,7,7.7l-4.06,2.3c.81,1.29,2.42,3.13,2.13,3.5a8.63,8.63,0,0,1-4.13,3C266.29,168.2,264.22,167.88,262.22,167.88Z"/><path class="cls-39" d="M9.22,133.88c-2-1.33-4.32-2.4-5.93-4.12-.74-.79-.12-2.85-.11-4.34a39.19,39.19,0,0,1,4,1,8.8,8.8,0,0,1,2,1.43C9.22,129.88,9.22,131.88,9.22,133.88Z"/><path class="cls-9" d="M24.14,120.88l-4.92,5c-.19-.79-.7-1.68-.5-2.37.81-2.87,1.85-5.68,2.8-8.51C22.39,117,23.27,118.91,24.14,120.88Z"/><path class="cls-2" d="M322.1,147.88l-7.88,10,9-20.7c.86.72,2.57,1.72,2.44,2.12C324.64,142.22,323.32,145,322.1,147.88Z"/><path class="cls-45" d="M323.22,137.18l-9,20.7h0l-2-3c1.82-5,3.34-10.14,5.63-14.92.86-1.81,3.48-2.78,5.3-4.13A8.92,8.92,0,0,1,323.22,137.18Z"/><path class="cls-56" d="M345.15,157.81l3-1c.89-.2,1.88-.74,2.65-.52,2.53.7,5,1.69,7.45,2.57.28,4.72-.82,4.71-5.56,3.61C349,161.63,347,160.38,345.15,157.81Z"/><path class="cls-53" d="M176.31,56.77l1.95,2,2,4.11-3,3c-.56-1.31-1.45-2.58-1.58-3.93a22.78,22.78,0,0,1,.53-4.94Z"/><path class="cls-45" d="M125.22,200.88c-1.29-4-2.71-8-3.78-12.14-.21-.8,1.15-2.87,1.42-2.81a29.77,29.77,0,0,1,6.75,2.32c1,.49,1.44,1.93,2.13,2.94.71-1.21,1.46-2.4,2.12-3.64,1.2-2.22,2.35-4.48,3.83-7.32a40.61,40.61,0,0,1-4.07.93c-1.82.24-4.74,1-5.28.23-1.4-2-1.74-4.73-2.5-7.16l1.38-.35c4,4.2,5.58,3.86,9-2l6.5-.3,1.25,1.78c-7.17.91-5.37,4-2.4,6.13,4.64,3.28,9.16,7.22,15.81,6,1.75-.32,3.89,1.5,5.85,2.34v4l-1,1-1,1a32.16,32.16,0,0,0-2.55-2.67c-.84-.7-2.22-1.94-2.73-1.68a99.41,99.41,0,0,0-11.38,6.42c-4,2.73-7.72,4.92-12.7,1.89C128.73,196,125.22,195.12,125.22,200.88Z"/><path class="cls-22" d="M163.22,187.88c-2-.84-4.1-2.66-5.85-2.34-6.65,1.18-11.17-2.76-15.81-6-3-2.09-4.77-5.22,2.4-6.13l-1.25-1.78-6.5.3c0-1.07-.54-2.41-.07-3.16,5.84-9.4,3.38-17.27-6.94-21.8l6.34-4.31,2.58,6.88,3.1.38,8,9c2.59,4,5,8.38,12.57,3.34l-11.57-4.38c.66-1,1.38-2,2-3.09s2.12-3.36,1.83-3.63c-4.48-4.28-9.18-8.28-13.83-12.28l-3.2-2.82c.39-3.3.67-5.91,1-8.5a4.45,4.45,0,0,1,.84-2.13c4.57-5.49,10.47-5.56,17-4.65,2.64.37,5.54-1.2,8.33-1.89,1.49.49,3.36.57,4.39,1.55,1.87,1.77,3.2,5.76,4.82,5.79,3.11.07,6.27-2,9.38-3.18,1.13-.5,2.24-1.06,3.32-1.67a14.19,14.19,0,0,1-1.29,3.21c-2.46,3.49-5.07,6.88-7.62,10.31v1c-4-.94-8-2-12.08-2.74a2.81,2.81,0,0,0-2.26,1.12c-1.92,2.79-3.65,5.71-5.64,8.9a15.4,15.4,0,0,1,4.27-.55c4,.55,9-1.85,11.72,3.28l2.8,5.23c-.63.1-1.4.15-2.15.33-1,.26-2,.61-3,.93.76.94,1.35,2.46,2.31,2.74,4,1.17,5.28,2.32,2,6.21-2.77,3.28.24,7.29,5.14,7.23,2.62,0,5.24-.43,7.87-.66-.33,1-.66,2-1,3-7.07,1.58-14,1.89-20.58-2a3.24,3.24,0,0,0-3.08.17c-.58.61-.53,2.16-.25,3.16a48.33,48.33,0,0,0,2.89,8.25c.43.87,2.22,1.46,3.42,1.51,3,.13,9.14,5.88,8.27,8.51-.21.64-3.25.79-4.82.43C169.73,190.18,166.5,188.93,163.22,187.88ZM154,136.61c-6.14-1.61-6.14-1.61-5.5-7.74,0-.16.19-.37.13-.47-.55-1-1.14-2-1.72-3.06-1.07.81-2.81,1.42-3.12,2.46C141.8,134.4,146.31,138.69,154,136.61Z"/><path class="cls-34" d="M187.22,170.88c.32-1,.65-2,1-3h0c3.93.59,7.86,1.26,11.8,1.75,2,.24,4,.15,6,.2l-2.8-5c4.84-.89,7.47,1.17,8,6l-4,7c-3.22.27-6.45.46-9.66.82C190.27,179.5,187.44,177.4,187.22,170.88Z"/><path class="cls-30" d="M270.22,180.88l1.89-.09c7.91,4,15.13,3.73,21.37-3.32a3.48,3.48,0,0,1,2.6-.57c5.39.59,10.76,1.3,16.13,2-2.62.84-5.21,1.78-7.86,2.51-3.35.92-6.76,1.66-10.14,2.49-3.85,1.82-8.75-.19-12.16,3.85-2.06,2.45-5.15,4-7.79,6l-.07.3c-.91-1.86-1.82-3.71-2.25-4.6l-3.72,10.43-12,3-2-3.89v-.11a129.44,129.44,0,0,0,9.76-9.27c.52-.59-1.17-3.13-1.84-4.77Z"/><path class="cls-24" d="M235.37,195c.18,3.31.4,6.63.48,10,0,.23-1.25.85-1.57.67-1.33-.77-3-1.51-3.67-2.73a70.21,70.21,0,0,1-3.26-8l6.86-1Z"/><path class="cls-50" d="M225.54,205.66l12.25,2.22c-2.42,1.92-4.76,5.18-7.21,5.26-2,.06-4.07-3.71-6.12-5.78Z"/><path class="cls-15" d="M235.37,195l-1.15-1.14v-2c-1.81-10.68-.48-12.84,8-13-.26.61-.34,1.5-.8,1.79-5.39,3.4-6.19,8.44-5.21,14.15Z"/><path class="cls-8" d="M234.22,191.88v2l-6.86,1c-.06-1.31-.13-2.63-.2-3.94l2-3Z"/><path class="cls-12" d="M294.22,192.88c-1.33.56-2.85,1.85-4,1.55-5.46-1.44-6.36.89-5.07,5.47-3.16-.82-5.26-5.86-9.49-2.38-.51-1.17-1-2.34-1.51-3.51l.07-.29,18-2.84Z"/><path class="cls-20" d="M10.22,150.88l8-7c1.58,1,2.89,6,4.93.34.83.3,2.12.38,2.38.95.82,1.74,1.89,3.73,1.73,5.51-.49,5.24,2,5.5,5.91,4.2l2.06,7v1c.53,2.48-2.37,6.74,3.38,6.5,0,.78.28,2.1,0,2.25-6.32,3.12-3.39,8-2.46,12.48.33,1.61.74,3.19,1.11,4.79-.95-.22-2.12-.15-2.81-.7-7.08-5.48-14-11.15-21.18-16.53-1-.78-3-.44-4.48-.36a6.08,6.08,0,0,0-.21,2.84,36.18,36.18,0,0,0,1.65,4.5,34.39,34.39,0,0,1-4.6-1.72,43.47,43.47,0,0,1-4.38-3c.63-4.91-2.47-3.82-5.39-3.54a29.52,29.52,0,0,1-5.7-.55l16.08-15c.73.9,1.95,2.67,2.12,2.58,4.12-2.3,5,1.61,6.91,3.47-1.21,6.63,2,10.68,7.71,13.32,1.7.78,3.34,1.69,5,2.54.24-2.07,1.14-4.34.59-6.18a49.93,49.93,0,0,0-4.73-10.77c-.81-1.39-3-1.94-4.62-2.88Z"/><path class="cls-14" d="M1.22,173.88a43.47,43.47,0,0,0,4.38,3,34.39,34.39,0,0,0,4.6,1.72,36.18,36.18,0,0,1-1.65-4.5,6.08,6.08,0,0,1,.21-2.84c1.51-.08,3.45-.42,4.48.36,7.15,5.38,14.1,11,21.18,16.53.69.55,1.86.48,2.81.7-.34,1-.67,2-1,3l-6,1a17.71,17.71,0,0,0-.58-2.39c-.54-1.39-1.2-2.72-1.81-4.07-1,1.15-2.38,2.14-2.87,3.47-1.44,3.93-2.52,8-3.74,12-3.16-1.87-7.76-3-9.17-5.76-2.93-5.72-5.29-4-8.53-1a27.3,27.3,0,0,1-2.84,2.05c-1-1.77-3-3.67-2.81-5.3C-1.41,185.88,0,179.88,1.22,173.88Z"/><path class="cls-29" d="M56.15,175.88l-10.93-4,6-1.12-5-4.93c7.94-.66,4.25-5.15,2.94-8.89l-9-7,2.39-4.54-.21-.35L46,138.19c3.51.33,7.07.41,10.52,1.07,2.67.51,5.21,1.75,7.81,2.66h0a107.3,107.3,0,0,0-9.85,5.17c-2.33,1.48-4.18,3.79-.18,5.79l1.52,7.45,3.48-1.45Z"/><path class="cls-8" d="M77.22,189.88c-1.55,2.74-3,4.06-5.91,1-1.45-1.53-4-2-6.08-3v-2c5-3.42,12-3.6,15-10,4.25-2,7.24-4.73,5.67-10.12-.2-.68.73-1.7,1.15-2.55l4.17-8.31c.59,1.18,1.88,2.53,1.64,3.5-.92,3.82-.76,6.33,4.2,5.84a2.69,2.69,0,0,1,2.22,1.39,3.14,3.14,0,0,1-1,2.53,31,31,0,0,1-4,2.72c-2.79.88-4,2.32-5,5.56-1.24,3.82-5.56,6.65-8.56,9.89C79.53,187.53,78.36,188.69,77.22,189.88Z"/><path class="cls-33" d="M67.22,229.88c2-2.54,3.47-4.27-1.22-6.21-5-2.09-.66-6.45-.85-9.78l-3-4c.57-1.7.76-3.68,1.78-5,1.43-1.88,3.5-4.63,5.24-4.6,2.42.06,5.9,1.82,6.86,3.83s-.12,6.08-1.77,7.39c-2.67,2.13-4.64,2.93-1.2,6.07.77.7-.14,3.24-.13,3.23l6.29,1.07a27,27,0,0,0-3.43,2.49,7.84,7.84,0,0,0-2.2,3.27c-.37,1.5-.09,3.17-.09,5.85Z"/><path class="cls-57" d="M77.22,189.88c1.14-1.18,2.31-2.34,3.42-3.55,3-3.24,7.32-6.07,8.56-9.89,1-3.24,2.21-4.68,5-5.56a17.1,17.1,0,0,1,3.66,2.48c.78.88.93,2.31,1.36,3.5a38.15,38.15,0,0,0,.65,4.13c2.08,7.64,4.23,15.27,6.35,22.89l-5-5c-1-2.33-2-4.67-3-7v-8c-3.35-4.42-6.68-4.11-11,1l-1,3-6,2Z"/><path class="cls-50" d="M21.22,201.88c1.22-4,2.3-8.07,3.74-12,.49-1.33,1.89-2.32,2.87-3.47.61,1.35,1.27,2.68,1.81,4.07a16.45,16.45,0,0,1,.58,2.4c-.31,1.29-.62,2.59-.94,3.88a44.29,44.29,0,0,1-.4,5.4,41.69,41.69,0,0,1-1.63,5Z"/><path class="cls-35" d="M36.75,199.32c.88,1,1.29,2,1.94,2.17,3,.94,6,1.8,9,2.44a23.16,23.16,0,0,0,4.56.07c-.46,1.81-.4,4.63-1.51,5.21a8.41,8.41,0,0,1-6.33.14c-3.64-1.47-8.44-2.08-8.72-7.53C35.68,201.16,36.22,200.46,36.75,199.32Z"/><path class="cls-23" d="M49.22,156.88c1.31,3.74,5,8.23-2.94,8.89l5,4.93-6.06,1.18-10-9v-1c1.62.2,3.38.06,4.84.66C45.84,164.94,48.39,162.44,49.22,156.88Z"/><path class="cls-2" d="M54.22,211.88a25.7,25.7,0,0,0,2,3.71c1.13,1.54,2.5,2.91,3.76,4.35l-5.71,3.94-5-5h0Z"/><path class="cls-9" d="M55.22,190.88l3-4,6.94-.07v1.07a10.68,10.68,0,0,0-1.93,2.69,63.71,63.71,0,0,0-1.47,6.31Z"/><path class="cls-58" d="M82.33,213.74c-1.25-1.52-2.7-2.87-2.53-3.13a62,62,0,0,1,4.39-5.32l3.48,4.11Z"/><path class="cls-8" d="M98.22,191.88l3,7-6.07-2.16.2,4.24-1,.53-4.13-6.61h0Z"/><path class="cls-2" d="M62.22,209.88l3,4c-3-1.28-8.24,2.35-9-4C58.22,207.36,60.22,206.88,62.22,209.88Z"/><path class="cls-51" d="M29.28,196.75c.32-1.29.63-2.59.94-3.88l6-1C38,199.34,32.71,196.72,29.28,196.75Z"/><path class="cls-40" d="M49.22,223.88v2l-5.62-2.46,5.62-4.54h0C51.94,220.54,42.07,222.26,49.22,223.88Z"/><path class="cls-8" d="M80.22,189.88l6-2,4,7h0Z"/><path class="cls-39" d="M49.22,223.88c-7.17-1.65,2.7-3.37,0-5l5,5Z"/><path class="cls-13" d="M164.22,118.88c-2.79.69-5.69,2.26-8.33,1.89-6.5-.91-12.4-.84-17,4.65a4.45,4.45,0,0,0-.84,2.13c-.38,2.59-.66,5.2-1.05,8.5l3.22,2.83,1,11-3.1-.38-2.58-6.88-6.32,4.31q-4,.88-7.88,2.16a7.33,7.33,0,0,0-3.8,2.81,32.94,32.94,0,0,0-2,6.37l5.68,3.61c.67,1.37,1.31,2.74,1.94,4.11l-9.94-3.11c-1.1-4.52-2.83-5.43-5.79-1.15s-6,3.17-7.72-.92c-1.14-2.69-1-5.91-1.48-8.88l2-1c.07-1.14.39-3.22.18-3.28-4.6-1.18-4.88-5.29-6.14-8.73l-7.75-8.86,22.57-21.26c5.75,3.59,11.89,0,12.13-7,.16-4.78-.64-10,5.6-11.93.44-.14,1-1.75.73-2-.74-.75-2-1.82-2.71-1.6a23.65,23.65,0,0,0-4.62,2.61l4.85-11.13,2.75.59c.8-5.86,6.28-3.65,9.42-5.48.43,1.73.91,3.45,1.24,5.2.12.71.12,2-.22,2.14-5.1,2.4-3.15,5.51-1,8.68-1.38.88-4,1.92-3.92,2.59.52,3.75-.89,3.07-3.28,2.1-.83-.34-2.18.59-3.28.94,2.63,3.41-1,5.14-1.88,7.68-.56,1.64.19,3.72.35,5.6,4-2.06,3.63,1.28,4.51,3.38.28.67,1.54.94,2.35,1.39a10,10,0,0,1,.64-2.7,43.07,43.07,0,0,1,2.61-3.83l5.4,4.84a26.75,26.75,0,0,0,1.32-3,41.47,41.47,0,0,0,1.06-4.12c1.41,1.46,2.87,2.86,4.21,4.38,1.64,1.88,3.15,3.89,4.81,5.75.13.14,1.51-.6,1.5-.63-.84-2.26-1.84-4.45-2.66-6.71-.68-1.86-1.16-3.79-1.73-5.69h3c1.26,1.16,2.35,3,3.8,3.33,1.92.48,4.12-.17,6.2-.33a42.74,42.74,0,0,0-4.12,1.59,2.4,2.4,0,0,0-1,1.52c0,.23.68,1,.89.91,7.17-2,4.59,3.61,5.22,6.7C163.53,116,163.89,117.45,164.22,118.88ZM128.07,122c-5.59.08-6.35,1.23-4.55,7.84.81,3,2.16,5.87,3.27,8.79,1.86-2.77,4.06-5.38,5.51-8.35C134.91,124.88,133.22,121.88,128.07,122ZM96.35,133.61l-1.1.5,1.91,3.48a42.47,42.47,0,0,0,2.4-3.55c.61-1.13,1.51-2.51,1.31-3.61a36.57,36.57,0,0,0-2.37-6.83c0-.07-1.52.13-1.64.45a19.38,19.38,0,0,0-1.47,5.28c-.1,1.39.61,2.85,1,4.28Zm16.19-4.68c-2.18-.23-3.39-.69-4.31-.36a13.13,13.13,0,0,0-3.07,2.27c1.22.72,2.53,2.1,3.64,2s1.91-1.91,3.74-3.91Z"/><path class="cls-26" d="M121.22,161.88l-5.66-3.59a32.94,32.94,0,0,1,2-6.37,7.33,7.33,0,0,1,3.8-2.81q3.89-1.28,7.88-2.16c10.32,4.53,12.78,12.4,6.94,21.8-.47.75,0,2.09.07,3.16-3.39,5.84-4.94,6.18-9,2-2.66-1.69-5.25-3.3-1.85-6.84C125.59,166.88,122.68,163.65,121.22,161.88Z"/><path class="cls-57" d="M113.22,173.88c-1.64,5-4.94,5.09-9,3.09.49-5.28-.16-11.39,8-11.07l7.92,3.86-.92,2.12-4-1-6.67-2c-.27,1.84-.53,3.67-.79,5.51Z"/><path class="cls-59" d="M120.15,169.73l-7.93-3.85-4-3.31,5,.31,9.92,3.12Z"/><path class="cls-60" d="M113.22,162.88l-5.06-.29,4,3.31c-8.2-.32-7.55,5.79-8,11.07l-5-.09c-.43-1.19-.58-2.62-1.36-3.5a16.44,16.44,0,0,0-3.58-2.5,31,31,0,0,0,4-2.72,3.14,3.14,0,0,0,1-2.53A2.69,2.69,0,0,0,97,164.24c-5,.49-5.12-2-4.2-5.84.24-1-1-2.32-1.64-3.5v-1l7-2c.45,3,.34,6.19,1.48,8.88,1.72,4.09,4.68,5.3,7.72.92S112.14,158.33,113.22,162.88Z"/><path class="cls-18" d="M113.22,173.88l-5.41.51c.26-1.84.52-3.67.79-5.51l6.67,2Z"/><path class="cls-29" d="M294.22,183.88c3.38-.83,6.79-1.57,10.14-2.49,2.65-.73,5.24-1.67,7.86-2.51,3.39-2.25,6.83-4.23,11-2.09l5.67,1.1.45,1.82c-7.27-1.24-14.39-2.29-13.17,8.17a57.07,57.07,0,0,0-8.27,0c-1,.13-1.89,1.75-2.49,2.88a13.71,13.71,0,0,0-.87,3.4l-3.26-1.28C302.89,188.05,300,184.32,294.22,183.88Z"/><path class="cls-46" d="M312.22,154.88l2,3c-.26,1.69,0,3.75-.86,5-3.9,5.54-6.51,13.52-16.06,10-.52-.19-.72-1.3-1.07-2C304.84,168.88,308.68,162,312.22,154.88Z"/><path class="cls-19" d="M294.22,183.88c5.73.44,8.67,4.17,7.06,9l-9.06-2-18,2.86c2.64-2,5.73-3.54,7.79-6C285.47,183.69,290.37,185.7,294.22,183.88Z"/><path class="cls-61" d="M234.22,191.88,229.16,188l-2-5,5.06-7.11,19-4c4.11,1.65.7,3-.41,3.62a80.15,80.15,0,0,1-8.59,3.38C233.74,179,232.41,181.18,234.22,191.88Z"/><path class="cls-23" d="M194.22,162.93c.41-2.88,0-7.74,1.37-8.26,3.79-1.49,8.28-1.21,12.49-1.63l-7,10.71Z"/><path class="cls-36" d="M194.22,162.93l6.87.82,2.13,1.13,2.79,4.94c-2,0-4,0-6-.2-3.94-.49-7.87-1.16-11.8-1.75.14-1.85-.07-3.82.52-5.52.4-1.17,1.88-2,2.89-2.92Z"/><path class="cls-62" d="M186.22,148.88l.15-6.8,7.61,3.5-2.76,2.3Z"/><path class="cls-20" d="M232.22,175.88l-5.11,7.05-3.82-3.53a16.94,16.94,0,0,1,3.61-2.49A31.06,31.06,0,0,1,232.22,175.88Z"/><path class="cls-18" d="M162.22,103.88c-2.08.16-4.28.81-6.2.33-1.45-.36-2.54-2.17-3.8-3.33v-1c-1.48-3.72-1.18-6.87,3.27-8,2.93-.74,6.38-4.07,8.74,1l4,3-3,6Z"/><path class="cls-6" d="M210.22,132.88l-10,4a7.45,7.45,0,0,1,6.47-8.33,7.56,7.56,0,0,1,2.42.09C209.73,128.76,209.86,131.4,210.22,132.88Z"/><path class="cls-14" d="M173.22,145.88c-2.76-5.13-7.69-2.73-11.72-3.28a15.4,15.4,0,0,0-4.27.55c2-3.19,3.72-6.11,5.64-8.9a2.81,2.81,0,0,1,2.26-1.12c4.09.75,8.09,1.8,12.09,2.75Z"/><path class="cls-24" d="M152.22,99.88v1h-3c-1.61-.77-3.18-1.62-4.81-2.3-4.21-1.74-5.83-4.76-4.62-8.46a20.26,20.26,0,0,0-2.57-1.24c-2.15-3.17-4.1-6.28,1-8.68.34-.16.34-1.43.22-2.14-.33-1.75-.81-3.47-1.24-5.2l1-1,14-1a34.77,34.77,0,0,1,3.1,3.76,30.16,30.16,0,0,1,1.92,4.26c-3.52.05-7.06,0-10.56.26-.71.06-1.35,1.61-1.84,2.56-.06.12,1.13,1.27,1.44,1.15,6.23-2.39,3.29,1.51,2.49,3.69-.94,2.59-2.2,5.07-3.11,7.67-.19.53.55,1.4.86,2.11C151.15,93.06,150,99.22,152.22,99.88Z"/><path class="cls-52" d="M176.22,57a22.78,22.78,0,0,0-.53,4.94c.13,1.35,1,2.62,1.58,3.93,1.09,6.53-1.67,12.4-6.66,13.49-2.74.6-6,1.17-5.33-3.73.15-1.14-.89-2.4-1.16-3.66-.4-1.9-.46-3.88-.93-5.77a55.77,55.77,0,0,0-2-5.33C167,62.66,171.56,59.75,176.22,57Z"/><path class="cls-52" d="M152.22,99.88c-2.25-.66-1.08-6.82-5.75-3.57-.31-.71-1-1.58-.86-2.11.91-2.6,2.17-5.08,3.11-7.67.8-2.18,3.74-6.08-2.49-3.69-.31.12-1.5-1-1.44-1.15.49-1,1.13-2.5,1.84-2.56,3.5-.3,7-.21,10.56-.26,9,2.87-2.91,3.59.41,6.21a28.15,28.15,0,0,1,6.07.6c1.71.48,3.14,2,4.7,3l-4.15,4.2c-2.36-5-5.81-1.72-8.74-1C151.05,93,150.75,96.16,152.22,99.88Z"/><path class="cls-63" d="M194.22,71.88c.64,1.82,2.3,4.76,1.75,5.25-2.22,2-5.11,3.24-7.76,4.75-2.11-1.88-5.07-3.43-6-5.78-.49-1.26,2.22-5,4.12-5.59C188.64,69.82,191.58,71.32,194.22,71.88Z"/><path class="cls-52" d="M152.22,70.88l-14,1L136,70.72c7.76.23,13.35-3.26,17.11-9.93.84,1.15.83,4.88,3.38,1.1.14-.19,1.77.63,2.7,1C160.29,66.79,156.54,71.07,152.22,70.88Z"/><path class="cls-29" d="M68.22,125.79q-1.48,6.54-3,13.09a14.21,14.21,0,0,0-3-2.16c-2.79-1.08-5.7-1.84-8.52-2.85-1.53-.54-3-1.33-4.46-2-.9-3.17-2.18-4.7-4.78-1.19a3.47,3.47,0,0,1-1.84,1.42c-3.78.67-7.6,1.18-11.4,1.75v-1c4.06-2.17,8-4.52,12.18-6.5,7.35-3.5,14.83-6.71,22.18-10.18,3.28-1.55,4.25-.69,3.61,2.74C68.75,121.19,68.51,123.5,68.22,125.79Z"/><path class="cls-46" d="M49.22,131.88c1.48.67,2.93,1.46,4.46,2,2.82,1,5.73,1.77,8.52,2.85a14.21,14.21,0,0,1,3,2.16c-.31,1-.61,2-.92,3-2.6-.91-5.14-2.15-7.81-2.66-3.45-.66-7-.74-10.52-1.07L42.32,145l.21.35-2.37,4.51-7,5c-3.88,1.3-6.4,1-5.91-4.2.16-1.78-.91-3.77-1.73-5.51-.26-.57-1.55-.65-2.38-.95-2,5.61-3.35.71-4.93-.34l4.93-4,9-3c3.93.52,8.17,7.62,11.76-.6.33-.76,2.07-.79,2.9-1.48A19.35,19.35,0,0,0,49.22,131.88Z"/><path class="cls-64" d="M98.22,151.88l-7,2a22.72,22.72,0,0,1-3.86.45c-1.67-.1-3.36-.91-5-.72-1.09.13-2,1.45-3,2.23Q83,142.92,86.54,130q3.87,4.44,7.75,8.86c-2.07,4.55-1.4,7.85,3.93,9.4.86.25,1.36,1.71,2,2.61Z"/><path class="cls-60" d="M79.37,155.88c1-.78,2-2.1,3-2.23,1.59-.19,3.28.62,4.95.72a22.25,22.25,0,0,0,3.9-.49v1l-4.14,8.34c-.42.85-1.35,1.87-1.15,2.55,1.57,5.39-1.42,8.08-5.67,10.12h-1c1.4-3.25,2.8-6.51,4.8-11.13-5.49,5.76-5.6-.44-7.85-1.9,1.31-1.33,2.63-2.65,3.94-4C79.86,157.88,79.61,156.88,79.37,155.88Z"/><path class="cls-65" d="M120.22,88.88a23.65,23.65,0,0,1,4.63-2.66c.7-.22,2,.85,2.71,1.6.23.23-.29,1.84-.73,2-6.24,2-5.44,7.15-5.6,11.93-.24,7.07-6.38,10.61-12.13,7Z"/><path class="cls-7" d="M10.22,150.88l9,6-4,4c-1.92-1.86-2.79-5.77-6.91-3.47-.17.09-1.39-1.68-2.12-2.58Z"/><path class="cls-23" d="M136,70.72l2.19,1.16-1,1c-3.14,1.83-8.62-.38-9.42,5.48l-2.75-.59C126.29,71.64,130.48,70.11,136,70.72Z"/><path class="cls-13" d="M32.22,136.88l-9,3,8.07-7v1A28.71,28.71,0,0,0,32.22,136.88Z"/><path class="cls-66" d="M262.22,184.81c.67,1.64,2.36,4.18,1.84,4.77a131,131,0,0,1-9.84,9.3l5-13Z"/><path class="cls-2" d="M262.22,184.81l-3,1q3.54-3.9,7.09-7.79l3.91,2.86Z"/><path class="cls-67" d="M141.22,149.88l-1-11c4.64,4,9.34,8,13.82,12.29.29.27-1.13,2.41-1.83,3.63-.61,1.06-1.33,2.06-2,3.09l-1,1Z"/><path class="cls-13" d="M154,136.61c-7.65,2.08-12.16-2.21-10.21-8.81.31-1,2.05-1.65,3.12-2.46.58,1,1.17,2,1.72,3.06.06.1-.11.31-.13.47C147.82,135,147.82,135,154,136.61Z"/><path class="cls-67" d="M149.22,158.88l1-1,11.56,4.34C154.22,167.26,151.81,162.88,149.22,158.88Z"/><path class="cls-14" d="M15.22,160.88l4-4c1.58.94,3.81,1.49,4.62,2.88a49.93,49.93,0,0,1,4.73,10.77c.55,1.84-.35,4.11-.59,6.18-1.66-.85-3.3-1.76-5-2.54C17.22,171.55,14,167.5,15.22,160.88Z"/><path class="cls-68" d="M33.16,154.88l7-5,9,7c-.79,5.52-3.34,8-9.12,5.62-1.46-.6-3.22-.46-4.84-.66Z"/><path class="cls-32" d="M64.22,141.88c-.71,3.29-1.41,6.57-2.12,9.86l-7.88,1.14c-4-2-2.15-4.31.18-5.83A106.79,106.79,0,0,1,64.22,141.88Z"/><path class="cls-35" d="M54.22,152.88l7.91-1.14-2.91,7.14-3.47,1.44Z"/><path class="cls-65" d="M79.22,175.88h1c-3,6.37-10.09,6.55-15,10q1-4,2-8.09a8.31,8.31,0,0,1,.15-1C71.22,174.88,74.93,172,79.22,175.88Z"/><path class="cls-59" d="M67.22,177.78q-1,4-2,8.09v.95l-7,.06Z"/><path class="cls-69" d="M79.22,175.88c-4.28-3.9-8-1-11.86.92l8.8-13.92c2.25,1.46,2.36,7.66,7.85,1.9C82,169.36,80.61,172.62,79.22,175.88Z"/><path class="cls-8" d="M87.22,184.88c4.3-5.11,7.63-5.42,11-1L93.54,192c-1.82-2.18-3.63-4.37-5.46-6.54A3.66,3.66,0,0,0,87.22,184.88Z"/><path class="cls-39" d="M87.22,184.88a3.54,3.54,0,0,1,.84.54c1.83,2.17,3.64,4.36,5.46,6.54l4.7-8.08v8l-8,3-4-7Z"/><path class="cls-65" d="M137.22,88.88a20.39,20.39,0,0,1,2.58,1.24c-1.21,3.7.41,6.72,4.62,8.46,1.63.68,3.2,1.53,4.81,2.3.57,1.9,1.05,3.83,1.73,5.69.82,2.26,1.82,4.45,2.66,6.71,0,0-1.37.77-1.5.63-1.66-1.86-3.17-3.87-4.81-5.75-1.34-1.52-2.8-2.92-4.21-4.38A41.47,41.47,0,0,1,142,107.9a26.75,26.75,0,0,1-1.32,3l-5.4-4.84a45,45,0,0,0-2.6,3.82,10,10,0,0,0-.64,2.7c-.81-.45-2.07-.72-2.35-1.39-.88-2.1-.56-5.44-4.51-3.38-.16-1.88-.91-4-.35-5.6.85-2.54,4.51-4.27,1.88-7.68,1.1-.35,2.45-1.28,3.28-.94,2.39,1,3.8,1.65,3.28-2.1C133.22,90.8,135.85,89.76,137.22,88.88Z"/><path class="cls-23" d="M128.07,122c5.16-.07,6.84,2.9,4.23,8.28-1.45,3-3.65,5.58-5.51,8.35-1.11-2.92-2.46-5.78-3.27-8.79C121.72,123.18,122.48,122,128.07,122Z"/><path class="cls-8" d="M96.35,133.61c-.35-1.43-1.06-2.89-1-4.28a19.38,19.38,0,0,1,1.47-5.28c.12-.32,1.62-.52,1.64-.45a36.57,36.57,0,0,1,2.37,6.83c.2,1.1-.7,2.48-1.31,3.61a42.47,42.47,0,0,1-2.4,3.55l-1.9-3.48Z"/><path class="cls-70" d="M100.22,150.88c-.67-.9-1.17-2.36-2-2.61-5.33-1.55-6-4.85-3.93-9.4,1.26,3.44,1.54,7.55,6.14,8.73A21.07,21.07,0,0,1,100.22,150.88Z"/><path class="cls-30" d="M112.54,128.93c-1.83,2-2.68,3.73-3.74,3.87s-2.42-1.24-3.64-2a13.13,13.13,0,0,1,3.07-2.27C109.15,128.24,110.36,128.7,112.54,128.93Z"/><path class="cls-41" d="M32.22,136.88c-.32-1-.65-2-1-3,3.8-.57,7.62-1.08,11.4-1.75a3.47,3.47,0,0,0,1.84-1.42c2.6-3.51,3.88-2,4.78,1.19a19,19,0,0,1-2.39,2.9c-.83.69-2.57.72-2.9,1.48C40.35,144.47,36.11,137.37,32.22,136.88Z"/></g></g></svg>